%TF.GenerationSoftware,KiCad,Pcbnew,(6.0.1)*%
%TF.CreationDate,2022-03-23T22:50:50-04:00*%
%TF.ProjectId,OOPS-All-Knobs,4f4f5053-2d41-46c6-9c2d-4b6e6f62732e,rev?*%
%TF.SameCoordinates,Original*%
%TF.FileFunction,Legend,Bot*%
%TF.FilePolarity,Positive*%
%FSLAX46Y46*%
G04 Gerber Fmt 4.6, Leading zero omitted, Abs format (unit mm)*
G04 Created by KiCad (PCBNEW (6.0.1)) date 2022-03-23 22:50:50*
%MOMM*%
%LPD*%
G01*
G04 APERTURE LIST*
%ADD10C,0.150000*%
%ADD11C,0.100000*%
%ADD12C,0.120000*%
%ADD13C,0.127000*%
%ADD14C,0.200000*%
G04 APERTURE END LIST*
D10*
X67129258Y-52920107D02*
G75*
G03*
X67129258Y-52920107I-78613J0D01*
G01*
X67374846Y-52920107D02*
G75*
G03*
X67374846Y-52920107I-324201J0D01*
G01*
X67255427Y-52920107D02*
G75*
G03*
X67255427Y-52920107I-204782J0D01*
G01*
X44238095Y-24952380D02*
X44571428Y-24476190D01*
X44809523Y-24952380D02*
X44809523Y-23952380D01*
X44428571Y-23952380D01*
X44333333Y-24000000D01*
X44285714Y-24047619D01*
X44238095Y-24142857D01*
X44238095Y-24285714D01*
X44285714Y-24380952D01*
X44333333Y-24428571D01*
X44428571Y-24476190D01*
X44809523Y-24476190D01*
X43809523Y-23952380D02*
X43809523Y-24761904D01*
X43761904Y-24857142D01*
X43714285Y-24904761D01*
X43619047Y-24952380D01*
X43428571Y-24952380D01*
X43333333Y-24904761D01*
X43285714Y-24857142D01*
X43238095Y-24761904D01*
X43238095Y-23952380D01*
X42761904Y-24952380D02*
X42761904Y-23952380D01*
X42190476Y-24952380D01*
X42190476Y-23952380D01*
%TO.C,PCB1*%
X84190476Y-24428571D02*
X84047619Y-24476190D01*
X84000000Y-24523809D01*
X83952380Y-24619047D01*
X83952380Y-24761904D01*
X84000000Y-24857142D01*
X84047619Y-24904761D01*
X84142857Y-24952380D01*
X84523809Y-24952380D01*
X84523809Y-23952380D01*
X84190476Y-23952380D01*
X84095238Y-24000000D01*
X84047619Y-24047619D01*
X84000000Y-24142857D01*
X84000000Y-24238095D01*
X84047619Y-24333333D01*
X84095238Y-24380952D01*
X84190476Y-24428571D01*
X84523809Y-24428571D01*
X83333333Y-23952380D02*
X83142857Y-23952380D01*
X83047619Y-24000000D01*
X82952380Y-24095238D01*
X82904761Y-24285714D01*
X82904761Y-24619047D01*
X82952380Y-24809523D01*
X83047619Y-24904761D01*
X83142857Y-24952380D01*
X83333333Y-24952380D01*
X83428571Y-24904761D01*
X83523809Y-24809523D01*
X83571428Y-24619047D01*
X83571428Y-24285714D01*
X83523809Y-24095238D01*
X83428571Y-24000000D01*
X83333333Y-23952380D01*
X82285714Y-23952380D02*
X82095238Y-23952380D01*
X82000000Y-24000000D01*
X81904761Y-24095238D01*
X81857142Y-24285714D01*
X81857142Y-24619047D01*
X81904761Y-24809523D01*
X82000000Y-24904761D01*
X82095238Y-24952380D01*
X82285714Y-24952380D01*
X82380952Y-24904761D01*
X82476190Y-24809523D01*
X82523809Y-24619047D01*
X82523809Y-24285714D01*
X82476190Y-24095238D01*
X82380952Y-24000000D01*
X82285714Y-23952380D01*
X81571428Y-23952380D02*
X81000000Y-23952380D01*
X81285714Y-24952380D02*
X81285714Y-23952380D01*
X80714285Y-24904761D02*
X80571428Y-24952380D01*
X80333333Y-24952380D01*
X80238095Y-24904761D01*
X80190476Y-24857142D01*
X80142857Y-24761904D01*
X80142857Y-24666666D01*
X80190476Y-24571428D01*
X80238095Y-24523809D01*
X80333333Y-24476190D01*
X80523809Y-24428571D01*
X80619047Y-24380952D01*
X80666666Y-24333333D01*
X80714285Y-24238095D01*
X80714285Y-24142857D01*
X80666666Y-24047619D01*
X80619047Y-24000000D01*
X80523809Y-23952380D01*
X80285714Y-23952380D01*
X80142857Y-24000000D01*
X79714285Y-24428571D02*
X79380952Y-24428571D01*
X79238095Y-24952380D02*
X79714285Y-24952380D01*
X79714285Y-23952380D01*
X79238095Y-23952380D01*
X78333333Y-24952380D02*
X78809523Y-24952380D01*
X78809523Y-23952380D01*
%TO.C,ENC36*%
X244190476Y-68928571D02*
X243857142Y-68928571D01*
X243714285Y-69452380D02*
X244190476Y-69452380D01*
X244190476Y-68452380D01*
X243714285Y-68452380D01*
X243285714Y-69452380D02*
X243285714Y-68452380D01*
X242714285Y-69452380D01*
X242714285Y-68452380D01*
X241666666Y-69357142D02*
X241714285Y-69404761D01*
X241857142Y-69452380D01*
X241952380Y-69452380D01*
X242095238Y-69404761D01*
X242190476Y-69309523D01*
X242238095Y-69214285D01*
X242285714Y-69023809D01*
X242285714Y-68880952D01*
X242238095Y-68690476D01*
X242190476Y-68595238D01*
X242095238Y-68500000D01*
X241952380Y-68452380D01*
X241857142Y-68452380D01*
X241714285Y-68500000D01*
X241666666Y-68547619D01*
X241333333Y-68452380D02*
X240714285Y-68452380D01*
X241047619Y-68833333D01*
X240904761Y-68833333D01*
X240809523Y-68880952D01*
X240761904Y-68928571D01*
X240714285Y-69023809D01*
X240714285Y-69261904D01*
X240761904Y-69357142D01*
X240809523Y-69404761D01*
X240904761Y-69452380D01*
X241190476Y-69452380D01*
X241285714Y-69404761D01*
X241333333Y-69357142D01*
X239857142Y-68452380D02*
X240047619Y-68452380D01*
X240142857Y-68500000D01*
X240190476Y-68547619D01*
X240285714Y-68690476D01*
X240333333Y-68880952D01*
X240333333Y-69261904D01*
X240285714Y-69357142D01*
X240238095Y-69404761D01*
X240142857Y-69452380D01*
X239952380Y-69452380D01*
X239857142Y-69404761D01*
X239809523Y-69357142D01*
X239761904Y-69261904D01*
X239761904Y-69023809D01*
X239809523Y-68928571D01*
X239857142Y-68880952D01*
X239952380Y-68833333D01*
X240142857Y-68833333D01*
X240238095Y-68880952D01*
X240285714Y-68928571D01*
X240333333Y-69023809D01*
%TO.C,ENC33*%
X187190476Y-68928571D02*
X186857142Y-68928571D01*
X186714285Y-69452380D02*
X187190476Y-69452380D01*
X187190476Y-68452380D01*
X186714285Y-68452380D01*
X186285714Y-69452380D02*
X186285714Y-68452380D01*
X185714285Y-69452380D01*
X185714285Y-68452380D01*
X184666666Y-69357142D02*
X184714285Y-69404761D01*
X184857142Y-69452380D01*
X184952380Y-69452380D01*
X185095238Y-69404761D01*
X185190476Y-69309523D01*
X185238095Y-69214285D01*
X185285714Y-69023809D01*
X185285714Y-68880952D01*
X185238095Y-68690476D01*
X185190476Y-68595238D01*
X185095238Y-68500000D01*
X184952380Y-68452380D01*
X184857142Y-68452380D01*
X184714285Y-68500000D01*
X184666666Y-68547619D01*
X184333333Y-68452380D02*
X183714285Y-68452380D01*
X184047619Y-68833333D01*
X183904761Y-68833333D01*
X183809523Y-68880952D01*
X183761904Y-68928571D01*
X183714285Y-69023809D01*
X183714285Y-69261904D01*
X183761904Y-69357142D01*
X183809523Y-69404761D01*
X183904761Y-69452380D01*
X184190476Y-69452380D01*
X184285714Y-69404761D01*
X184333333Y-69357142D01*
X183380952Y-68452380D02*
X182761904Y-68452380D01*
X183095238Y-68833333D01*
X182952380Y-68833333D01*
X182857142Y-68880952D01*
X182809523Y-68928571D01*
X182761904Y-69023809D01*
X182761904Y-69261904D01*
X182809523Y-69357142D01*
X182857142Y-69404761D01*
X182952380Y-69452380D01*
X183238095Y-69452380D01*
X183333333Y-69404761D01*
X183380952Y-69357142D01*
%TO.C,ENC11*%
X225190476Y-30928571D02*
X224857142Y-30928571D01*
X224714285Y-31452380D02*
X225190476Y-31452380D01*
X225190476Y-30452380D01*
X224714285Y-30452380D01*
X224285714Y-31452380D02*
X224285714Y-30452380D01*
X223714285Y-31452380D01*
X223714285Y-30452380D01*
X222666666Y-31357142D02*
X222714285Y-31404761D01*
X222857142Y-31452380D01*
X222952380Y-31452380D01*
X223095238Y-31404761D01*
X223190476Y-31309523D01*
X223238095Y-31214285D01*
X223285714Y-31023809D01*
X223285714Y-30880952D01*
X223238095Y-30690476D01*
X223190476Y-30595238D01*
X223095238Y-30500000D01*
X222952380Y-30452380D01*
X222857142Y-30452380D01*
X222714285Y-30500000D01*
X222666666Y-30547619D01*
X221714285Y-31452380D02*
X222285714Y-31452380D01*
X222000000Y-31452380D02*
X222000000Y-30452380D01*
X222095238Y-30595238D01*
X222190476Y-30690476D01*
X222285714Y-30738095D01*
X220761904Y-31452380D02*
X221333333Y-31452380D01*
X221047619Y-31452380D02*
X221047619Y-30452380D01*
X221142857Y-30595238D01*
X221238095Y-30690476D01*
X221333333Y-30738095D01*
%TO.C,ENC12*%
X244190476Y-30928571D02*
X243857142Y-30928571D01*
X243714285Y-31452380D02*
X244190476Y-31452380D01*
X244190476Y-30452380D01*
X243714285Y-30452380D01*
X243285714Y-31452380D02*
X243285714Y-30452380D01*
X242714285Y-31452380D01*
X242714285Y-30452380D01*
X241666666Y-31357142D02*
X241714285Y-31404761D01*
X241857142Y-31452380D01*
X241952380Y-31452380D01*
X242095238Y-31404761D01*
X242190476Y-31309523D01*
X242238095Y-31214285D01*
X242285714Y-31023809D01*
X242285714Y-30880952D01*
X242238095Y-30690476D01*
X242190476Y-30595238D01*
X242095238Y-30500000D01*
X241952380Y-30452380D01*
X241857142Y-30452380D01*
X241714285Y-30500000D01*
X241666666Y-30547619D01*
X240714285Y-31452380D02*
X241285714Y-31452380D01*
X241000000Y-31452380D02*
X241000000Y-30452380D01*
X241095238Y-30595238D01*
X241190476Y-30690476D01*
X241285714Y-30738095D01*
X240333333Y-30547619D02*
X240285714Y-30500000D01*
X240190476Y-30452380D01*
X239952380Y-30452380D01*
X239857142Y-30500000D01*
X239809523Y-30547619D01*
X239761904Y-30642857D01*
X239761904Y-30738095D01*
X239809523Y-30880952D01*
X240380952Y-31452380D01*
X239761904Y-31452380D01*
%TO.C,D44*%
X172452380Y-86785714D02*
X171452380Y-86785714D01*
X171452380Y-87023809D01*
X171500000Y-87166666D01*
X171595238Y-87261904D01*
X171690476Y-87309523D01*
X171880952Y-87357142D01*
X172023809Y-87357142D01*
X172214285Y-87309523D01*
X172309523Y-87261904D01*
X172404761Y-87166666D01*
X172452380Y-87023809D01*
X172452380Y-86785714D01*
X171785714Y-88214285D02*
X172452380Y-88214285D01*
X171404761Y-87976190D02*
X172119047Y-87738095D01*
X172119047Y-88357142D01*
X171785714Y-89166666D02*
X172452380Y-89166666D01*
X171404761Y-88928571D02*
X172119047Y-88690476D01*
X172119047Y-89309523D01*
%TO.C,D9*%
X191452380Y-29761904D02*
X190452380Y-29761904D01*
X190452380Y-30000000D01*
X190500000Y-30142857D01*
X190595238Y-30238095D01*
X190690476Y-30285714D01*
X190880952Y-30333333D01*
X191023809Y-30333333D01*
X191214285Y-30285714D01*
X191309523Y-30238095D01*
X191404761Y-30142857D01*
X191452380Y-30000000D01*
X191452380Y-29761904D01*
X191452380Y-30809523D02*
X191452380Y-31000000D01*
X191404761Y-31095238D01*
X191357142Y-31142857D01*
X191214285Y-31238095D01*
X191023809Y-31285714D01*
X190642857Y-31285714D01*
X190547619Y-31238095D01*
X190500000Y-31190476D01*
X190452380Y-31095238D01*
X190452380Y-30904761D01*
X190500000Y-30809523D01*
X190547619Y-30761904D01*
X190642857Y-30714285D01*
X190880952Y-30714285D01*
X190976190Y-30761904D01*
X191023809Y-30809523D01*
X191071428Y-30904761D01*
X191071428Y-31095238D01*
X191023809Y-31190476D01*
X190976190Y-31238095D01*
X190880952Y-31285714D01*
%TO.C,ENC37*%
X35190476Y-87928571D02*
X34857142Y-87928571D01*
X34714285Y-88452380D02*
X35190476Y-88452380D01*
X35190476Y-87452380D01*
X34714285Y-87452380D01*
X34285714Y-88452380D02*
X34285714Y-87452380D01*
X33714285Y-88452380D01*
X33714285Y-87452380D01*
X32666666Y-88357142D02*
X32714285Y-88404761D01*
X32857142Y-88452380D01*
X32952380Y-88452380D01*
X33095238Y-88404761D01*
X33190476Y-88309523D01*
X33238095Y-88214285D01*
X33285714Y-88023809D01*
X33285714Y-87880952D01*
X33238095Y-87690476D01*
X33190476Y-87595238D01*
X33095238Y-87500000D01*
X32952380Y-87452380D01*
X32857142Y-87452380D01*
X32714285Y-87500000D01*
X32666666Y-87547619D01*
X32333333Y-87452380D02*
X31714285Y-87452380D01*
X32047619Y-87833333D01*
X31904761Y-87833333D01*
X31809523Y-87880952D01*
X31761904Y-87928571D01*
X31714285Y-88023809D01*
X31714285Y-88261904D01*
X31761904Y-88357142D01*
X31809523Y-88404761D01*
X31904761Y-88452380D01*
X32190476Y-88452380D01*
X32285714Y-88404761D01*
X32333333Y-88357142D01*
X31380952Y-87452380D02*
X30714285Y-87452380D01*
X31142857Y-88452380D01*
%TO.C,D28*%
X96452380Y-67785714D02*
X95452380Y-67785714D01*
X95452380Y-68023809D01*
X95500000Y-68166666D01*
X95595238Y-68261904D01*
X95690476Y-68309523D01*
X95880952Y-68357142D01*
X96023809Y-68357142D01*
X96214285Y-68309523D01*
X96309523Y-68261904D01*
X96404761Y-68166666D01*
X96452380Y-68023809D01*
X96452380Y-67785714D01*
X95547619Y-68738095D02*
X95500000Y-68785714D01*
X95452380Y-68880952D01*
X95452380Y-69119047D01*
X95500000Y-69214285D01*
X95547619Y-69261904D01*
X95642857Y-69309523D01*
X95738095Y-69309523D01*
X95880952Y-69261904D01*
X96452380Y-68690476D01*
X96452380Y-69309523D01*
X95880952Y-69880952D02*
X95833333Y-69785714D01*
X95785714Y-69738095D01*
X95690476Y-69690476D01*
X95642857Y-69690476D01*
X95547619Y-69738095D01*
X95500000Y-69785714D01*
X95452380Y-69880952D01*
X95452380Y-70071428D01*
X95500000Y-70166666D01*
X95547619Y-70214285D01*
X95642857Y-70261904D01*
X95690476Y-70261904D01*
X95785714Y-70214285D01*
X95833333Y-70166666D01*
X95880952Y-70071428D01*
X95880952Y-69880952D01*
X95928571Y-69785714D01*
X95976190Y-69738095D01*
X96071428Y-69690476D01*
X96261904Y-69690476D01*
X96357142Y-69738095D01*
X96404761Y-69785714D01*
X96452380Y-69880952D01*
X96452380Y-70071428D01*
X96404761Y-70166666D01*
X96357142Y-70214285D01*
X96261904Y-70261904D01*
X96071428Y-70261904D01*
X95976190Y-70214285D01*
X95928571Y-70166666D01*
X95880952Y-70071428D01*
%TO.C,C10*%
X62257142Y-61440870D02*
X62304761Y-61393251D01*
X62352380Y-61250394D01*
X62352380Y-61155156D01*
X62304761Y-61012299D01*
X62209523Y-60917061D01*
X62114285Y-60869442D01*
X61923809Y-60821823D01*
X61780952Y-60821823D01*
X61590476Y-60869442D01*
X61495238Y-60917061D01*
X61400000Y-61012299D01*
X61352380Y-61155156D01*
X61352380Y-61250394D01*
X61400000Y-61393251D01*
X61447619Y-61440870D01*
X62352380Y-62393251D02*
X62352380Y-61821823D01*
X62352380Y-62107537D02*
X61352380Y-62107537D01*
X61495238Y-62012299D01*
X61590476Y-61917061D01*
X61638095Y-61821823D01*
X61352380Y-63012299D02*
X61352380Y-63107537D01*
X61400000Y-63202775D01*
X61447619Y-63250394D01*
X61542857Y-63298013D01*
X61733333Y-63345632D01*
X61971428Y-63345632D01*
X62161904Y-63298013D01*
X62257142Y-63250394D01*
X62304761Y-63202775D01*
X62352380Y-63107537D01*
X62352380Y-63012299D01*
X62304761Y-62917061D01*
X62257142Y-62869442D01*
X62161904Y-62821823D01*
X61971428Y-62774204D01*
X61733333Y-62774204D01*
X61542857Y-62821823D01*
X61447619Y-62869442D01*
X61400000Y-62917061D01*
X61352380Y-63012299D01*
%TO.C,ENC8*%
X168214285Y-30928571D02*
X167880952Y-30928571D01*
X167738095Y-31452380D02*
X168214285Y-31452380D01*
X168214285Y-30452380D01*
X167738095Y-30452380D01*
X167309523Y-31452380D02*
X167309523Y-30452380D01*
X166738095Y-31452380D01*
X166738095Y-30452380D01*
X165690476Y-31357142D02*
X165738095Y-31404761D01*
X165880952Y-31452380D01*
X165976190Y-31452380D01*
X166119047Y-31404761D01*
X166214285Y-31309523D01*
X166261904Y-31214285D01*
X166309523Y-31023809D01*
X166309523Y-30880952D01*
X166261904Y-30690476D01*
X166214285Y-30595238D01*
X166119047Y-30500000D01*
X165976190Y-30452380D01*
X165880952Y-30452380D01*
X165738095Y-30500000D01*
X165690476Y-30547619D01*
X165119047Y-30880952D02*
X165214285Y-30833333D01*
X165261904Y-30785714D01*
X165309523Y-30690476D01*
X165309523Y-30642857D01*
X165261904Y-30547619D01*
X165214285Y-30500000D01*
X165119047Y-30452380D01*
X164928571Y-30452380D01*
X164833333Y-30500000D01*
X164785714Y-30547619D01*
X164738095Y-30642857D01*
X164738095Y-30690476D01*
X164785714Y-30785714D01*
X164833333Y-30833333D01*
X164928571Y-30880952D01*
X165119047Y-30880952D01*
X165214285Y-30928571D01*
X165261904Y-30976190D01*
X165309523Y-31071428D01*
X165309523Y-31261904D01*
X165261904Y-31357142D01*
X165214285Y-31404761D01*
X165119047Y-31452380D01*
X164928571Y-31452380D01*
X164833333Y-31404761D01*
X164785714Y-31357142D01*
X164738095Y-31261904D01*
X164738095Y-31071428D01*
X164785714Y-30976190D01*
X164833333Y-30928571D01*
X164928571Y-30880952D01*
%TO.C,ENC41*%
X111190476Y-87928571D02*
X110857142Y-87928571D01*
X110714285Y-88452380D02*
X111190476Y-88452380D01*
X111190476Y-87452380D01*
X110714285Y-87452380D01*
X110285714Y-88452380D02*
X110285714Y-87452380D01*
X109714285Y-88452380D01*
X109714285Y-87452380D01*
X108666666Y-88357142D02*
X108714285Y-88404761D01*
X108857142Y-88452380D01*
X108952380Y-88452380D01*
X109095238Y-88404761D01*
X109190476Y-88309523D01*
X109238095Y-88214285D01*
X109285714Y-88023809D01*
X109285714Y-87880952D01*
X109238095Y-87690476D01*
X109190476Y-87595238D01*
X109095238Y-87500000D01*
X108952380Y-87452380D01*
X108857142Y-87452380D01*
X108714285Y-87500000D01*
X108666666Y-87547619D01*
X107809523Y-87785714D02*
X107809523Y-88452380D01*
X108047619Y-87404761D02*
X108285714Y-88119047D01*
X107666666Y-88119047D01*
X106761904Y-88452380D02*
X107333333Y-88452380D01*
X107047619Y-88452380D02*
X107047619Y-87452380D01*
X107142857Y-87595238D01*
X107238095Y-87690476D01*
X107333333Y-87738095D01*
%TO.C,ENC17*%
X111190476Y-49928571D02*
X110857142Y-49928571D01*
X110714285Y-50452380D02*
X111190476Y-50452380D01*
X111190476Y-49452380D01*
X110714285Y-49452380D01*
X110285714Y-50452380D02*
X110285714Y-49452380D01*
X109714285Y-50452380D01*
X109714285Y-49452380D01*
X108666666Y-50357142D02*
X108714285Y-50404761D01*
X108857142Y-50452380D01*
X108952380Y-50452380D01*
X109095238Y-50404761D01*
X109190476Y-50309523D01*
X109238095Y-50214285D01*
X109285714Y-50023809D01*
X109285714Y-49880952D01*
X109238095Y-49690476D01*
X109190476Y-49595238D01*
X109095238Y-49500000D01*
X108952380Y-49452380D01*
X108857142Y-49452380D01*
X108714285Y-49500000D01*
X108666666Y-49547619D01*
X107714285Y-50452380D02*
X108285714Y-50452380D01*
X108000000Y-50452380D02*
X108000000Y-49452380D01*
X108095238Y-49595238D01*
X108190476Y-49690476D01*
X108285714Y-49738095D01*
X107380952Y-49452380D02*
X106714285Y-49452380D01*
X107142857Y-50452380D01*
%TO.C,D4*%
X96452380Y-29761904D02*
X95452380Y-29761904D01*
X95452380Y-30000000D01*
X95500000Y-30142857D01*
X95595238Y-30238095D01*
X95690476Y-30285714D01*
X95880952Y-30333333D01*
X96023809Y-30333333D01*
X96214285Y-30285714D01*
X96309523Y-30238095D01*
X96404761Y-30142857D01*
X96452380Y-30000000D01*
X96452380Y-29761904D01*
X95785714Y-31190476D02*
X96452380Y-31190476D01*
X95404761Y-30952380D02*
X96119047Y-30714285D01*
X96119047Y-31333333D01*
%TO.C,D1*%
X39452380Y-29761904D02*
X38452380Y-29761904D01*
X38452380Y-30000000D01*
X38500000Y-30142857D01*
X38595238Y-30238095D01*
X38690476Y-30285714D01*
X38880952Y-30333333D01*
X39023809Y-30333333D01*
X39214285Y-30285714D01*
X39309523Y-30238095D01*
X39404761Y-30142857D01*
X39452380Y-30000000D01*
X39452380Y-29761904D01*
X39452380Y-31285714D02*
X39452380Y-30714285D01*
X39452380Y-31000000D02*
X38452380Y-31000000D01*
X38595238Y-30904761D01*
X38690476Y-30809523D01*
X38738095Y-30714285D01*
%TO.C,C14*%
X71457187Y-52619255D02*
X71504806Y-52666874D01*
X71647663Y-52714493D01*
X71742901Y-52714493D01*
X71885758Y-52666874D01*
X71980996Y-52571636D01*
X72028615Y-52476398D01*
X72076234Y-52285922D01*
X72076234Y-52143065D01*
X72028615Y-51952589D01*
X71980996Y-51857351D01*
X71885758Y-51762113D01*
X71742901Y-51714493D01*
X71647663Y-51714493D01*
X71504806Y-51762113D01*
X71457187Y-51809732D01*
X70504806Y-52714493D02*
X71076234Y-52714493D01*
X70790520Y-52714493D02*
X70790520Y-51714493D01*
X70885758Y-51857351D01*
X70980996Y-51952589D01*
X71076234Y-52000208D01*
X69647663Y-52047827D02*
X69647663Y-52714493D01*
X69885758Y-51666874D02*
X70123853Y-52381160D01*
X69504806Y-52381160D01*
%TO.C,ENC2*%
X54214285Y-30928571D02*
X53880952Y-30928571D01*
X53738095Y-31452380D02*
X54214285Y-31452380D01*
X54214285Y-30452380D01*
X53738095Y-30452380D01*
X53309523Y-31452380D02*
X53309523Y-30452380D01*
X52738095Y-31452380D01*
X52738095Y-30452380D01*
X51690476Y-31357142D02*
X51738095Y-31404761D01*
X51880952Y-31452380D01*
X51976190Y-31452380D01*
X52119047Y-31404761D01*
X52214285Y-31309523D01*
X52261904Y-31214285D01*
X52309523Y-31023809D01*
X52309523Y-30880952D01*
X52261904Y-30690476D01*
X52214285Y-30595238D01*
X52119047Y-30500000D01*
X51976190Y-30452380D01*
X51880952Y-30452380D01*
X51738095Y-30500000D01*
X51690476Y-30547619D01*
X51309523Y-30547619D02*
X51261904Y-30500000D01*
X51166666Y-30452380D01*
X50928571Y-30452380D01*
X50833333Y-30500000D01*
X50785714Y-30547619D01*
X50738095Y-30642857D01*
X50738095Y-30738095D01*
X50785714Y-30880952D01*
X51357142Y-31452380D01*
X50738095Y-31452380D01*
%TO.C,ENC47*%
X225190476Y-87928571D02*
X224857142Y-87928571D01*
X224714285Y-88452380D02*
X225190476Y-88452380D01*
X225190476Y-87452380D01*
X224714285Y-87452380D01*
X224285714Y-88452380D02*
X224285714Y-87452380D01*
X223714285Y-88452380D01*
X223714285Y-87452380D01*
X222666666Y-88357142D02*
X222714285Y-88404761D01*
X222857142Y-88452380D01*
X222952380Y-88452380D01*
X223095238Y-88404761D01*
X223190476Y-88309523D01*
X223238095Y-88214285D01*
X223285714Y-88023809D01*
X223285714Y-87880952D01*
X223238095Y-87690476D01*
X223190476Y-87595238D01*
X223095238Y-87500000D01*
X222952380Y-87452380D01*
X222857142Y-87452380D01*
X222714285Y-87500000D01*
X222666666Y-87547619D01*
X221809523Y-87785714D02*
X221809523Y-88452380D01*
X222047619Y-87404761D02*
X222285714Y-88119047D01*
X221666666Y-88119047D01*
X221380952Y-87452380D02*
X220714285Y-87452380D01*
X221142857Y-88452380D01*
%TO.C,D23*%
X229452380Y-48785714D02*
X228452380Y-48785714D01*
X228452380Y-49023809D01*
X228500000Y-49166666D01*
X228595238Y-49261904D01*
X228690476Y-49309523D01*
X228880952Y-49357142D01*
X229023809Y-49357142D01*
X229214285Y-49309523D01*
X229309523Y-49261904D01*
X229404761Y-49166666D01*
X229452380Y-49023809D01*
X229452380Y-48785714D01*
X228547619Y-49738095D02*
X228500000Y-49785714D01*
X228452380Y-49880952D01*
X228452380Y-50119047D01*
X228500000Y-50214285D01*
X228547619Y-50261904D01*
X228642857Y-50309523D01*
X228738095Y-50309523D01*
X228880952Y-50261904D01*
X229452380Y-49690476D01*
X229452380Y-50309523D01*
X228452380Y-50642857D02*
X228452380Y-51261904D01*
X228833333Y-50928571D01*
X228833333Y-51071428D01*
X228880952Y-51166666D01*
X228928571Y-51214285D01*
X229023809Y-51261904D01*
X229261904Y-51261904D01*
X229357142Y-51214285D01*
X229404761Y-51166666D01*
X229452380Y-51071428D01*
X229452380Y-50785714D01*
X229404761Y-50690476D01*
X229357142Y-50642857D01*
%TO.C,ENC42*%
X130190476Y-87928571D02*
X129857142Y-87928571D01*
X129714285Y-88452380D02*
X130190476Y-88452380D01*
X130190476Y-87452380D01*
X129714285Y-87452380D01*
X129285714Y-88452380D02*
X129285714Y-87452380D01*
X128714285Y-88452380D01*
X128714285Y-87452380D01*
X127666666Y-88357142D02*
X127714285Y-88404761D01*
X127857142Y-88452380D01*
X127952380Y-88452380D01*
X128095238Y-88404761D01*
X128190476Y-88309523D01*
X128238095Y-88214285D01*
X128285714Y-88023809D01*
X128285714Y-87880952D01*
X128238095Y-87690476D01*
X128190476Y-87595238D01*
X128095238Y-87500000D01*
X127952380Y-87452380D01*
X127857142Y-87452380D01*
X127714285Y-87500000D01*
X127666666Y-87547619D01*
X126809523Y-87785714D02*
X126809523Y-88452380D01*
X127047619Y-87404761D02*
X127285714Y-88119047D01*
X126666666Y-88119047D01*
X126333333Y-87547619D02*
X126285714Y-87500000D01*
X126190476Y-87452380D01*
X125952380Y-87452380D01*
X125857142Y-87500000D01*
X125809523Y-87547619D01*
X125761904Y-87642857D01*
X125761904Y-87738095D01*
X125809523Y-87880952D01*
X126380952Y-88452380D01*
X125761904Y-88452380D01*
%TO.C,D45*%
X191452380Y-86785714D02*
X190452380Y-86785714D01*
X190452380Y-87023809D01*
X190500000Y-87166666D01*
X190595238Y-87261904D01*
X190690476Y-87309523D01*
X190880952Y-87357142D01*
X191023809Y-87357142D01*
X191214285Y-87309523D01*
X191309523Y-87261904D01*
X191404761Y-87166666D01*
X191452380Y-87023809D01*
X191452380Y-86785714D01*
X190785714Y-88214285D02*
X191452380Y-88214285D01*
X190404761Y-87976190D02*
X191119047Y-87738095D01*
X191119047Y-88357142D01*
X190452380Y-89214285D02*
X190452380Y-88738095D01*
X190928571Y-88690476D01*
X190880952Y-88738095D01*
X190833333Y-88833333D01*
X190833333Y-89071428D01*
X190880952Y-89166666D01*
X190928571Y-89214285D01*
X191023809Y-89261904D01*
X191261904Y-89261904D01*
X191357142Y-89214285D01*
X191404761Y-89166666D01*
X191452380Y-89071428D01*
X191452380Y-88833333D01*
X191404761Y-88738095D01*
X191357142Y-88690476D01*
%TO.C,C4*%
X59466666Y-34897142D02*
X59514285Y-34944761D01*
X59657142Y-34992380D01*
X59752380Y-34992380D01*
X59895238Y-34944761D01*
X59990476Y-34849523D01*
X60038095Y-34754285D01*
X60085714Y-34563809D01*
X60085714Y-34420952D01*
X60038095Y-34230476D01*
X59990476Y-34135238D01*
X59895238Y-34040000D01*
X59752380Y-33992380D01*
X59657142Y-33992380D01*
X59514285Y-34040000D01*
X59466666Y-34087619D01*
X58609523Y-34325714D02*
X58609523Y-34992380D01*
X58847619Y-33944761D02*
X59085714Y-34659047D01*
X58466666Y-34659047D01*
%TO.C,D43*%
X153452380Y-86785714D02*
X152452380Y-86785714D01*
X152452380Y-87023809D01*
X152500000Y-87166666D01*
X152595238Y-87261904D01*
X152690476Y-87309523D01*
X152880952Y-87357142D01*
X153023809Y-87357142D01*
X153214285Y-87309523D01*
X153309523Y-87261904D01*
X153404761Y-87166666D01*
X153452380Y-87023809D01*
X153452380Y-86785714D01*
X152785714Y-88214285D02*
X153452380Y-88214285D01*
X152404761Y-87976190D02*
X153119047Y-87738095D01*
X153119047Y-88357142D01*
X152452380Y-88642857D02*
X152452380Y-89261904D01*
X152833333Y-88928571D01*
X152833333Y-89071428D01*
X152880952Y-89166666D01*
X152928571Y-89214285D01*
X153023809Y-89261904D01*
X153261904Y-89261904D01*
X153357142Y-89214285D01*
X153404761Y-89166666D01*
X153452380Y-89071428D01*
X153452380Y-88785714D01*
X153404761Y-88690476D01*
X153357142Y-88642857D01*
%TO.C,D38*%
X58452380Y-86785714D02*
X57452380Y-86785714D01*
X57452380Y-87023809D01*
X57500000Y-87166666D01*
X57595238Y-87261904D01*
X57690476Y-87309523D01*
X57880952Y-87357142D01*
X58023809Y-87357142D01*
X58214285Y-87309523D01*
X58309523Y-87261904D01*
X58404761Y-87166666D01*
X58452380Y-87023809D01*
X58452380Y-86785714D01*
X57452380Y-87690476D02*
X57452380Y-88309523D01*
X57833333Y-87976190D01*
X57833333Y-88119047D01*
X57880952Y-88214285D01*
X57928571Y-88261904D01*
X58023809Y-88309523D01*
X58261904Y-88309523D01*
X58357142Y-88261904D01*
X58404761Y-88214285D01*
X58452380Y-88119047D01*
X58452380Y-87833333D01*
X58404761Y-87738095D01*
X58357142Y-87690476D01*
X57880952Y-88880952D02*
X57833333Y-88785714D01*
X57785714Y-88738095D01*
X57690476Y-88690476D01*
X57642857Y-88690476D01*
X57547619Y-88738095D01*
X57500000Y-88785714D01*
X57452380Y-88880952D01*
X57452380Y-89071428D01*
X57500000Y-89166666D01*
X57547619Y-89214285D01*
X57642857Y-89261904D01*
X57690476Y-89261904D01*
X57785714Y-89214285D01*
X57833333Y-89166666D01*
X57880952Y-89071428D01*
X57880952Y-88880952D01*
X57928571Y-88785714D01*
X57976190Y-88738095D01*
X58071428Y-88690476D01*
X58261904Y-88690476D01*
X58357142Y-88738095D01*
X58404761Y-88785714D01*
X58452380Y-88880952D01*
X58452380Y-89071428D01*
X58404761Y-89166666D01*
X58357142Y-89214285D01*
X58261904Y-89261904D01*
X58071428Y-89261904D01*
X57976190Y-89214285D01*
X57928571Y-89166666D01*
X57880952Y-89071428D01*
%TO.C,ENC25*%
X35190476Y-68928571D02*
X34857142Y-68928571D01*
X34714285Y-69452380D02*
X35190476Y-69452380D01*
X35190476Y-68452380D01*
X34714285Y-68452380D01*
X34285714Y-69452380D02*
X34285714Y-68452380D01*
X33714285Y-69452380D01*
X33714285Y-68452380D01*
X32666666Y-69357142D02*
X32714285Y-69404761D01*
X32857142Y-69452380D01*
X32952380Y-69452380D01*
X33095238Y-69404761D01*
X33190476Y-69309523D01*
X33238095Y-69214285D01*
X33285714Y-69023809D01*
X33285714Y-68880952D01*
X33238095Y-68690476D01*
X33190476Y-68595238D01*
X33095238Y-68500000D01*
X32952380Y-68452380D01*
X32857142Y-68452380D01*
X32714285Y-68500000D01*
X32666666Y-68547619D01*
X32285714Y-68547619D02*
X32238095Y-68500000D01*
X32142857Y-68452380D01*
X31904761Y-68452380D01*
X31809523Y-68500000D01*
X31761904Y-68547619D01*
X31714285Y-68642857D01*
X31714285Y-68738095D01*
X31761904Y-68880952D01*
X32333333Y-69452380D01*
X31714285Y-69452380D01*
X30809523Y-68452380D02*
X31285714Y-68452380D01*
X31333333Y-68928571D01*
X31285714Y-68880952D01*
X31190476Y-68833333D01*
X30952380Y-68833333D01*
X30857142Y-68880952D01*
X30809523Y-68928571D01*
X30761904Y-69023809D01*
X30761904Y-69261904D01*
X30809523Y-69357142D01*
X30857142Y-69404761D01*
X30952380Y-69452380D01*
X31190476Y-69452380D01*
X31285714Y-69404761D01*
X31333333Y-69357142D01*
%TO.C,R3*%
X51829336Y-24680379D02*
X51353146Y-24347046D01*
X51829336Y-24108950D02*
X50829336Y-24108950D01*
X50829336Y-24489903D01*
X50876956Y-24585141D01*
X50924575Y-24632760D01*
X51019813Y-24680379D01*
X51162670Y-24680379D01*
X51257908Y-24632760D01*
X51305527Y-24585141D01*
X51353146Y-24489903D01*
X51353146Y-24108950D01*
X50829336Y-25013712D02*
X50829336Y-25632760D01*
X51210289Y-25299426D01*
X51210289Y-25442284D01*
X51257908Y-25537522D01*
X51305527Y-25585141D01*
X51400765Y-25632760D01*
X51638860Y-25632760D01*
X51734098Y-25585141D01*
X51781717Y-25537522D01*
X51829336Y-25442284D01*
X51829336Y-25156569D01*
X51781717Y-25061331D01*
X51734098Y-25013712D01*
%TO.C,ENC45*%
X187190476Y-87928571D02*
X186857142Y-87928571D01*
X186714285Y-88452380D02*
X187190476Y-88452380D01*
X187190476Y-87452380D01*
X186714285Y-87452380D01*
X186285714Y-88452380D02*
X186285714Y-87452380D01*
X185714285Y-88452380D01*
X185714285Y-87452380D01*
X184666666Y-88357142D02*
X184714285Y-88404761D01*
X184857142Y-88452380D01*
X184952380Y-88452380D01*
X185095238Y-88404761D01*
X185190476Y-88309523D01*
X185238095Y-88214285D01*
X185285714Y-88023809D01*
X185285714Y-87880952D01*
X185238095Y-87690476D01*
X185190476Y-87595238D01*
X185095238Y-87500000D01*
X184952380Y-87452380D01*
X184857142Y-87452380D01*
X184714285Y-87500000D01*
X184666666Y-87547619D01*
X183809523Y-87785714D02*
X183809523Y-88452380D01*
X184047619Y-87404761D02*
X184285714Y-88119047D01*
X183666666Y-88119047D01*
X182809523Y-87452380D02*
X183285714Y-87452380D01*
X183333333Y-87928571D01*
X183285714Y-87880952D01*
X183190476Y-87833333D01*
X182952380Y-87833333D01*
X182857142Y-87880952D01*
X182809523Y-87928571D01*
X182761904Y-88023809D01*
X182761904Y-88261904D01*
X182809523Y-88357142D01*
X182857142Y-88404761D01*
X182952380Y-88452380D01*
X183190476Y-88452380D01*
X183285714Y-88404761D01*
X183333333Y-88357142D01*
%TO.C,R8*%
X63852380Y-61933333D02*
X63376190Y-61600000D01*
X63852380Y-61361904D02*
X62852380Y-61361904D01*
X62852380Y-61742857D01*
X62900000Y-61838095D01*
X62947619Y-61885714D01*
X63042857Y-61933333D01*
X63185714Y-61933333D01*
X63280952Y-61885714D01*
X63328571Y-61838095D01*
X63376190Y-61742857D01*
X63376190Y-61361904D01*
X63280952Y-62504761D02*
X63233333Y-62409523D01*
X63185714Y-62361904D01*
X63090476Y-62314285D01*
X63042857Y-62314285D01*
X62947619Y-62361904D01*
X62900000Y-62409523D01*
X62852380Y-62504761D01*
X62852380Y-62695238D01*
X62900000Y-62790476D01*
X62947619Y-62838095D01*
X63042857Y-62885714D01*
X63090476Y-62885714D01*
X63185714Y-62838095D01*
X63233333Y-62790476D01*
X63280952Y-62695238D01*
X63280952Y-62504761D01*
X63328571Y-62409523D01*
X63376190Y-62361904D01*
X63471428Y-62314285D01*
X63661904Y-62314285D01*
X63757142Y-62361904D01*
X63804761Y-62409523D01*
X63852380Y-62504761D01*
X63852380Y-62695238D01*
X63804761Y-62790476D01*
X63757142Y-62838095D01*
X63661904Y-62885714D01*
X63471428Y-62885714D01*
X63376190Y-62838095D01*
X63328571Y-62790476D01*
X63280952Y-62695238D01*
%TO.C,D16*%
X96452380Y-48785714D02*
X95452380Y-48785714D01*
X95452380Y-49023809D01*
X95500000Y-49166666D01*
X95595238Y-49261904D01*
X95690476Y-49309523D01*
X95880952Y-49357142D01*
X96023809Y-49357142D01*
X96214285Y-49309523D01*
X96309523Y-49261904D01*
X96404761Y-49166666D01*
X96452380Y-49023809D01*
X96452380Y-48785714D01*
X96452380Y-50309523D02*
X96452380Y-49738095D01*
X96452380Y-50023809D02*
X95452380Y-50023809D01*
X95595238Y-49928571D01*
X95690476Y-49833333D01*
X95738095Y-49738095D01*
X95452380Y-51166666D02*
X95452380Y-50976190D01*
X95500000Y-50880952D01*
X95547619Y-50833333D01*
X95690476Y-50738095D01*
X95880952Y-50690476D01*
X96261904Y-50690476D01*
X96357142Y-50738095D01*
X96404761Y-50785714D01*
X96452380Y-50880952D01*
X96452380Y-51071428D01*
X96404761Y-51166666D01*
X96357142Y-51214285D01*
X96261904Y-51261904D01*
X96023809Y-51261904D01*
X95928571Y-51214285D01*
X95880952Y-51166666D01*
X95833333Y-51071428D01*
X95833333Y-50880952D01*
X95880952Y-50785714D01*
X95928571Y-50738095D01*
X96023809Y-50690476D01*
%TO.C,C6*%
X63666666Y-71657142D02*
X63714285Y-71704761D01*
X63857142Y-71752380D01*
X63952380Y-71752380D01*
X64095238Y-71704761D01*
X64190476Y-71609523D01*
X64238095Y-71514285D01*
X64285714Y-71323809D01*
X64285714Y-71180952D01*
X64238095Y-70990476D01*
X64190476Y-70895238D01*
X64095238Y-70800000D01*
X63952380Y-70752380D01*
X63857142Y-70752380D01*
X63714285Y-70800000D01*
X63666666Y-70847619D01*
X62809523Y-70752380D02*
X63000000Y-70752380D01*
X63095238Y-70800000D01*
X63142857Y-70847619D01*
X63238095Y-70990476D01*
X63285714Y-71180952D01*
X63285714Y-71561904D01*
X63238095Y-71657142D01*
X63190476Y-71704761D01*
X63095238Y-71752380D01*
X62904761Y-71752380D01*
X62809523Y-71704761D01*
X62761904Y-71657142D01*
X62714285Y-71561904D01*
X62714285Y-71323809D01*
X62761904Y-71228571D01*
X62809523Y-71180952D01*
X62904761Y-71133333D01*
X63095238Y-71133333D01*
X63190476Y-71180952D01*
X63238095Y-71228571D01*
X63285714Y-71323809D01*
%TO.C,D11*%
X229452380Y-29785714D02*
X228452380Y-29785714D01*
X228452380Y-30023809D01*
X228500000Y-30166666D01*
X228595238Y-30261904D01*
X228690476Y-30309523D01*
X228880952Y-30357142D01*
X229023809Y-30357142D01*
X229214285Y-30309523D01*
X229309523Y-30261904D01*
X229404761Y-30166666D01*
X229452380Y-30023809D01*
X229452380Y-29785714D01*
X229452380Y-31309523D02*
X229452380Y-30738095D01*
X229452380Y-31023809D02*
X228452380Y-31023809D01*
X228595238Y-30928571D01*
X228690476Y-30833333D01*
X228738095Y-30738095D01*
X229452380Y-32261904D02*
X229452380Y-31690476D01*
X229452380Y-31976190D02*
X228452380Y-31976190D01*
X228595238Y-31880952D01*
X228690476Y-31785714D01*
X228738095Y-31690476D01*
%TO.C,U1*%
X59052380Y-33238095D02*
X59861904Y-33238095D01*
X59957142Y-33285714D01*
X60004761Y-33333333D01*
X60052380Y-33428571D01*
X60052380Y-33619047D01*
X60004761Y-33714285D01*
X59957142Y-33761904D01*
X59861904Y-33809523D01*
X59052380Y-33809523D01*
X60052380Y-34809523D02*
X60052380Y-34238095D01*
X60052380Y-34523809D02*
X59052380Y-34523809D01*
X59195238Y-34428571D01*
X59290476Y-34333333D01*
X59338095Y-34238095D01*
%TO.C,D26*%
X58452380Y-67785714D02*
X57452380Y-67785714D01*
X57452380Y-68023809D01*
X57500000Y-68166666D01*
X57595238Y-68261904D01*
X57690476Y-68309523D01*
X57880952Y-68357142D01*
X58023809Y-68357142D01*
X58214285Y-68309523D01*
X58309523Y-68261904D01*
X58404761Y-68166666D01*
X58452380Y-68023809D01*
X58452380Y-67785714D01*
X57547619Y-68738095D02*
X57500000Y-68785714D01*
X57452380Y-68880952D01*
X57452380Y-69119047D01*
X57500000Y-69214285D01*
X57547619Y-69261904D01*
X57642857Y-69309523D01*
X57738095Y-69309523D01*
X57880952Y-69261904D01*
X58452380Y-68690476D01*
X58452380Y-69309523D01*
X57452380Y-70166666D02*
X57452380Y-69976190D01*
X57500000Y-69880952D01*
X57547619Y-69833333D01*
X57690476Y-69738095D01*
X57880952Y-69690476D01*
X58261904Y-69690476D01*
X58357142Y-69738095D01*
X58404761Y-69785714D01*
X58452380Y-69880952D01*
X58452380Y-70071428D01*
X58404761Y-70166666D01*
X58357142Y-70214285D01*
X58261904Y-70261904D01*
X58023809Y-70261904D01*
X57928571Y-70214285D01*
X57880952Y-70166666D01*
X57833333Y-70071428D01*
X57833333Y-69880952D01*
X57880952Y-69785714D01*
X57928571Y-69738095D01*
X58023809Y-69690476D01*
%TO.C,ENC3*%
X73768108Y-30736700D02*
X73434775Y-30736700D01*
X73291918Y-31260509D02*
X73768108Y-31260509D01*
X73768108Y-30260509D01*
X73291918Y-30260509D01*
X72863346Y-31260509D02*
X72863346Y-30260509D01*
X72291918Y-31260509D01*
X72291918Y-30260509D01*
X71244299Y-31165271D02*
X71291918Y-31212890D01*
X71434775Y-31260509D01*
X71530013Y-31260509D01*
X71672870Y-31212890D01*
X71768108Y-31117652D01*
X71815727Y-31022414D01*
X71863346Y-30831938D01*
X71863346Y-30689081D01*
X71815727Y-30498605D01*
X71768108Y-30403367D01*
X71672870Y-30308129D01*
X71530013Y-30260509D01*
X71434775Y-30260509D01*
X71291918Y-30308129D01*
X71244299Y-30355748D01*
X70910965Y-30260509D02*
X70291918Y-30260509D01*
X70625251Y-30641462D01*
X70482394Y-30641462D01*
X70387156Y-30689081D01*
X70339537Y-30736700D01*
X70291918Y-30831938D01*
X70291918Y-31070033D01*
X70339537Y-31165271D01*
X70387156Y-31212890D01*
X70482394Y-31260509D01*
X70768108Y-31260509D01*
X70863346Y-31212890D01*
X70910965Y-31165271D01*
%TO.C,C8*%
X72357142Y-49833333D02*
X72404761Y-49785714D01*
X72452380Y-49642857D01*
X72452380Y-49547619D01*
X72404761Y-49404761D01*
X72309523Y-49309523D01*
X72214285Y-49261904D01*
X72023809Y-49214285D01*
X71880952Y-49214285D01*
X71690476Y-49261904D01*
X71595238Y-49309523D01*
X71500000Y-49404761D01*
X71452380Y-49547619D01*
X71452380Y-49642857D01*
X71500000Y-49785714D01*
X71547619Y-49833333D01*
X71880952Y-50404761D02*
X71833333Y-50309523D01*
X71785714Y-50261904D01*
X71690476Y-50214285D01*
X71642857Y-50214285D01*
X71547619Y-50261904D01*
X71500000Y-50309523D01*
X71452380Y-50404761D01*
X71452380Y-50595238D01*
X71500000Y-50690476D01*
X71547619Y-50738095D01*
X71642857Y-50785714D01*
X71690476Y-50785714D01*
X71785714Y-50738095D01*
X71833333Y-50690476D01*
X71880952Y-50595238D01*
X71880952Y-50404761D01*
X71928571Y-50309523D01*
X71976190Y-50261904D01*
X72071428Y-50214285D01*
X72261904Y-50214285D01*
X72357142Y-50261904D01*
X72404761Y-50309523D01*
X72452380Y-50404761D01*
X72452380Y-50595238D01*
X72404761Y-50690476D01*
X72357142Y-50738095D01*
X72261904Y-50785714D01*
X72071428Y-50785714D01*
X71976190Y-50738095D01*
X71928571Y-50690476D01*
X71880952Y-50595238D01*
%TO.C,D13*%
X39452380Y-48785714D02*
X38452380Y-48785714D01*
X38452380Y-49023809D01*
X38500000Y-49166666D01*
X38595238Y-49261904D01*
X38690476Y-49309523D01*
X38880952Y-49357142D01*
X39023809Y-49357142D01*
X39214285Y-49309523D01*
X39309523Y-49261904D01*
X39404761Y-49166666D01*
X39452380Y-49023809D01*
X39452380Y-48785714D01*
X39452380Y-50309523D02*
X39452380Y-49738095D01*
X39452380Y-50023809D02*
X38452380Y-50023809D01*
X38595238Y-49928571D01*
X38690476Y-49833333D01*
X38738095Y-49738095D01*
X38452380Y-50642857D02*
X38452380Y-51261904D01*
X38833333Y-50928571D01*
X38833333Y-51071428D01*
X38880952Y-51166666D01*
X38928571Y-51214285D01*
X39023809Y-51261904D01*
X39261904Y-51261904D01*
X39357142Y-51214285D01*
X39404761Y-51166666D01*
X39452380Y-51071428D01*
X39452380Y-50785714D01*
X39404761Y-50690476D01*
X39357142Y-50642857D01*
%TO.C,D39*%
X77452380Y-86785714D02*
X76452380Y-86785714D01*
X76452380Y-87023809D01*
X76500000Y-87166666D01*
X76595238Y-87261904D01*
X76690476Y-87309523D01*
X76880952Y-87357142D01*
X77023809Y-87357142D01*
X77214285Y-87309523D01*
X77309523Y-87261904D01*
X77404761Y-87166666D01*
X77452380Y-87023809D01*
X77452380Y-86785714D01*
X76452380Y-87690476D02*
X76452380Y-88309523D01*
X76833333Y-87976190D01*
X76833333Y-88119047D01*
X76880952Y-88214285D01*
X76928571Y-88261904D01*
X77023809Y-88309523D01*
X77261904Y-88309523D01*
X77357142Y-88261904D01*
X77404761Y-88214285D01*
X77452380Y-88119047D01*
X77452380Y-87833333D01*
X77404761Y-87738095D01*
X77357142Y-87690476D01*
X77452380Y-88785714D02*
X77452380Y-88976190D01*
X77404761Y-89071428D01*
X77357142Y-89119047D01*
X77214285Y-89214285D01*
X77023809Y-89261904D01*
X76642857Y-89261904D01*
X76547619Y-89214285D01*
X76500000Y-89166666D01*
X76452380Y-89071428D01*
X76452380Y-88880952D01*
X76500000Y-88785714D01*
X76547619Y-88738095D01*
X76642857Y-88690476D01*
X76880952Y-88690476D01*
X76976190Y-88738095D01*
X77023809Y-88785714D01*
X77071428Y-88880952D01*
X77071428Y-89071428D01*
X77023809Y-89166666D01*
X76976190Y-89214285D01*
X76880952Y-89261904D01*
%TO.C,D5*%
X115452380Y-29761904D02*
X114452380Y-29761904D01*
X114452380Y-30000000D01*
X114500000Y-30142857D01*
X114595238Y-30238095D01*
X114690476Y-30285714D01*
X114880952Y-30333333D01*
X115023809Y-30333333D01*
X115214285Y-30285714D01*
X115309523Y-30238095D01*
X115404761Y-30142857D01*
X115452380Y-30000000D01*
X115452380Y-29761904D01*
X114452380Y-31238095D02*
X114452380Y-30761904D01*
X114928571Y-30714285D01*
X114880952Y-30761904D01*
X114833333Y-30857142D01*
X114833333Y-31095238D01*
X114880952Y-31190476D01*
X114928571Y-31238095D01*
X115023809Y-31285714D01*
X115261904Y-31285714D01*
X115357142Y-31238095D01*
X115404761Y-31190476D01*
X115452380Y-31095238D01*
X115452380Y-30857142D01*
X115404761Y-30761904D01*
X115357142Y-30714285D01*
%TO.C,ENC19*%
X149190476Y-49928571D02*
X148857142Y-49928571D01*
X148714285Y-50452380D02*
X149190476Y-50452380D01*
X149190476Y-49452380D01*
X148714285Y-49452380D01*
X148285714Y-50452380D02*
X148285714Y-49452380D01*
X147714285Y-50452380D01*
X147714285Y-49452380D01*
X146666666Y-50357142D02*
X146714285Y-50404761D01*
X146857142Y-50452380D01*
X146952380Y-50452380D01*
X147095238Y-50404761D01*
X147190476Y-50309523D01*
X147238095Y-50214285D01*
X147285714Y-50023809D01*
X147285714Y-49880952D01*
X147238095Y-49690476D01*
X147190476Y-49595238D01*
X147095238Y-49500000D01*
X146952380Y-49452380D01*
X146857142Y-49452380D01*
X146714285Y-49500000D01*
X146666666Y-49547619D01*
X145714285Y-50452380D02*
X146285714Y-50452380D01*
X146000000Y-50452380D02*
X146000000Y-49452380D01*
X146095238Y-49595238D01*
X146190476Y-49690476D01*
X146285714Y-49738095D01*
X145238095Y-50452380D02*
X145047619Y-50452380D01*
X144952380Y-50404761D01*
X144904761Y-50357142D01*
X144809523Y-50214285D01*
X144761904Y-50023809D01*
X144761904Y-49642857D01*
X144809523Y-49547619D01*
X144857142Y-49500000D01*
X144952380Y-49452380D01*
X145142857Y-49452380D01*
X145238095Y-49500000D01*
X145285714Y-49547619D01*
X145333333Y-49642857D01*
X145333333Y-49880952D01*
X145285714Y-49976190D01*
X145238095Y-50023809D01*
X145142857Y-50071428D01*
X144952380Y-50071428D01*
X144857142Y-50023809D01*
X144809523Y-49976190D01*
X144761904Y-49880952D01*
%TO.C,SW1*%
X81783333Y-28566666D02*
X81816666Y-28666666D01*
X81816666Y-28833333D01*
X81783333Y-28900000D01*
X81750000Y-28933333D01*
X81683333Y-28966666D01*
X81616666Y-28966666D01*
X81550000Y-28933333D01*
X81516666Y-28900000D01*
X81483333Y-28833333D01*
X81450000Y-28700000D01*
X81416666Y-28633333D01*
X81383333Y-28600000D01*
X81316666Y-28566666D01*
X81250000Y-28566666D01*
X81183333Y-28600000D01*
X81150000Y-28633333D01*
X81116666Y-28700000D01*
X81116666Y-28866666D01*
X81150000Y-28966666D01*
X81116666Y-29200000D02*
X81816666Y-29366666D01*
X81316666Y-29500000D01*
X81816666Y-29633333D01*
X81116666Y-29800000D01*
X81816666Y-30433333D02*
X81816666Y-30033333D01*
X81816666Y-30233333D02*
X81116666Y-30233333D01*
X81216666Y-30166666D01*
X81283333Y-30100000D01*
X81316666Y-30033333D01*
%TO.C,D19*%
X153452380Y-48785714D02*
X152452380Y-48785714D01*
X152452380Y-49023809D01*
X152500000Y-49166666D01*
X152595238Y-49261904D01*
X152690476Y-49309523D01*
X152880952Y-49357142D01*
X153023809Y-49357142D01*
X153214285Y-49309523D01*
X153309523Y-49261904D01*
X153404761Y-49166666D01*
X153452380Y-49023809D01*
X153452380Y-48785714D01*
X153452380Y-50309523D02*
X153452380Y-49738095D01*
X153452380Y-50023809D02*
X152452380Y-50023809D01*
X152595238Y-49928571D01*
X152690476Y-49833333D01*
X152738095Y-49738095D01*
X153452380Y-50785714D02*
X153452380Y-50976190D01*
X153404761Y-51071428D01*
X153357142Y-51119047D01*
X153214285Y-51214285D01*
X153023809Y-51261904D01*
X152642857Y-51261904D01*
X152547619Y-51214285D01*
X152500000Y-51166666D01*
X152452380Y-51071428D01*
X152452380Y-50880952D01*
X152500000Y-50785714D01*
X152547619Y-50738095D01*
X152642857Y-50690476D01*
X152880952Y-50690476D01*
X152976190Y-50738095D01*
X153023809Y-50785714D01*
X153071428Y-50880952D01*
X153071428Y-51071428D01*
X153023809Y-51166666D01*
X152976190Y-51214285D01*
X152880952Y-51261904D01*
%TO.C,D22*%
X210452380Y-48785714D02*
X209452380Y-48785714D01*
X209452380Y-49023809D01*
X209500000Y-49166666D01*
X209595238Y-49261904D01*
X209690476Y-49309523D01*
X209880952Y-49357142D01*
X210023809Y-49357142D01*
X210214285Y-49309523D01*
X210309523Y-49261904D01*
X210404761Y-49166666D01*
X210452380Y-49023809D01*
X210452380Y-48785714D01*
X209547619Y-49738095D02*
X209500000Y-49785714D01*
X209452380Y-49880952D01*
X209452380Y-50119047D01*
X209500000Y-50214285D01*
X209547619Y-50261904D01*
X209642857Y-50309523D01*
X209738095Y-50309523D01*
X209880952Y-50261904D01*
X210452380Y-49690476D01*
X210452380Y-50309523D01*
X209547619Y-50690476D02*
X209500000Y-50738095D01*
X209452380Y-50833333D01*
X209452380Y-51071428D01*
X209500000Y-51166666D01*
X209547619Y-51214285D01*
X209642857Y-51261904D01*
X209738095Y-51261904D01*
X209880952Y-51214285D01*
X210452380Y-50642857D01*
X210452380Y-51261904D01*
%TO.C,D36*%
X248452380Y-67785714D02*
X247452380Y-67785714D01*
X247452380Y-68023809D01*
X247500000Y-68166666D01*
X247595238Y-68261904D01*
X247690476Y-68309523D01*
X247880952Y-68357142D01*
X248023809Y-68357142D01*
X248214285Y-68309523D01*
X248309523Y-68261904D01*
X248404761Y-68166666D01*
X248452380Y-68023809D01*
X248452380Y-67785714D01*
X247452380Y-68690476D02*
X247452380Y-69309523D01*
X247833333Y-68976190D01*
X247833333Y-69119047D01*
X247880952Y-69214285D01*
X247928571Y-69261904D01*
X248023809Y-69309523D01*
X248261904Y-69309523D01*
X248357142Y-69261904D01*
X248404761Y-69214285D01*
X248452380Y-69119047D01*
X248452380Y-68833333D01*
X248404761Y-68738095D01*
X248357142Y-68690476D01*
X247452380Y-70166666D02*
X247452380Y-69976190D01*
X247500000Y-69880952D01*
X247547619Y-69833333D01*
X247690476Y-69738095D01*
X247880952Y-69690476D01*
X248261904Y-69690476D01*
X248357142Y-69738095D01*
X248404761Y-69785714D01*
X248452380Y-69880952D01*
X248452380Y-70071428D01*
X248404761Y-70166666D01*
X248357142Y-70214285D01*
X248261904Y-70261904D01*
X248023809Y-70261904D01*
X247928571Y-70214285D01*
X247880952Y-70166666D01*
X247833333Y-70071428D01*
X247833333Y-69880952D01*
X247880952Y-69785714D01*
X247928571Y-69738095D01*
X248023809Y-69690476D01*
%TO.C,F1*%
X68433333Y-29708571D02*
X68766666Y-29708571D01*
X68766666Y-30232380D02*
X68766666Y-29232380D01*
X68290476Y-29232380D01*
X67385714Y-30232380D02*
X67957142Y-30232380D01*
X67671428Y-30232380D02*
X67671428Y-29232380D01*
X67766666Y-29375238D01*
X67861904Y-29470476D01*
X67957142Y-29518095D01*
%TO.C,C12*%
X54683409Y-52946642D02*
X54731028Y-52994261D01*
X54873885Y-53041880D01*
X54969123Y-53041880D01*
X55111980Y-52994261D01*
X55207218Y-52899023D01*
X55254837Y-52803785D01*
X55302456Y-52613309D01*
X55302456Y-52470452D01*
X55254837Y-52279976D01*
X55207218Y-52184738D01*
X55111980Y-52089500D01*
X54969123Y-52041880D01*
X54873885Y-52041880D01*
X54731028Y-52089500D01*
X54683409Y-52137119D01*
X53731028Y-53041880D02*
X54302456Y-53041880D01*
X54016742Y-53041880D02*
X54016742Y-52041880D01*
X54111980Y-52184738D01*
X54207218Y-52279976D01*
X54302456Y-52327595D01*
X53350075Y-52137119D02*
X53302456Y-52089500D01*
X53207218Y-52041880D01*
X52969123Y-52041880D01*
X52873885Y-52089500D01*
X52826266Y-52137119D01*
X52778647Y-52232357D01*
X52778647Y-52327595D01*
X52826266Y-52470452D01*
X53397694Y-53041880D01*
X52778647Y-53041880D01*
%TO.C,D27*%
X77452380Y-67785714D02*
X76452380Y-67785714D01*
X76452380Y-68023809D01*
X76500000Y-68166666D01*
X76595238Y-68261904D01*
X76690476Y-68309523D01*
X76880952Y-68357142D01*
X77023809Y-68357142D01*
X77214285Y-68309523D01*
X77309523Y-68261904D01*
X77404761Y-68166666D01*
X77452380Y-68023809D01*
X77452380Y-67785714D01*
X76547619Y-68738095D02*
X76500000Y-68785714D01*
X76452380Y-68880952D01*
X76452380Y-69119047D01*
X76500000Y-69214285D01*
X76547619Y-69261904D01*
X76642857Y-69309523D01*
X76738095Y-69309523D01*
X76880952Y-69261904D01*
X77452380Y-68690476D01*
X77452380Y-69309523D01*
X76452380Y-69642857D02*
X76452380Y-70309523D01*
X77452380Y-69880952D01*
%TO.C,Y1*%
X62969640Y-72876190D02*
X62969640Y-73352380D01*
X63302973Y-72352380D02*
X62969640Y-72876190D01*
X62636307Y-72352380D01*
X61779164Y-73352380D02*
X62350592Y-73352380D01*
X62064878Y-73352380D02*
X62064878Y-72352380D01*
X62160116Y-72495238D01*
X62255354Y-72590476D01*
X62350592Y-72638095D01*
%TO.C,C5*%
X61666666Y-71657142D02*
X61714285Y-71704761D01*
X61857142Y-71752380D01*
X61952380Y-71752380D01*
X62095238Y-71704761D01*
X62190476Y-71609523D01*
X62238095Y-71514285D01*
X62285714Y-71323809D01*
X62285714Y-71180952D01*
X62238095Y-70990476D01*
X62190476Y-70895238D01*
X62095238Y-70800000D01*
X61952380Y-70752380D01*
X61857142Y-70752380D01*
X61714285Y-70800000D01*
X61666666Y-70847619D01*
X60761904Y-70752380D02*
X61238095Y-70752380D01*
X61285714Y-71228571D01*
X61238095Y-71180952D01*
X61142857Y-71133333D01*
X60904761Y-71133333D01*
X60809523Y-71180952D01*
X60761904Y-71228571D01*
X60714285Y-71323809D01*
X60714285Y-71561904D01*
X60761904Y-71657142D01*
X60809523Y-71704761D01*
X60904761Y-71752380D01*
X61142857Y-71752380D01*
X61238095Y-71704761D01*
X61285714Y-71657142D01*
%TO.C,R6*%
X67952380Y-49833333D02*
X67476190Y-49500000D01*
X67952380Y-49261904D02*
X66952380Y-49261904D01*
X66952380Y-49642857D01*
X67000000Y-49738095D01*
X67047619Y-49785714D01*
X67142857Y-49833333D01*
X67285714Y-49833333D01*
X67380952Y-49785714D01*
X67428571Y-49738095D01*
X67476190Y-49642857D01*
X67476190Y-49261904D01*
X66952380Y-50690476D02*
X66952380Y-50500000D01*
X67000000Y-50404761D01*
X67047619Y-50357142D01*
X67190476Y-50261904D01*
X67380952Y-50214285D01*
X67761904Y-50214285D01*
X67857142Y-50261904D01*
X67904761Y-50309523D01*
X67952380Y-50404761D01*
X67952380Y-50595238D01*
X67904761Y-50690476D01*
X67857142Y-50738095D01*
X67761904Y-50785714D01*
X67523809Y-50785714D01*
X67428571Y-50738095D01*
X67380952Y-50690476D01*
X67333333Y-50595238D01*
X67333333Y-50404761D01*
X67380952Y-50309523D01*
X67428571Y-50261904D01*
X67523809Y-50214285D01*
%TO.C,ENC32*%
X168190476Y-68928571D02*
X167857142Y-68928571D01*
X167714285Y-69452380D02*
X168190476Y-69452380D01*
X168190476Y-68452380D01*
X167714285Y-68452380D01*
X167285714Y-69452380D02*
X167285714Y-68452380D01*
X166714285Y-69452380D01*
X166714285Y-68452380D01*
X165666666Y-69357142D02*
X165714285Y-69404761D01*
X165857142Y-69452380D01*
X165952380Y-69452380D01*
X166095238Y-69404761D01*
X166190476Y-69309523D01*
X166238095Y-69214285D01*
X166285714Y-69023809D01*
X166285714Y-68880952D01*
X166238095Y-68690476D01*
X166190476Y-68595238D01*
X166095238Y-68500000D01*
X165952380Y-68452380D01*
X165857142Y-68452380D01*
X165714285Y-68500000D01*
X165666666Y-68547619D01*
X165333333Y-68452380D02*
X164714285Y-68452380D01*
X165047619Y-68833333D01*
X164904761Y-68833333D01*
X164809523Y-68880952D01*
X164761904Y-68928571D01*
X164714285Y-69023809D01*
X164714285Y-69261904D01*
X164761904Y-69357142D01*
X164809523Y-69404761D01*
X164904761Y-69452380D01*
X165190476Y-69452380D01*
X165285714Y-69404761D01*
X165333333Y-69357142D01*
X164333333Y-68547619D02*
X164285714Y-68500000D01*
X164190476Y-68452380D01*
X163952380Y-68452380D01*
X163857142Y-68500000D01*
X163809523Y-68547619D01*
X163761904Y-68642857D01*
X163761904Y-68738095D01*
X163809523Y-68880952D01*
X164380952Y-69452380D01*
X163761904Y-69452380D01*
%TO.C,D21*%
X191452380Y-48785714D02*
X190452380Y-48785714D01*
X190452380Y-49023809D01*
X190500000Y-49166666D01*
X190595238Y-49261904D01*
X190690476Y-49309523D01*
X190880952Y-49357142D01*
X191023809Y-49357142D01*
X191214285Y-49309523D01*
X191309523Y-49261904D01*
X191404761Y-49166666D01*
X191452380Y-49023809D01*
X191452380Y-48785714D01*
X190547619Y-49738095D02*
X190500000Y-49785714D01*
X190452380Y-49880952D01*
X190452380Y-50119047D01*
X190500000Y-50214285D01*
X190547619Y-50261904D01*
X190642857Y-50309523D01*
X190738095Y-50309523D01*
X190880952Y-50261904D01*
X191452380Y-49690476D01*
X191452380Y-50309523D01*
X191452380Y-51261904D02*
X191452380Y-50690476D01*
X191452380Y-50976190D02*
X190452380Y-50976190D01*
X190595238Y-50880952D01*
X190690476Y-50785714D01*
X190738095Y-50690476D01*
%TO.C,ENC6*%
X130214285Y-30928571D02*
X129880952Y-30928571D01*
X129738095Y-31452380D02*
X130214285Y-31452380D01*
X130214285Y-30452380D01*
X129738095Y-30452380D01*
X129309523Y-31452380D02*
X129309523Y-30452380D01*
X128738095Y-31452380D01*
X128738095Y-30452380D01*
X127690476Y-31357142D02*
X127738095Y-31404761D01*
X127880952Y-31452380D01*
X127976190Y-31452380D01*
X128119047Y-31404761D01*
X128214285Y-31309523D01*
X128261904Y-31214285D01*
X128309523Y-31023809D01*
X128309523Y-30880952D01*
X128261904Y-30690476D01*
X128214285Y-30595238D01*
X128119047Y-30500000D01*
X127976190Y-30452380D01*
X127880952Y-30452380D01*
X127738095Y-30500000D01*
X127690476Y-30547619D01*
X126833333Y-30452380D02*
X127023809Y-30452380D01*
X127119047Y-30500000D01*
X127166666Y-30547619D01*
X127261904Y-30690476D01*
X127309523Y-30880952D01*
X127309523Y-31261904D01*
X127261904Y-31357142D01*
X127214285Y-31404761D01*
X127119047Y-31452380D01*
X126928571Y-31452380D01*
X126833333Y-31404761D01*
X126785714Y-31357142D01*
X126738095Y-31261904D01*
X126738095Y-31023809D01*
X126785714Y-30928571D01*
X126833333Y-30880952D01*
X126928571Y-30833333D01*
X127119047Y-30833333D01*
X127214285Y-30880952D01*
X127261904Y-30928571D01*
X127309523Y-31023809D01*
%TO.C,ENC39*%
X73190476Y-87928571D02*
X72857142Y-87928571D01*
X72714285Y-88452380D02*
X73190476Y-88452380D01*
X73190476Y-87452380D01*
X72714285Y-87452380D01*
X72285714Y-88452380D02*
X72285714Y-87452380D01*
X71714285Y-88452380D01*
X71714285Y-87452380D01*
X70666666Y-88357142D02*
X70714285Y-88404761D01*
X70857142Y-88452380D01*
X70952380Y-88452380D01*
X71095238Y-88404761D01*
X71190476Y-88309523D01*
X71238095Y-88214285D01*
X71285714Y-88023809D01*
X71285714Y-87880952D01*
X71238095Y-87690476D01*
X71190476Y-87595238D01*
X71095238Y-87500000D01*
X70952380Y-87452380D01*
X70857142Y-87452380D01*
X70714285Y-87500000D01*
X70666666Y-87547619D01*
X70333333Y-87452380D02*
X69714285Y-87452380D01*
X70047619Y-87833333D01*
X69904761Y-87833333D01*
X69809523Y-87880952D01*
X69761904Y-87928571D01*
X69714285Y-88023809D01*
X69714285Y-88261904D01*
X69761904Y-88357142D01*
X69809523Y-88404761D01*
X69904761Y-88452380D01*
X70190476Y-88452380D01*
X70285714Y-88404761D01*
X70333333Y-88357142D01*
X69238095Y-88452380D02*
X69047619Y-88452380D01*
X68952380Y-88404761D01*
X68904761Y-88357142D01*
X68809523Y-88214285D01*
X68761904Y-88023809D01*
X68761904Y-87642857D01*
X68809523Y-87547619D01*
X68857142Y-87500000D01*
X68952380Y-87452380D01*
X69142857Y-87452380D01*
X69238095Y-87500000D01*
X69285714Y-87547619D01*
X69333333Y-87642857D01*
X69333333Y-87880952D01*
X69285714Y-87976190D01*
X69238095Y-88023809D01*
X69142857Y-88071428D01*
X68952380Y-88071428D01*
X68857142Y-88023809D01*
X68809523Y-87976190D01*
X68761904Y-87880952D01*
%TO.C,U2*%
X64161904Y-35192380D02*
X64161904Y-36001904D01*
X64114285Y-36097142D01*
X64066666Y-36144761D01*
X63971428Y-36192380D01*
X63780952Y-36192380D01*
X63685714Y-36144761D01*
X63638095Y-36097142D01*
X63590476Y-36001904D01*
X63590476Y-35192380D01*
X63161904Y-35287619D02*
X63114285Y-35240000D01*
X63019047Y-35192380D01*
X62780952Y-35192380D01*
X62685714Y-35240000D01*
X62638095Y-35287619D01*
X62590476Y-35382857D01*
X62590476Y-35478095D01*
X62638095Y-35620952D01*
X63209523Y-36192380D01*
X62590476Y-36192380D01*
%TO.C,ENC26*%
X54190476Y-68928571D02*
X53857142Y-68928571D01*
X53714285Y-69452380D02*
X54190476Y-69452380D01*
X54190476Y-68452380D01*
X53714285Y-68452380D01*
X53285714Y-69452380D02*
X53285714Y-68452380D01*
X52714285Y-69452380D01*
X52714285Y-68452380D01*
X51666666Y-69357142D02*
X51714285Y-69404761D01*
X51857142Y-69452380D01*
X51952380Y-69452380D01*
X52095238Y-69404761D01*
X52190476Y-69309523D01*
X52238095Y-69214285D01*
X52285714Y-69023809D01*
X52285714Y-68880952D01*
X52238095Y-68690476D01*
X52190476Y-68595238D01*
X52095238Y-68500000D01*
X51952380Y-68452380D01*
X51857142Y-68452380D01*
X51714285Y-68500000D01*
X51666666Y-68547619D01*
X51285714Y-68547619D02*
X51238095Y-68500000D01*
X51142857Y-68452380D01*
X50904761Y-68452380D01*
X50809523Y-68500000D01*
X50761904Y-68547619D01*
X50714285Y-68642857D01*
X50714285Y-68738095D01*
X50761904Y-68880952D01*
X51333333Y-69452380D01*
X50714285Y-69452380D01*
X49857142Y-68452380D02*
X50047619Y-68452380D01*
X50142857Y-68500000D01*
X50190476Y-68547619D01*
X50285714Y-68690476D01*
X50333333Y-68880952D01*
X50333333Y-69261904D01*
X50285714Y-69357142D01*
X50238095Y-69404761D01*
X50142857Y-69452380D01*
X49952380Y-69452380D01*
X49857142Y-69404761D01*
X49809523Y-69357142D01*
X49761904Y-69261904D01*
X49761904Y-69023809D01*
X49809523Y-68928571D01*
X49857142Y-68880952D01*
X49952380Y-68833333D01*
X50142857Y-68833333D01*
X50238095Y-68880952D01*
X50285714Y-68928571D01*
X50333333Y-69023809D01*
%TO.C,C11*%
X70857142Y-49357142D02*
X70904761Y-49309523D01*
X70952380Y-49166666D01*
X70952380Y-49071428D01*
X70904761Y-48928571D01*
X70809523Y-48833333D01*
X70714285Y-48785714D01*
X70523809Y-48738095D01*
X70380952Y-48738095D01*
X70190476Y-48785714D01*
X70095238Y-48833333D01*
X70000000Y-48928571D01*
X69952380Y-49071428D01*
X69952380Y-49166666D01*
X70000000Y-49309523D01*
X70047619Y-49357142D01*
X70952380Y-50309523D02*
X70952380Y-49738095D01*
X70952380Y-50023809D02*
X69952380Y-50023809D01*
X70095238Y-49928571D01*
X70190476Y-49833333D01*
X70238095Y-49738095D01*
X70952380Y-51261904D02*
X70952380Y-50690476D01*
X70952380Y-50976190D02*
X69952380Y-50976190D01*
X70095238Y-50880952D01*
X70190476Y-50785714D01*
X70238095Y-50690476D01*
%TO.C,J1*%
X62833333Y-20452380D02*
X62833333Y-21166666D01*
X62880952Y-21309523D01*
X62976190Y-21404761D01*
X63119047Y-21452380D01*
X63214285Y-21452380D01*
X61833333Y-21452380D02*
X62404761Y-21452380D01*
X62119047Y-21452380D02*
X62119047Y-20452380D01*
X62214285Y-20595238D01*
X62309523Y-20690476D01*
X62404761Y-20738095D01*
%TO.C,ENC44*%
X168190476Y-87928571D02*
X167857142Y-87928571D01*
X167714285Y-88452380D02*
X168190476Y-88452380D01*
X168190476Y-87452380D01*
X167714285Y-87452380D01*
X167285714Y-88452380D02*
X167285714Y-87452380D01*
X166714285Y-88452380D01*
X166714285Y-87452380D01*
X165666666Y-88357142D02*
X165714285Y-88404761D01*
X165857142Y-88452380D01*
X165952380Y-88452380D01*
X166095238Y-88404761D01*
X166190476Y-88309523D01*
X166238095Y-88214285D01*
X166285714Y-88023809D01*
X166285714Y-87880952D01*
X166238095Y-87690476D01*
X166190476Y-87595238D01*
X166095238Y-87500000D01*
X165952380Y-87452380D01*
X165857142Y-87452380D01*
X165714285Y-87500000D01*
X165666666Y-87547619D01*
X164809523Y-87785714D02*
X164809523Y-88452380D01*
X165047619Y-87404761D02*
X165285714Y-88119047D01*
X164666666Y-88119047D01*
X163857142Y-87785714D02*
X163857142Y-88452380D01*
X164095238Y-87404761D02*
X164333333Y-88119047D01*
X163714285Y-88119047D01*
%TO.C,ENC22*%
X206190476Y-49928571D02*
X205857142Y-49928571D01*
X205714285Y-50452380D02*
X206190476Y-50452380D01*
X206190476Y-49452380D01*
X205714285Y-49452380D01*
X205285714Y-50452380D02*
X205285714Y-49452380D01*
X204714285Y-50452380D01*
X204714285Y-49452380D01*
X203666666Y-50357142D02*
X203714285Y-50404761D01*
X203857142Y-50452380D01*
X203952380Y-50452380D01*
X204095238Y-50404761D01*
X204190476Y-50309523D01*
X204238095Y-50214285D01*
X204285714Y-50023809D01*
X204285714Y-49880952D01*
X204238095Y-49690476D01*
X204190476Y-49595238D01*
X204095238Y-49500000D01*
X203952380Y-49452380D01*
X203857142Y-49452380D01*
X203714285Y-49500000D01*
X203666666Y-49547619D01*
X203285714Y-49547619D02*
X203238095Y-49500000D01*
X203142857Y-49452380D01*
X202904761Y-49452380D01*
X202809523Y-49500000D01*
X202761904Y-49547619D01*
X202714285Y-49642857D01*
X202714285Y-49738095D01*
X202761904Y-49880952D01*
X203333333Y-50452380D01*
X202714285Y-50452380D01*
X202333333Y-49547619D02*
X202285714Y-49500000D01*
X202190476Y-49452380D01*
X201952380Y-49452380D01*
X201857142Y-49500000D01*
X201809523Y-49547619D01*
X201761904Y-49642857D01*
X201761904Y-49738095D01*
X201809523Y-49880952D01*
X202380952Y-50452380D01*
X201761904Y-50452380D01*
%TO.C,ENC24*%
X244190476Y-49928571D02*
X243857142Y-49928571D01*
X243714285Y-50452380D02*
X244190476Y-50452380D01*
X244190476Y-49452380D01*
X243714285Y-49452380D01*
X243285714Y-50452380D02*
X243285714Y-49452380D01*
X242714285Y-50452380D01*
X242714285Y-49452380D01*
X241666666Y-50357142D02*
X241714285Y-50404761D01*
X241857142Y-50452380D01*
X241952380Y-50452380D01*
X242095238Y-50404761D01*
X242190476Y-50309523D01*
X242238095Y-50214285D01*
X242285714Y-50023809D01*
X242285714Y-49880952D01*
X242238095Y-49690476D01*
X242190476Y-49595238D01*
X242095238Y-49500000D01*
X241952380Y-49452380D01*
X241857142Y-49452380D01*
X241714285Y-49500000D01*
X241666666Y-49547619D01*
X241285714Y-49547619D02*
X241238095Y-49500000D01*
X241142857Y-49452380D01*
X240904761Y-49452380D01*
X240809523Y-49500000D01*
X240761904Y-49547619D01*
X240714285Y-49642857D01*
X240714285Y-49738095D01*
X240761904Y-49880952D01*
X241333333Y-50452380D01*
X240714285Y-50452380D01*
X239857142Y-49785714D02*
X239857142Y-50452380D01*
X240095238Y-49404761D02*
X240333333Y-50119047D01*
X239714285Y-50119047D01*
%TO.C,ENC46*%
X206190476Y-87928571D02*
X205857142Y-87928571D01*
X205714285Y-88452380D02*
X206190476Y-88452380D01*
X206190476Y-87452380D01*
X205714285Y-87452380D01*
X205285714Y-88452380D02*
X205285714Y-87452380D01*
X204714285Y-88452380D01*
X204714285Y-87452380D01*
X203666666Y-88357142D02*
X203714285Y-88404761D01*
X203857142Y-88452380D01*
X203952380Y-88452380D01*
X204095238Y-88404761D01*
X204190476Y-88309523D01*
X204238095Y-88214285D01*
X204285714Y-88023809D01*
X204285714Y-87880952D01*
X204238095Y-87690476D01*
X204190476Y-87595238D01*
X204095238Y-87500000D01*
X203952380Y-87452380D01*
X203857142Y-87452380D01*
X203714285Y-87500000D01*
X203666666Y-87547619D01*
X202809523Y-87785714D02*
X202809523Y-88452380D01*
X203047619Y-87404761D02*
X203285714Y-88119047D01*
X202666666Y-88119047D01*
X201857142Y-87452380D02*
X202047619Y-87452380D01*
X202142857Y-87500000D01*
X202190476Y-87547619D01*
X202285714Y-87690476D01*
X202333333Y-87880952D01*
X202333333Y-88261904D01*
X202285714Y-88357142D01*
X202238095Y-88404761D01*
X202142857Y-88452380D01*
X201952380Y-88452380D01*
X201857142Y-88404761D01*
X201809523Y-88357142D01*
X201761904Y-88261904D01*
X201761904Y-88023809D01*
X201809523Y-87928571D01*
X201857142Y-87880952D01*
X201952380Y-87833333D01*
X202142857Y-87833333D01*
X202238095Y-87880952D01*
X202285714Y-87928571D01*
X202333333Y-88023809D01*
%TO.C,ENC43*%
X149190476Y-87928571D02*
X148857142Y-87928571D01*
X148714285Y-88452380D02*
X149190476Y-88452380D01*
X149190476Y-87452380D01*
X148714285Y-87452380D01*
X148285714Y-88452380D02*
X148285714Y-87452380D01*
X147714285Y-88452380D01*
X147714285Y-87452380D01*
X146666666Y-88357142D02*
X146714285Y-88404761D01*
X146857142Y-88452380D01*
X146952380Y-88452380D01*
X147095238Y-88404761D01*
X147190476Y-88309523D01*
X147238095Y-88214285D01*
X147285714Y-88023809D01*
X147285714Y-87880952D01*
X147238095Y-87690476D01*
X147190476Y-87595238D01*
X147095238Y-87500000D01*
X146952380Y-87452380D01*
X146857142Y-87452380D01*
X146714285Y-87500000D01*
X146666666Y-87547619D01*
X145809523Y-87785714D02*
X145809523Y-88452380D01*
X146047619Y-87404761D02*
X146285714Y-88119047D01*
X145666666Y-88119047D01*
X145380952Y-87452380D02*
X144761904Y-87452380D01*
X145095238Y-87833333D01*
X144952380Y-87833333D01*
X144857142Y-87880952D01*
X144809523Y-87928571D01*
X144761904Y-88023809D01*
X144761904Y-88261904D01*
X144809523Y-88357142D01*
X144857142Y-88404761D01*
X144952380Y-88452380D01*
X145238095Y-88452380D01*
X145333333Y-88404761D01*
X145380952Y-88357142D01*
%TO.C,ENC20*%
X168190476Y-49928571D02*
X167857142Y-49928571D01*
X167714285Y-50452380D02*
X168190476Y-50452380D01*
X168190476Y-49452380D01*
X167714285Y-49452380D01*
X167285714Y-50452380D02*
X167285714Y-49452380D01*
X166714285Y-50452380D01*
X166714285Y-49452380D01*
X165666666Y-50357142D02*
X165714285Y-50404761D01*
X165857142Y-50452380D01*
X165952380Y-50452380D01*
X166095238Y-50404761D01*
X166190476Y-50309523D01*
X166238095Y-50214285D01*
X166285714Y-50023809D01*
X166285714Y-49880952D01*
X166238095Y-49690476D01*
X166190476Y-49595238D01*
X166095238Y-49500000D01*
X165952380Y-49452380D01*
X165857142Y-49452380D01*
X165714285Y-49500000D01*
X165666666Y-49547619D01*
X165285714Y-49547619D02*
X165238095Y-49500000D01*
X165142857Y-49452380D01*
X164904761Y-49452380D01*
X164809523Y-49500000D01*
X164761904Y-49547619D01*
X164714285Y-49642857D01*
X164714285Y-49738095D01*
X164761904Y-49880952D01*
X165333333Y-50452380D01*
X164714285Y-50452380D01*
X164095238Y-49452380D02*
X164000000Y-49452380D01*
X163904761Y-49500000D01*
X163857142Y-49547619D01*
X163809523Y-49642857D01*
X163761904Y-49833333D01*
X163761904Y-50071428D01*
X163809523Y-50261904D01*
X163857142Y-50357142D01*
X163904761Y-50404761D01*
X164000000Y-50452380D01*
X164095238Y-50452380D01*
X164190476Y-50404761D01*
X164238095Y-50357142D01*
X164285714Y-50261904D01*
X164333333Y-50071428D01*
X164333333Y-49833333D01*
X164285714Y-49642857D01*
X164238095Y-49547619D01*
X164190476Y-49500000D01*
X164095238Y-49452380D01*
%TO.C,ENC23*%
X225190476Y-49928571D02*
X224857142Y-49928571D01*
X224714285Y-50452380D02*
X225190476Y-50452380D01*
X225190476Y-49452380D01*
X224714285Y-49452380D01*
X224285714Y-50452380D02*
X224285714Y-49452380D01*
X223714285Y-50452380D01*
X223714285Y-49452380D01*
X222666666Y-50357142D02*
X222714285Y-50404761D01*
X222857142Y-50452380D01*
X222952380Y-50452380D01*
X223095238Y-50404761D01*
X223190476Y-50309523D01*
X223238095Y-50214285D01*
X223285714Y-50023809D01*
X223285714Y-49880952D01*
X223238095Y-49690476D01*
X223190476Y-49595238D01*
X223095238Y-49500000D01*
X222952380Y-49452380D01*
X222857142Y-49452380D01*
X222714285Y-49500000D01*
X222666666Y-49547619D01*
X222285714Y-49547619D02*
X222238095Y-49500000D01*
X222142857Y-49452380D01*
X221904761Y-49452380D01*
X221809523Y-49500000D01*
X221761904Y-49547619D01*
X221714285Y-49642857D01*
X221714285Y-49738095D01*
X221761904Y-49880952D01*
X222333333Y-50452380D01*
X221714285Y-50452380D01*
X221380952Y-49452380D02*
X220761904Y-49452380D01*
X221095238Y-49833333D01*
X220952380Y-49833333D01*
X220857142Y-49880952D01*
X220809523Y-49928571D01*
X220761904Y-50023809D01*
X220761904Y-50261904D01*
X220809523Y-50357142D01*
X220857142Y-50404761D01*
X220952380Y-50452380D01*
X221238095Y-50452380D01*
X221333333Y-50404761D01*
X221380952Y-50357142D01*
%TO.C,D37*%
X39452380Y-86785714D02*
X38452380Y-86785714D01*
X38452380Y-87023809D01*
X38500000Y-87166666D01*
X38595238Y-87261904D01*
X38690476Y-87309523D01*
X38880952Y-87357142D01*
X39023809Y-87357142D01*
X39214285Y-87309523D01*
X39309523Y-87261904D01*
X39404761Y-87166666D01*
X39452380Y-87023809D01*
X39452380Y-86785714D01*
X38452380Y-87690476D02*
X38452380Y-88309523D01*
X38833333Y-87976190D01*
X38833333Y-88119047D01*
X38880952Y-88214285D01*
X38928571Y-88261904D01*
X39023809Y-88309523D01*
X39261904Y-88309523D01*
X39357142Y-88261904D01*
X39404761Y-88214285D01*
X39452380Y-88119047D01*
X39452380Y-87833333D01*
X39404761Y-87738095D01*
X39357142Y-87690476D01*
X38452380Y-88642857D02*
X38452380Y-89309523D01*
X39452380Y-88880952D01*
%TO.C,ENC18*%
X130190476Y-49928571D02*
X129857142Y-49928571D01*
X129714285Y-50452380D02*
X130190476Y-50452380D01*
X130190476Y-49452380D01*
X129714285Y-49452380D01*
X129285714Y-50452380D02*
X129285714Y-49452380D01*
X128714285Y-50452380D01*
X128714285Y-49452380D01*
X127666666Y-50357142D02*
X127714285Y-50404761D01*
X127857142Y-50452380D01*
X127952380Y-50452380D01*
X128095238Y-50404761D01*
X128190476Y-50309523D01*
X128238095Y-50214285D01*
X128285714Y-50023809D01*
X128285714Y-49880952D01*
X128238095Y-49690476D01*
X128190476Y-49595238D01*
X128095238Y-49500000D01*
X127952380Y-49452380D01*
X127857142Y-49452380D01*
X127714285Y-49500000D01*
X127666666Y-49547619D01*
X126714285Y-50452380D02*
X127285714Y-50452380D01*
X127000000Y-50452380D02*
X127000000Y-49452380D01*
X127095238Y-49595238D01*
X127190476Y-49690476D01*
X127285714Y-49738095D01*
X126142857Y-49880952D02*
X126238095Y-49833333D01*
X126285714Y-49785714D01*
X126333333Y-49690476D01*
X126333333Y-49642857D01*
X126285714Y-49547619D01*
X126238095Y-49500000D01*
X126142857Y-49452380D01*
X125952380Y-49452380D01*
X125857142Y-49500000D01*
X125809523Y-49547619D01*
X125761904Y-49642857D01*
X125761904Y-49690476D01*
X125809523Y-49785714D01*
X125857142Y-49833333D01*
X125952380Y-49880952D01*
X126142857Y-49880952D01*
X126238095Y-49928571D01*
X126285714Y-49976190D01*
X126333333Y-50071428D01*
X126333333Y-50261904D01*
X126285714Y-50357142D01*
X126238095Y-50404761D01*
X126142857Y-50452380D01*
X125952380Y-50452380D01*
X125857142Y-50404761D01*
X125809523Y-50357142D01*
X125761904Y-50261904D01*
X125761904Y-50071428D01*
X125809523Y-49976190D01*
X125857142Y-49928571D01*
X125952380Y-49880952D01*
%TO.C,R2*%
X65828295Y-25906056D02*
X66161629Y-25429866D01*
X66399724Y-25906056D02*
X66399724Y-24906056D01*
X66018771Y-24906056D01*
X65923533Y-24953676D01*
X65875914Y-25001295D01*
X65828295Y-25096533D01*
X65828295Y-25239390D01*
X65875914Y-25334628D01*
X65923533Y-25382247D01*
X66018771Y-25429866D01*
X66399724Y-25429866D01*
X65447343Y-25001295D02*
X65399724Y-24953676D01*
X65304486Y-24906056D01*
X65066390Y-24906056D01*
X64971152Y-24953676D01*
X64923533Y-25001295D01*
X64875914Y-25096533D01*
X64875914Y-25191771D01*
X64923533Y-25334628D01*
X65494962Y-25906056D01*
X64875914Y-25906056D01*
%TO.C,ENC13*%
X35190476Y-49928571D02*
X34857142Y-49928571D01*
X34714285Y-50452380D02*
X35190476Y-50452380D01*
X35190476Y-49452380D01*
X34714285Y-49452380D01*
X34285714Y-50452380D02*
X34285714Y-49452380D01*
X33714285Y-50452380D01*
X33714285Y-49452380D01*
X32666666Y-50357142D02*
X32714285Y-50404761D01*
X32857142Y-50452380D01*
X32952380Y-50452380D01*
X33095238Y-50404761D01*
X33190476Y-50309523D01*
X33238095Y-50214285D01*
X33285714Y-50023809D01*
X33285714Y-49880952D01*
X33238095Y-49690476D01*
X33190476Y-49595238D01*
X33095238Y-49500000D01*
X32952380Y-49452380D01*
X32857142Y-49452380D01*
X32714285Y-49500000D01*
X32666666Y-49547619D01*
X31714285Y-50452380D02*
X32285714Y-50452380D01*
X32000000Y-50452380D02*
X32000000Y-49452380D01*
X32095238Y-49595238D01*
X32190476Y-49690476D01*
X32285714Y-49738095D01*
X31380952Y-49452380D02*
X30761904Y-49452380D01*
X31095238Y-49833333D01*
X30952380Y-49833333D01*
X30857142Y-49880952D01*
X30809523Y-49928571D01*
X30761904Y-50023809D01*
X30761904Y-50261904D01*
X30809523Y-50357142D01*
X30857142Y-50404761D01*
X30952380Y-50452380D01*
X31238095Y-50452380D01*
X31333333Y-50404761D01*
X31380952Y-50357142D01*
%TO.C,D30*%
X134452380Y-67785714D02*
X133452380Y-67785714D01*
X133452380Y-68023809D01*
X133500000Y-68166666D01*
X133595238Y-68261904D01*
X133690476Y-68309523D01*
X133880952Y-68357142D01*
X134023809Y-68357142D01*
X134214285Y-68309523D01*
X134309523Y-68261904D01*
X134404761Y-68166666D01*
X134452380Y-68023809D01*
X134452380Y-67785714D01*
X133452380Y-68690476D02*
X133452380Y-69309523D01*
X133833333Y-68976190D01*
X133833333Y-69119047D01*
X133880952Y-69214285D01*
X133928571Y-69261904D01*
X134023809Y-69309523D01*
X134261904Y-69309523D01*
X134357142Y-69261904D01*
X134404761Y-69214285D01*
X134452380Y-69119047D01*
X134452380Y-68833333D01*
X134404761Y-68738095D01*
X134357142Y-68690476D01*
X133452380Y-69928571D02*
X133452380Y-70023809D01*
X133500000Y-70119047D01*
X133547619Y-70166666D01*
X133642857Y-70214285D01*
X133833333Y-70261904D01*
X134071428Y-70261904D01*
X134261904Y-70214285D01*
X134357142Y-70166666D01*
X134404761Y-70119047D01*
X134452380Y-70023809D01*
X134452380Y-69928571D01*
X134404761Y-69833333D01*
X134357142Y-69785714D01*
X134261904Y-69738095D01*
X134071428Y-69690476D01*
X133833333Y-69690476D01*
X133642857Y-69738095D01*
X133547619Y-69785714D01*
X133500000Y-69833333D01*
X133452380Y-69928571D01*
%TO.C,ENC30*%
X130190476Y-68928571D02*
X129857142Y-68928571D01*
X129714285Y-69452380D02*
X130190476Y-69452380D01*
X130190476Y-68452380D01*
X129714285Y-68452380D01*
X129285714Y-69452380D02*
X129285714Y-68452380D01*
X128714285Y-69452380D01*
X128714285Y-68452380D01*
X127666666Y-69357142D02*
X127714285Y-69404761D01*
X127857142Y-69452380D01*
X127952380Y-69452380D01*
X128095238Y-69404761D01*
X128190476Y-69309523D01*
X128238095Y-69214285D01*
X128285714Y-69023809D01*
X128285714Y-68880952D01*
X128238095Y-68690476D01*
X128190476Y-68595238D01*
X128095238Y-68500000D01*
X127952380Y-68452380D01*
X127857142Y-68452380D01*
X127714285Y-68500000D01*
X127666666Y-68547619D01*
X127333333Y-68452380D02*
X126714285Y-68452380D01*
X127047619Y-68833333D01*
X126904761Y-68833333D01*
X126809523Y-68880952D01*
X126761904Y-68928571D01*
X126714285Y-69023809D01*
X126714285Y-69261904D01*
X126761904Y-69357142D01*
X126809523Y-69404761D01*
X126904761Y-69452380D01*
X127190476Y-69452380D01*
X127285714Y-69404761D01*
X127333333Y-69357142D01*
X126095238Y-68452380D02*
X126000000Y-68452380D01*
X125904761Y-68500000D01*
X125857142Y-68547619D01*
X125809523Y-68642857D01*
X125761904Y-68833333D01*
X125761904Y-69071428D01*
X125809523Y-69261904D01*
X125857142Y-69357142D01*
X125904761Y-69404761D01*
X126000000Y-69452380D01*
X126095238Y-69452380D01*
X126190476Y-69404761D01*
X126238095Y-69357142D01*
X126285714Y-69261904D01*
X126333333Y-69071428D01*
X126333333Y-68833333D01*
X126285714Y-68642857D01*
X126238095Y-68547619D01*
X126190476Y-68500000D01*
X126095238Y-68452380D01*
%TO.C,D35*%
X229452380Y-67785714D02*
X228452380Y-67785714D01*
X228452380Y-68023809D01*
X228500000Y-68166666D01*
X228595238Y-68261904D01*
X228690476Y-68309523D01*
X228880952Y-68357142D01*
X229023809Y-68357142D01*
X229214285Y-68309523D01*
X229309523Y-68261904D01*
X229404761Y-68166666D01*
X229452380Y-68023809D01*
X229452380Y-67785714D01*
X228452380Y-68690476D02*
X228452380Y-69309523D01*
X228833333Y-68976190D01*
X228833333Y-69119047D01*
X228880952Y-69214285D01*
X228928571Y-69261904D01*
X229023809Y-69309523D01*
X229261904Y-69309523D01*
X229357142Y-69261904D01*
X229404761Y-69214285D01*
X229452380Y-69119047D01*
X229452380Y-68833333D01*
X229404761Y-68738095D01*
X229357142Y-68690476D01*
X228452380Y-70214285D02*
X228452380Y-69738095D01*
X228928571Y-69690476D01*
X228880952Y-69738095D01*
X228833333Y-69833333D01*
X228833333Y-70071428D01*
X228880952Y-70166666D01*
X228928571Y-70214285D01*
X229023809Y-70261904D01*
X229261904Y-70261904D01*
X229357142Y-70214285D01*
X229404761Y-70166666D01*
X229452380Y-70071428D01*
X229452380Y-69833333D01*
X229404761Y-69738095D01*
X229357142Y-69690476D01*
%TO.C,ENC29*%
X111190476Y-68928571D02*
X110857142Y-68928571D01*
X110714285Y-69452380D02*
X111190476Y-69452380D01*
X111190476Y-68452380D01*
X110714285Y-68452380D01*
X110285714Y-69452380D02*
X110285714Y-68452380D01*
X109714285Y-69452380D01*
X109714285Y-68452380D01*
X108666666Y-69357142D02*
X108714285Y-69404761D01*
X108857142Y-69452380D01*
X108952380Y-69452380D01*
X109095238Y-69404761D01*
X109190476Y-69309523D01*
X109238095Y-69214285D01*
X109285714Y-69023809D01*
X109285714Y-68880952D01*
X109238095Y-68690476D01*
X109190476Y-68595238D01*
X109095238Y-68500000D01*
X108952380Y-68452380D01*
X108857142Y-68452380D01*
X108714285Y-68500000D01*
X108666666Y-68547619D01*
X108285714Y-68547619D02*
X108238095Y-68500000D01*
X108142857Y-68452380D01*
X107904761Y-68452380D01*
X107809523Y-68500000D01*
X107761904Y-68547619D01*
X107714285Y-68642857D01*
X107714285Y-68738095D01*
X107761904Y-68880952D01*
X108333333Y-69452380D01*
X107714285Y-69452380D01*
X107238095Y-69452380D02*
X107047619Y-69452380D01*
X106952380Y-69404761D01*
X106904761Y-69357142D01*
X106809523Y-69214285D01*
X106761904Y-69023809D01*
X106761904Y-68642857D01*
X106809523Y-68547619D01*
X106857142Y-68500000D01*
X106952380Y-68452380D01*
X107142857Y-68452380D01*
X107238095Y-68500000D01*
X107285714Y-68547619D01*
X107333333Y-68642857D01*
X107333333Y-68880952D01*
X107285714Y-68976190D01*
X107238095Y-69023809D01*
X107142857Y-69071428D01*
X106952380Y-69071428D01*
X106857142Y-69023809D01*
X106809523Y-68976190D01*
X106761904Y-68880952D01*
%TO.C,D10*%
X210452380Y-29785714D02*
X209452380Y-29785714D01*
X209452380Y-30023809D01*
X209500000Y-30166666D01*
X209595238Y-30261904D01*
X209690476Y-30309523D01*
X209880952Y-30357142D01*
X210023809Y-30357142D01*
X210214285Y-30309523D01*
X210309523Y-30261904D01*
X210404761Y-30166666D01*
X210452380Y-30023809D01*
X210452380Y-29785714D01*
X210452380Y-31309523D02*
X210452380Y-30738095D01*
X210452380Y-31023809D02*
X209452380Y-31023809D01*
X209595238Y-30928571D01*
X209690476Y-30833333D01*
X209738095Y-30738095D01*
X209452380Y-31928571D02*
X209452380Y-32023809D01*
X209500000Y-32119047D01*
X209547619Y-32166666D01*
X209642857Y-32214285D01*
X209833333Y-32261904D01*
X210071428Y-32261904D01*
X210261904Y-32214285D01*
X210357142Y-32166666D01*
X210404761Y-32119047D01*
X210452380Y-32023809D01*
X210452380Y-31928571D01*
X210404761Y-31833333D01*
X210357142Y-31785714D01*
X210261904Y-31738095D01*
X210071428Y-31690476D01*
X209833333Y-31690476D01*
X209642857Y-31738095D01*
X209547619Y-31785714D01*
X209500000Y-31833333D01*
X209452380Y-31928571D01*
%TO.C,D12*%
X248452380Y-29785714D02*
X247452380Y-29785714D01*
X247452380Y-30023809D01*
X247500000Y-30166666D01*
X247595238Y-30261904D01*
X247690476Y-30309523D01*
X247880952Y-30357142D01*
X248023809Y-30357142D01*
X248214285Y-30309523D01*
X248309523Y-30261904D01*
X248404761Y-30166666D01*
X248452380Y-30023809D01*
X248452380Y-29785714D01*
X248452380Y-31309523D02*
X248452380Y-30738095D01*
X248452380Y-31023809D02*
X247452380Y-31023809D01*
X247595238Y-30928571D01*
X247690476Y-30833333D01*
X247738095Y-30738095D01*
X247547619Y-31690476D02*
X247500000Y-31738095D01*
X247452380Y-31833333D01*
X247452380Y-32071428D01*
X247500000Y-32166666D01*
X247547619Y-32214285D01*
X247642857Y-32261904D01*
X247738095Y-32261904D01*
X247880952Y-32214285D01*
X248452380Y-31642857D01*
X248452380Y-32261904D01*
%TO.C,C1*%
X70695772Y-34202521D02*
X70743391Y-34250140D01*
X70886248Y-34297759D01*
X70981486Y-34297759D01*
X71124344Y-34250140D01*
X71219582Y-34154902D01*
X71267201Y-34059664D01*
X71314820Y-33869188D01*
X71314820Y-33726331D01*
X71267201Y-33535855D01*
X71219582Y-33440617D01*
X71124344Y-33345379D01*
X70981486Y-33297759D01*
X70886248Y-33297759D01*
X70743391Y-33345379D01*
X70695772Y-33392998D01*
X69743391Y-34297759D02*
X70314820Y-34297759D01*
X70029106Y-34297759D02*
X70029106Y-33297759D01*
X70124344Y-33440617D01*
X70219582Y-33535855D01*
X70314820Y-33583474D01*
%TO.C,SW2*%
X43783333Y-28566666D02*
X43816666Y-28666666D01*
X43816666Y-28833333D01*
X43783333Y-28900000D01*
X43750000Y-28933333D01*
X43683333Y-28966666D01*
X43616666Y-28966666D01*
X43550000Y-28933333D01*
X43516666Y-28900000D01*
X43483333Y-28833333D01*
X43450000Y-28700000D01*
X43416666Y-28633333D01*
X43383333Y-28600000D01*
X43316666Y-28566666D01*
X43250000Y-28566666D01*
X43183333Y-28600000D01*
X43150000Y-28633333D01*
X43116666Y-28700000D01*
X43116666Y-28866666D01*
X43150000Y-28966666D01*
X43116666Y-29200000D02*
X43816666Y-29366666D01*
X43316666Y-29500000D01*
X43816666Y-29633333D01*
X43116666Y-29800000D01*
X43183333Y-30033333D02*
X43150000Y-30066666D01*
X43116666Y-30133333D01*
X43116666Y-30300000D01*
X43150000Y-30366666D01*
X43183333Y-30400000D01*
X43250000Y-30433333D01*
X43316666Y-30433333D01*
X43416666Y-30400000D01*
X43816666Y-30000000D01*
X43816666Y-30433333D01*
%TO.C,D18*%
X134452380Y-48785714D02*
X133452380Y-48785714D01*
X133452380Y-49023809D01*
X133500000Y-49166666D01*
X133595238Y-49261904D01*
X133690476Y-49309523D01*
X133880952Y-49357142D01*
X134023809Y-49357142D01*
X134214285Y-49309523D01*
X134309523Y-49261904D01*
X134404761Y-49166666D01*
X134452380Y-49023809D01*
X134452380Y-48785714D01*
X134452380Y-50309523D02*
X134452380Y-49738095D01*
X134452380Y-50023809D02*
X133452380Y-50023809D01*
X133595238Y-49928571D01*
X133690476Y-49833333D01*
X133738095Y-49738095D01*
X133880952Y-50880952D02*
X133833333Y-50785714D01*
X133785714Y-50738095D01*
X133690476Y-50690476D01*
X133642857Y-50690476D01*
X133547619Y-50738095D01*
X133500000Y-50785714D01*
X133452380Y-50880952D01*
X133452380Y-51071428D01*
X133500000Y-51166666D01*
X133547619Y-51214285D01*
X133642857Y-51261904D01*
X133690476Y-51261904D01*
X133785714Y-51214285D01*
X133833333Y-51166666D01*
X133880952Y-51071428D01*
X133880952Y-50880952D01*
X133928571Y-50785714D01*
X133976190Y-50738095D01*
X134071428Y-50690476D01*
X134261904Y-50690476D01*
X134357142Y-50738095D01*
X134404761Y-50785714D01*
X134452380Y-50880952D01*
X134452380Y-51071428D01*
X134404761Y-51166666D01*
X134357142Y-51214285D01*
X134261904Y-51261904D01*
X134071428Y-51261904D01*
X133976190Y-51214285D01*
X133928571Y-51166666D01*
X133880952Y-51071428D01*
%TO.C,ENC4*%
X92214285Y-30928571D02*
X91880952Y-30928571D01*
X91738095Y-31452380D02*
X92214285Y-31452380D01*
X92214285Y-30452380D01*
X91738095Y-30452380D01*
X91309523Y-31452380D02*
X91309523Y-30452380D01*
X90738095Y-31452380D01*
X90738095Y-30452380D01*
X89690476Y-31357142D02*
X89738095Y-31404761D01*
X89880952Y-31452380D01*
X89976190Y-31452380D01*
X90119047Y-31404761D01*
X90214285Y-31309523D01*
X90261904Y-31214285D01*
X90309523Y-31023809D01*
X90309523Y-30880952D01*
X90261904Y-30690476D01*
X90214285Y-30595238D01*
X90119047Y-30500000D01*
X89976190Y-30452380D01*
X89880952Y-30452380D01*
X89738095Y-30500000D01*
X89690476Y-30547619D01*
X88833333Y-30785714D02*
X88833333Y-31452380D01*
X89071428Y-30404761D02*
X89309523Y-31119047D01*
X88690476Y-31119047D01*
%TO.C,C2*%
X65120561Y-30880504D02*
X65168180Y-30928123D01*
X65311037Y-30975742D01*
X65406275Y-30975742D01*
X65549133Y-30928123D01*
X65644371Y-30832885D01*
X65691990Y-30737647D01*
X65739609Y-30547171D01*
X65739609Y-30404314D01*
X65691990Y-30213838D01*
X65644371Y-30118600D01*
X65549133Y-30023362D01*
X65406275Y-29975742D01*
X65311037Y-29975742D01*
X65168180Y-30023362D01*
X65120561Y-30070981D01*
X64739609Y-30070981D02*
X64691990Y-30023362D01*
X64596752Y-29975742D01*
X64358656Y-29975742D01*
X64263418Y-30023362D01*
X64215799Y-30070981D01*
X64168180Y-30166219D01*
X64168180Y-30261457D01*
X64215799Y-30404314D01*
X64787228Y-30975742D01*
X64168180Y-30975742D01*
%TO.C,D34*%
X210452380Y-67785714D02*
X209452380Y-67785714D01*
X209452380Y-68023809D01*
X209500000Y-68166666D01*
X209595238Y-68261904D01*
X209690476Y-68309523D01*
X209880952Y-68357142D01*
X210023809Y-68357142D01*
X210214285Y-68309523D01*
X210309523Y-68261904D01*
X210404761Y-68166666D01*
X210452380Y-68023809D01*
X210452380Y-67785714D01*
X209452380Y-68690476D02*
X209452380Y-69309523D01*
X209833333Y-68976190D01*
X209833333Y-69119047D01*
X209880952Y-69214285D01*
X209928571Y-69261904D01*
X210023809Y-69309523D01*
X210261904Y-69309523D01*
X210357142Y-69261904D01*
X210404761Y-69214285D01*
X210452380Y-69119047D01*
X210452380Y-68833333D01*
X210404761Y-68738095D01*
X210357142Y-68690476D01*
X209785714Y-70166666D02*
X210452380Y-70166666D01*
X209404761Y-69928571D02*
X210119047Y-69690476D01*
X210119047Y-70309523D01*
%TO.C,ENC1*%
X35214285Y-30928571D02*
X34880952Y-30928571D01*
X34738095Y-31452380D02*
X35214285Y-31452380D01*
X35214285Y-30452380D01*
X34738095Y-30452380D01*
X34309523Y-31452380D02*
X34309523Y-30452380D01*
X33738095Y-31452380D01*
X33738095Y-30452380D01*
X32690476Y-31357142D02*
X32738095Y-31404761D01*
X32880952Y-31452380D01*
X32976190Y-31452380D01*
X33119047Y-31404761D01*
X33214285Y-31309523D01*
X33261904Y-31214285D01*
X33309523Y-31023809D01*
X33309523Y-30880952D01*
X33261904Y-30690476D01*
X33214285Y-30595238D01*
X33119047Y-30500000D01*
X32976190Y-30452380D01*
X32880952Y-30452380D01*
X32738095Y-30500000D01*
X32690476Y-30547619D01*
X31738095Y-31452380D02*
X32309523Y-31452380D01*
X32023809Y-31452380D02*
X32023809Y-30452380D01*
X32119047Y-30595238D01*
X32214285Y-30690476D01*
X32309523Y-30738095D01*
%TO.C,R5*%
X77666666Y-34622380D02*
X78000000Y-34146190D01*
X78238095Y-34622380D02*
X78238095Y-33622380D01*
X77857142Y-33622380D01*
X77761904Y-33670000D01*
X77714285Y-33717619D01*
X77666666Y-33812857D01*
X77666666Y-33955714D01*
X77714285Y-34050952D01*
X77761904Y-34098571D01*
X77857142Y-34146190D01*
X78238095Y-34146190D01*
X76761904Y-33622380D02*
X77238095Y-33622380D01*
X77285714Y-34098571D01*
X77238095Y-34050952D01*
X77142857Y-34003333D01*
X76904761Y-34003333D01*
X76809523Y-34050952D01*
X76761904Y-34098571D01*
X76714285Y-34193809D01*
X76714285Y-34431904D01*
X76761904Y-34527142D01*
X76809523Y-34574761D01*
X76904761Y-34622380D01*
X77142857Y-34622380D01*
X77238095Y-34574761D01*
X77285714Y-34527142D01*
%TO.C,ENC21*%
X187190476Y-49928571D02*
X186857142Y-49928571D01*
X186714285Y-50452380D02*
X187190476Y-50452380D01*
X187190476Y-49452380D01*
X186714285Y-49452380D01*
X186285714Y-50452380D02*
X186285714Y-49452380D01*
X185714285Y-50452380D01*
X185714285Y-49452380D01*
X184666666Y-50357142D02*
X184714285Y-50404761D01*
X184857142Y-50452380D01*
X184952380Y-50452380D01*
X185095238Y-50404761D01*
X185190476Y-50309523D01*
X185238095Y-50214285D01*
X185285714Y-50023809D01*
X185285714Y-49880952D01*
X185238095Y-49690476D01*
X185190476Y-49595238D01*
X185095238Y-49500000D01*
X184952380Y-49452380D01*
X184857142Y-49452380D01*
X184714285Y-49500000D01*
X184666666Y-49547619D01*
X184285714Y-49547619D02*
X184238095Y-49500000D01*
X184142857Y-49452380D01*
X183904761Y-49452380D01*
X183809523Y-49500000D01*
X183761904Y-49547619D01*
X183714285Y-49642857D01*
X183714285Y-49738095D01*
X183761904Y-49880952D01*
X184333333Y-50452380D01*
X183714285Y-50452380D01*
X182761904Y-50452380D02*
X183333333Y-50452380D01*
X183047619Y-50452380D02*
X183047619Y-49452380D01*
X183142857Y-49595238D01*
X183238095Y-49690476D01*
X183333333Y-49738095D01*
%TO.C,R9*%
X48876850Y-32447343D02*
X48400660Y-32114010D01*
X48876850Y-31875914D02*
X47876850Y-31875914D01*
X47876850Y-32256867D01*
X47924470Y-32352105D01*
X47972089Y-32399724D01*
X48067327Y-32447343D01*
X48210184Y-32447343D01*
X48305422Y-32399724D01*
X48353041Y-32352105D01*
X48400660Y-32256867D01*
X48400660Y-31875914D01*
X48876850Y-32923533D02*
X48876850Y-33114010D01*
X48829231Y-33209248D01*
X48781612Y-33256867D01*
X48638755Y-33352105D01*
X48448279Y-33399724D01*
X48067327Y-33399724D01*
X47972089Y-33352105D01*
X47924470Y-33304486D01*
X47876850Y-33209248D01*
X47876850Y-33018771D01*
X47924470Y-32923533D01*
X47972089Y-32875914D01*
X48067327Y-32828295D01*
X48305422Y-32828295D01*
X48400660Y-32875914D01*
X48448279Y-32923533D01*
X48495898Y-33018771D01*
X48495898Y-33209248D01*
X48448279Y-33304486D01*
X48400660Y-33352105D01*
X48305422Y-33399724D01*
%TO.C,C18*%
X66357142Y-49357142D02*
X66404761Y-49309523D01*
X66452380Y-49166666D01*
X66452380Y-49071428D01*
X66404761Y-48928571D01*
X66309523Y-48833333D01*
X66214285Y-48785714D01*
X66023809Y-48738095D01*
X65880952Y-48738095D01*
X65690476Y-48785714D01*
X65595238Y-48833333D01*
X65500000Y-48928571D01*
X65452380Y-49071428D01*
X65452380Y-49166666D01*
X65500000Y-49309523D01*
X65547619Y-49357142D01*
X66452380Y-50309523D02*
X66452380Y-49738095D01*
X66452380Y-50023809D02*
X65452380Y-50023809D01*
X65595238Y-49928571D01*
X65690476Y-49833333D01*
X65738095Y-49738095D01*
X65880952Y-50880952D02*
X65833333Y-50785714D01*
X65785714Y-50738095D01*
X65690476Y-50690476D01*
X65642857Y-50690476D01*
X65547619Y-50738095D01*
X65500000Y-50785714D01*
X65452380Y-50880952D01*
X65452380Y-51071428D01*
X65500000Y-51166666D01*
X65547619Y-51214285D01*
X65642857Y-51261904D01*
X65690476Y-51261904D01*
X65785714Y-51214285D01*
X65833333Y-51166666D01*
X65880952Y-51071428D01*
X65880952Y-50880952D01*
X65928571Y-50785714D01*
X65976190Y-50738095D01*
X66071428Y-50690476D01*
X66261904Y-50690476D01*
X66357142Y-50738095D01*
X66404761Y-50785714D01*
X66452380Y-50880952D01*
X66452380Y-51071428D01*
X66404761Y-51166666D01*
X66357142Y-51214285D01*
X66261904Y-51261904D01*
X66071428Y-51261904D01*
X65976190Y-51214285D01*
X65928571Y-51166666D01*
X65880952Y-51071428D01*
%TO.C,R1*%
X55140067Y-25443862D02*
X55473401Y-24967672D01*
X55711496Y-25443862D02*
X55711496Y-24443862D01*
X55330543Y-24443862D01*
X55235305Y-24491482D01*
X55187686Y-24539101D01*
X55140067Y-24634339D01*
X55140067Y-24777196D01*
X55187686Y-24872434D01*
X55235305Y-24920053D01*
X55330543Y-24967672D01*
X55711496Y-24967672D01*
X54187686Y-25443862D02*
X54759115Y-25443862D01*
X54473401Y-25443862D02*
X54473401Y-24443862D01*
X54568639Y-24586720D01*
X54663877Y-24681958D01*
X54759115Y-24729577D01*
%TO.C,C13*%
X57642857Y-56597142D02*
X57690476Y-56644761D01*
X57833333Y-56692380D01*
X57928571Y-56692380D01*
X58071428Y-56644761D01*
X58166666Y-56549523D01*
X58214285Y-56454285D01*
X58261904Y-56263809D01*
X58261904Y-56120952D01*
X58214285Y-55930476D01*
X58166666Y-55835238D01*
X58071428Y-55740000D01*
X57928571Y-55692380D01*
X57833333Y-55692380D01*
X57690476Y-55740000D01*
X57642857Y-55787619D01*
X56690476Y-56692380D02*
X57261904Y-56692380D01*
X56976190Y-56692380D02*
X56976190Y-55692380D01*
X57071428Y-55835238D01*
X57166666Y-55930476D01*
X57261904Y-55978095D01*
X56357142Y-55692380D02*
X55738095Y-55692380D01*
X56071428Y-56073333D01*
X55928571Y-56073333D01*
X55833333Y-56120952D01*
X55785714Y-56168571D01*
X55738095Y-56263809D01*
X55738095Y-56501904D01*
X55785714Y-56597142D01*
X55833333Y-56644761D01*
X55928571Y-56692380D01*
X56214285Y-56692380D01*
X56309523Y-56644761D01*
X56357142Y-56597142D01*
%TO.C,ENC9*%
X187214285Y-30928571D02*
X186880952Y-30928571D01*
X186738095Y-31452380D02*
X187214285Y-31452380D01*
X187214285Y-30452380D01*
X186738095Y-30452380D01*
X186309523Y-31452380D02*
X186309523Y-30452380D01*
X185738095Y-31452380D01*
X185738095Y-30452380D01*
X184690476Y-31357142D02*
X184738095Y-31404761D01*
X184880952Y-31452380D01*
X184976190Y-31452380D01*
X185119047Y-31404761D01*
X185214285Y-31309523D01*
X185261904Y-31214285D01*
X185309523Y-31023809D01*
X185309523Y-30880952D01*
X185261904Y-30690476D01*
X185214285Y-30595238D01*
X185119047Y-30500000D01*
X184976190Y-30452380D01*
X184880952Y-30452380D01*
X184738095Y-30500000D01*
X184690476Y-30547619D01*
X184214285Y-31452380D02*
X184023809Y-31452380D01*
X183928571Y-31404761D01*
X183880952Y-31357142D01*
X183785714Y-31214285D01*
X183738095Y-31023809D01*
X183738095Y-30642857D01*
X183785714Y-30547619D01*
X183833333Y-30500000D01*
X183928571Y-30452380D01*
X184119047Y-30452380D01*
X184214285Y-30500000D01*
X184261904Y-30547619D01*
X184309523Y-30642857D01*
X184309523Y-30880952D01*
X184261904Y-30976190D01*
X184214285Y-31023809D01*
X184119047Y-31071428D01*
X183928571Y-31071428D01*
X183833333Y-31023809D01*
X183785714Y-30976190D01*
X183738095Y-30880952D01*
%TO.C,ENC34*%
X206190476Y-68928571D02*
X205857142Y-68928571D01*
X205714285Y-69452380D02*
X206190476Y-69452380D01*
X206190476Y-68452380D01*
X205714285Y-68452380D01*
X205285714Y-69452380D02*
X205285714Y-68452380D01*
X204714285Y-69452380D01*
X204714285Y-68452380D01*
X203666666Y-69357142D02*
X203714285Y-69404761D01*
X203857142Y-69452380D01*
X203952380Y-69452380D01*
X204095238Y-69404761D01*
X204190476Y-69309523D01*
X204238095Y-69214285D01*
X204285714Y-69023809D01*
X204285714Y-68880952D01*
X204238095Y-68690476D01*
X204190476Y-68595238D01*
X204095238Y-68500000D01*
X203952380Y-68452380D01*
X203857142Y-68452380D01*
X203714285Y-68500000D01*
X203666666Y-68547619D01*
X203333333Y-68452380D02*
X202714285Y-68452380D01*
X203047619Y-68833333D01*
X202904761Y-68833333D01*
X202809523Y-68880952D01*
X202761904Y-68928571D01*
X202714285Y-69023809D01*
X202714285Y-69261904D01*
X202761904Y-69357142D01*
X202809523Y-69404761D01*
X202904761Y-69452380D01*
X203190476Y-69452380D01*
X203285714Y-69404761D01*
X203333333Y-69357142D01*
X201857142Y-68785714D02*
X201857142Y-69452380D01*
X202095238Y-68404761D02*
X202333333Y-69119047D01*
X201714285Y-69119047D01*
%TO.C,D3*%
X77452380Y-29761904D02*
X76452380Y-29761904D01*
X76452380Y-30000000D01*
X76500000Y-30142857D01*
X76595238Y-30238095D01*
X76690476Y-30285714D01*
X76880952Y-30333333D01*
X77023809Y-30333333D01*
X77214285Y-30285714D01*
X77309523Y-30238095D01*
X77404761Y-30142857D01*
X77452380Y-30000000D01*
X77452380Y-29761904D01*
X76452380Y-30666666D02*
X76452380Y-31285714D01*
X76833333Y-30952380D01*
X76833333Y-31095238D01*
X76880952Y-31190476D01*
X76928571Y-31238095D01*
X77023809Y-31285714D01*
X77261904Y-31285714D01*
X77357142Y-31238095D01*
X77404761Y-31190476D01*
X77452380Y-31095238D01*
X77452380Y-30809523D01*
X77404761Y-30714285D01*
X77357142Y-30666666D01*
%TO.C,ENC7*%
X149214285Y-30928571D02*
X148880952Y-30928571D01*
X148738095Y-31452380D02*
X149214285Y-31452380D01*
X149214285Y-30452380D01*
X148738095Y-30452380D01*
X148309523Y-31452380D02*
X148309523Y-30452380D01*
X147738095Y-31452380D01*
X147738095Y-30452380D01*
X146690476Y-31357142D02*
X146738095Y-31404761D01*
X146880952Y-31452380D01*
X146976190Y-31452380D01*
X147119047Y-31404761D01*
X147214285Y-31309523D01*
X147261904Y-31214285D01*
X147309523Y-31023809D01*
X147309523Y-30880952D01*
X147261904Y-30690476D01*
X147214285Y-30595238D01*
X147119047Y-30500000D01*
X146976190Y-30452380D01*
X146880952Y-30452380D01*
X146738095Y-30500000D01*
X146690476Y-30547619D01*
X146357142Y-30452380D02*
X145690476Y-30452380D01*
X146119047Y-31452380D01*
%TO.C,C17*%
X64857142Y-49357142D02*
X64904761Y-49309523D01*
X64952380Y-49166666D01*
X64952380Y-49071428D01*
X64904761Y-48928571D01*
X64809523Y-48833333D01*
X64714285Y-48785714D01*
X64523809Y-48738095D01*
X64380952Y-48738095D01*
X64190476Y-48785714D01*
X64095238Y-48833333D01*
X64000000Y-48928571D01*
X63952380Y-49071428D01*
X63952380Y-49166666D01*
X64000000Y-49309523D01*
X64047619Y-49357142D01*
X64952380Y-50309523D02*
X64952380Y-49738095D01*
X64952380Y-50023809D02*
X63952380Y-50023809D01*
X64095238Y-49928571D01*
X64190476Y-49833333D01*
X64238095Y-49738095D01*
X63952380Y-50642857D02*
X63952380Y-51309523D01*
X64952380Y-50880952D01*
%TO.C,ENC5*%
X111214285Y-30928571D02*
X110880952Y-30928571D01*
X110738095Y-31452380D02*
X111214285Y-31452380D01*
X111214285Y-30452380D01*
X110738095Y-30452380D01*
X110309523Y-31452380D02*
X110309523Y-30452380D01*
X109738095Y-31452380D01*
X109738095Y-30452380D01*
X108690476Y-31357142D02*
X108738095Y-31404761D01*
X108880952Y-31452380D01*
X108976190Y-31452380D01*
X109119047Y-31404761D01*
X109214285Y-31309523D01*
X109261904Y-31214285D01*
X109309523Y-31023809D01*
X109309523Y-30880952D01*
X109261904Y-30690476D01*
X109214285Y-30595238D01*
X109119047Y-30500000D01*
X108976190Y-30452380D01*
X108880952Y-30452380D01*
X108738095Y-30500000D01*
X108690476Y-30547619D01*
X107785714Y-30452380D02*
X108261904Y-30452380D01*
X108309523Y-30928571D01*
X108261904Y-30880952D01*
X108166666Y-30833333D01*
X107928571Y-30833333D01*
X107833333Y-30880952D01*
X107785714Y-30928571D01*
X107738095Y-31023809D01*
X107738095Y-31261904D01*
X107785714Y-31357142D01*
X107833333Y-31404761D01*
X107928571Y-31452380D01*
X108166666Y-31452380D01*
X108261904Y-31404761D01*
X108309523Y-31357142D01*
%TO.C,D48*%
X248452380Y-86785714D02*
X247452380Y-86785714D01*
X247452380Y-87023809D01*
X247500000Y-87166666D01*
X247595238Y-87261904D01*
X247690476Y-87309523D01*
X247880952Y-87357142D01*
X248023809Y-87357142D01*
X248214285Y-87309523D01*
X248309523Y-87261904D01*
X248404761Y-87166666D01*
X248452380Y-87023809D01*
X248452380Y-86785714D01*
X247785714Y-88214285D02*
X248452380Y-88214285D01*
X247404761Y-87976190D02*
X248119047Y-87738095D01*
X248119047Y-88357142D01*
X247880952Y-88880952D02*
X247833333Y-88785714D01*
X247785714Y-88738095D01*
X247690476Y-88690476D01*
X247642857Y-88690476D01*
X247547619Y-88738095D01*
X247500000Y-88785714D01*
X247452380Y-88880952D01*
X247452380Y-89071428D01*
X247500000Y-89166666D01*
X247547619Y-89214285D01*
X247642857Y-89261904D01*
X247690476Y-89261904D01*
X247785714Y-89214285D01*
X247833333Y-89166666D01*
X247880952Y-89071428D01*
X247880952Y-88880952D01*
X247928571Y-88785714D01*
X247976190Y-88738095D01*
X248071428Y-88690476D01*
X248261904Y-88690476D01*
X248357142Y-88738095D01*
X248404761Y-88785714D01*
X248452380Y-88880952D01*
X248452380Y-89071428D01*
X248404761Y-89166666D01*
X248357142Y-89214285D01*
X248261904Y-89261904D01*
X248071428Y-89261904D01*
X247976190Y-89214285D01*
X247928571Y-89166666D01*
X247880952Y-89071428D01*
%TO.C,C9*%
X68236721Y-56576788D02*
X68284340Y-56624407D01*
X68427197Y-56672026D01*
X68522435Y-56672026D01*
X68665293Y-56624407D01*
X68760531Y-56529169D01*
X68808150Y-56433931D01*
X68855769Y-56243455D01*
X68855769Y-56100598D01*
X68808150Y-55910122D01*
X68760531Y-55814884D01*
X68665293Y-55719646D01*
X68522435Y-55672026D01*
X68427197Y-55672026D01*
X68284340Y-55719646D01*
X68236721Y-55767265D01*
X67760531Y-56672026D02*
X67570055Y-56672026D01*
X67474816Y-56624407D01*
X67427197Y-56576788D01*
X67331959Y-56433931D01*
X67284340Y-56243455D01*
X67284340Y-55862503D01*
X67331959Y-55767265D01*
X67379578Y-55719646D01*
X67474816Y-55672026D01*
X67665293Y-55672026D01*
X67760531Y-55719646D01*
X67808150Y-55767265D01*
X67855769Y-55862503D01*
X67855769Y-56100598D01*
X67808150Y-56195836D01*
X67760531Y-56243455D01*
X67665293Y-56291074D01*
X67474816Y-56291074D01*
X67379578Y-56243455D01*
X67331959Y-56195836D01*
X67284340Y-56100598D01*
%TO.C,ENC48*%
X244190476Y-87928571D02*
X243857142Y-87928571D01*
X243714285Y-88452380D02*
X244190476Y-88452380D01*
X244190476Y-87452380D01*
X243714285Y-87452380D01*
X243285714Y-88452380D02*
X243285714Y-87452380D01*
X242714285Y-88452380D01*
X242714285Y-87452380D01*
X241666666Y-88357142D02*
X241714285Y-88404761D01*
X241857142Y-88452380D01*
X241952380Y-88452380D01*
X242095238Y-88404761D01*
X242190476Y-88309523D01*
X242238095Y-88214285D01*
X242285714Y-88023809D01*
X242285714Y-87880952D01*
X242238095Y-87690476D01*
X242190476Y-87595238D01*
X242095238Y-87500000D01*
X241952380Y-87452380D01*
X241857142Y-87452380D01*
X241714285Y-87500000D01*
X241666666Y-87547619D01*
X240809523Y-87785714D02*
X240809523Y-88452380D01*
X241047619Y-87404761D02*
X241285714Y-88119047D01*
X240666666Y-88119047D01*
X240142857Y-87880952D02*
X240238095Y-87833333D01*
X240285714Y-87785714D01*
X240333333Y-87690476D01*
X240333333Y-87642857D01*
X240285714Y-87547619D01*
X240238095Y-87500000D01*
X240142857Y-87452380D01*
X239952380Y-87452380D01*
X239857142Y-87500000D01*
X239809523Y-87547619D01*
X239761904Y-87642857D01*
X239761904Y-87690476D01*
X239809523Y-87785714D01*
X239857142Y-87833333D01*
X239952380Y-87880952D01*
X240142857Y-87880952D01*
X240238095Y-87928571D01*
X240285714Y-87976190D01*
X240333333Y-88071428D01*
X240333333Y-88261904D01*
X240285714Y-88357142D01*
X240238095Y-88404761D01*
X240142857Y-88452380D01*
X239952380Y-88452380D01*
X239857142Y-88404761D01*
X239809523Y-88357142D01*
X239761904Y-88261904D01*
X239761904Y-88071428D01*
X239809523Y-87976190D01*
X239857142Y-87928571D01*
X239952380Y-87880952D01*
%TO.C,D31*%
X153452380Y-67785714D02*
X152452380Y-67785714D01*
X152452380Y-68023809D01*
X152500000Y-68166666D01*
X152595238Y-68261904D01*
X152690476Y-68309523D01*
X152880952Y-68357142D01*
X153023809Y-68357142D01*
X153214285Y-68309523D01*
X153309523Y-68261904D01*
X153404761Y-68166666D01*
X153452380Y-68023809D01*
X153452380Y-67785714D01*
X152452380Y-68690476D02*
X152452380Y-69309523D01*
X152833333Y-68976190D01*
X152833333Y-69119047D01*
X152880952Y-69214285D01*
X152928571Y-69261904D01*
X153023809Y-69309523D01*
X153261904Y-69309523D01*
X153357142Y-69261904D01*
X153404761Y-69214285D01*
X153452380Y-69119047D01*
X153452380Y-68833333D01*
X153404761Y-68738095D01*
X153357142Y-68690476D01*
X153452380Y-70261904D02*
X153452380Y-69690476D01*
X153452380Y-69976190D02*
X152452380Y-69976190D01*
X152595238Y-69880952D01*
X152690476Y-69785714D01*
X152738095Y-69690476D01*
%TO.C,ENC38*%
X54190476Y-87928571D02*
X53857142Y-87928571D01*
X53714285Y-88452380D02*
X54190476Y-88452380D01*
X54190476Y-87452380D01*
X53714285Y-87452380D01*
X53285714Y-88452380D02*
X53285714Y-87452380D01*
X52714285Y-88452380D01*
X52714285Y-87452380D01*
X51666666Y-88357142D02*
X51714285Y-88404761D01*
X51857142Y-88452380D01*
X51952380Y-88452380D01*
X52095238Y-88404761D01*
X52190476Y-88309523D01*
X52238095Y-88214285D01*
X52285714Y-88023809D01*
X52285714Y-87880952D01*
X52238095Y-87690476D01*
X52190476Y-87595238D01*
X52095238Y-87500000D01*
X51952380Y-87452380D01*
X51857142Y-87452380D01*
X51714285Y-87500000D01*
X51666666Y-87547619D01*
X51333333Y-87452380D02*
X50714285Y-87452380D01*
X51047619Y-87833333D01*
X50904761Y-87833333D01*
X50809523Y-87880952D01*
X50761904Y-87928571D01*
X50714285Y-88023809D01*
X50714285Y-88261904D01*
X50761904Y-88357142D01*
X50809523Y-88404761D01*
X50904761Y-88452380D01*
X51190476Y-88452380D01*
X51285714Y-88404761D01*
X51333333Y-88357142D01*
X50142857Y-87880952D02*
X50238095Y-87833333D01*
X50285714Y-87785714D01*
X50333333Y-87690476D01*
X50333333Y-87642857D01*
X50285714Y-87547619D01*
X50238095Y-87500000D01*
X50142857Y-87452380D01*
X49952380Y-87452380D01*
X49857142Y-87500000D01*
X49809523Y-87547619D01*
X49761904Y-87642857D01*
X49761904Y-87690476D01*
X49809523Y-87785714D01*
X49857142Y-87833333D01*
X49952380Y-87880952D01*
X50142857Y-87880952D01*
X50238095Y-87928571D01*
X50285714Y-87976190D01*
X50333333Y-88071428D01*
X50333333Y-88261904D01*
X50285714Y-88357142D01*
X50238095Y-88404761D01*
X50142857Y-88452380D01*
X49952380Y-88452380D01*
X49857142Y-88404761D01*
X49809523Y-88357142D01*
X49761904Y-88261904D01*
X49761904Y-88071428D01*
X49809523Y-87976190D01*
X49857142Y-87928571D01*
X49952380Y-87880952D01*
%TO.C,D42*%
X134452380Y-86785714D02*
X133452380Y-86785714D01*
X133452380Y-87023809D01*
X133500000Y-87166666D01*
X133595238Y-87261904D01*
X133690476Y-87309523D01*
X133880952Y-87357142D01*
X134023809Y-87357142D01*
X134214285Y-87309523D01*
X134309523Y-87261904D01*
X134404761Y-87166666D01*
X134452380Y-87023809D01*
X134452380Y-86785714D01*
X133785714Y-88214285D02*
X134452380Y-88214285D01*
X133404761Y-87976190D02*
X134119047Y-87738095D01*
X134119047Y-88357142D01*
X133547619Y-88690476D02*
X133500000Y-88738095D01*
X133452380Y-88833333D01*
X133452380Y-89071428D01*
X133500000Y-89166666D01*
X133547619Y-89214285D01*
X133642857Y-89261904D01*
X133738095Y-89261904D01*
X133880952Y-89214285D01*
X134452380Y-88642857D01*
X134452380Y-89261904D01*
%TO.C,U4*%
X61671605Y-29845750D02*
X61671605Y-30655274D01*
X61623986Y-30750512D01*
X61576367Y-30798131D01*
X61481129Y-30845750D01*
X61290653Y-30845750D01*
X61195415Y-30798131D01*
X61147796Y-30750512D01*
X61100177Y-30655274D01*
X61100177Y-29845750D01*
X60195415Y-30179084D02*
X60195415Y-30845750D01*
X60433510Y-29798131D02*
X60671605Y-30512417D01*
X60052558Y-30512417D01*
%TO.C,R4*%
X68452380Y-34570591D02*
X67976190Y-34237258D01*
X68452380Y-33999162D02*
X67452380Y-33999162D01*
X67452380Y-34380115D01*
X67500000Y-34475353D01*
X67547619Y-34522972D01*
X67642857Y-34570591D01*
X67785714Y-34570591D01*
X67880952Y-34522972D01*
X67928571Y-34475353D01*
X67976190Y-34380115D01*
X67976190Y-33999162D01*
X67785714Y-35427734D02*
X68452380Y-35427734D01*
X67404761Y-35189638D02*
X68119047Y-34951543D01*
X68119047Y-35570591D01*
%TO.C,D32*%
X172452380Y-67785714D02*
X171452380Y-67785714D01*
X171452380Y-68023809D01*
X171500000Y-68166666D01*
X171595238Y-68261904D01*
X171690476Y-68309523D01*
X171880952Y-68357142D01*
X172023809Y-68357142D01*
X172214285Y-68309523D01*
X172309523Y-68261904D01*
X172404761Y-68166666D01*
X172452380Y-68023809D01*
X172452380Y-67785714D01*
X171452380Y-68690476D02*
X171452380Y-69309523D01*
X171833333Y-68976190D01*
X171833333Y-69119047D01*
X171880952Y-69214285D01*
X171928571Y-69261904D01*
X172023809Y-69309523D01*
X172261904Y-69309523D01*
X172357142Y-69261904D01*
X172404761Y-69214285D01*
X172452380Y-69119047D01*
X172452380Y-68833333D01*
X172404761Y-68738095D01*
X172357142Y-68690476D01*
X171547619Y-69690476D02*
X171500000Y-69738095D01*
X171452380Y-69833333D01*
X171452380Y-70071428D01*
X171500000Y-70166666D01*
X171547619Y-70214285D01*
X171642857Y-70261904D01*
X171738095Y-70261904D01*
X171880952Y-70214285D01*
X172452380Y-69642857D01*
X172452380Y-70261904D01*
%TO.C,ENC40*%
X92190476Y-87928571D02*
X91857142Y-87928571D01*
X91714285Y-88452380D02*
X92190476Y-88452380D01*
X92190476Y-87452380D01*
X91714285Y-87452380D01*
X91285714Y-88452380D02*
X91285714Y-87452380D01*
X90714285Y-88452380D01*
X90714285Y-87452380D01*
X89666666Y-88357142D02*
X89714285Y-88404761D01*
X89857142Y-88452380D01*
X89952380Y-88452380D01*
X90095238Y-88404761D01*
X90190476Y-88309523D01*
X90238095Y-88214285D01*
X90285714Y-88023809D01*
X90285714Y-87880952D01*
X90238095Y-87690476D01*
X90190476Y-87595238D01*
X90095238Y-87500000D01*
X89952380Y-87452380D01*
X89857142Y-87452380D01*
X89714285Y-87500000D01*
X89666666Y-87547619D01*
X88809523Y-87785714D02*
X88809523Y-88452380D01*
X89047619Y-87404761D02*
X89285714Y-88119047D01*
X88666666Y-88119047D01*
X88095238Y-87452380D02*
X88000000Y-87452380D01*
X87904761Y-87500000D01*
X87857142Y-87547619D01*
X87809523Y-87642857D01*
X87761904Y-87833333D01*
X87761904Y-88071428D01*
X87809523Y-88261904D01*
X87857142Y-88357142D01*
X87904761Y-88404761D01*
X88000000Y-88452380D01*
X88095238Y-88452380D01*
X88190476Y-88404761D01*
X88238095Y-88357142D01*
X88285714Y-88261904D01*
X88333333Y-88071428D01*
X88333333Y-87833333D01*
X88285714Y-87642857D01*
X88238095Y-87547619D01*
X88190476Y-87500000D01*
X88095238Y-87452380D01*
%TO.C,R7*%
X69452380Y-49833333D02*
X68976190Y-49500000D01*
X69452380Y-49261904D02*
X68452380Y-49261904D01*
X68452380Y-49642857D01*
X68500000Y-49738095D01*
X68547619Y-49785714D01*
X68642857Y-49833333D01*
X68785714Y-49833333D01*
X68880952Y-49785714D01*
X68928571Y-49738095D01*
X68976190Y-49642857D01*
X68976190Y-49261904D01*
X68452380Y-50166666D02*
X68452380Y-50833333D01*
X69452380Y-50404761D01*
%TO.C,D25*%
X39452380Y-67785714D02*
X38452380Y-67785714D01*
X38452380Y-68023809D01*
X38500000Y-68166666D01*
X38595238Y-68261904D01*
X38690476Y-68309523D01*
X38880952Y-68357142D01*
X39023809Y-68357142D01*
X39214285Y-68309523D01*
X39309523Y-68261904D01*
X39404761Y-68166666D01*
X39452380Y-68023809D01*
X39452380Y-67785714D01*
X38547619Y-68738095D02*
X38500000Y-68785714D01*
X38452380Y-68880952D01*
X38452380Y-69119047D01*
X38500000Y-69214285D01*
X38547619Y-69261904D01*
X38642857Y-69309523D01*
X38738095Y-69309523D01*
X38880952Y-69261904D01*
X39452380Y-68690476D01*
X39452380Y-69309523D01*
X38452380Y-70214285D02*
X38452380Y-69738095D01*
X38928571Y-69690476D01*
X38880952Y-69738095D01*
X38833333Y-69833333D01*
X38833333Y-70071428D01*
X38880952Y-70166666D01*
X38928571Y-70214285D01*
X39023809Y-70261904D01*
X39261904Y-70261904D01*
X39357142Y-70214285D01*
X39404761Y-70166666D01*
X39452380Y-70071428D01*
X39452380Y-69833333D01*
X39404761Y-69738095D01*
X39357142Y-69690476D01*
%TO.C,D24*%
X248452380Y-48785714D02*
X247452380Y-48785714D01*
X247452380Y-49023809D01*
X247500000Y-49166666D01*
X247595238Y-49261904D01*
X247690476Y-49309523D01*
X247880952Y-49357142D01*
X248023809Y-49357142D01*
X248214285Y-49309523D01*
X248309523Y-49261904D01*
X248404761Y-49166666D01*
X248452380Y-49023809D01*
X248452380Y-48785714D01*
X247547619Y-49738095D02*
X247500000Y-49785714D01*
X247452380Y-49880952D01*
X247452380Y-50119047D01*
X247500000Y-50214285D01*
X247547619Y-50261904D01*
X247642857Y-50309523D01*
X247738095Y-50309523D01*
X247880952Y-50261904D01*
X248452380Y-49690476D01*
X248452380Y-50309523D01*
X247785714Y-51166666D02*
X248452380Y-51166666D01*
X247404761Y-50928571D02*
X248119047Y-50690476D01*
X248119047Y-51309523D01*
%TO.C,D41*%
X115452380Y-86785714D02*
X114452380Y-86785714D01*
X114452380Y-87023809D01*
X114500000Y-87166666D01*
X114595238Y-87261904D01*
X114690476Y-87309523D01*
X114880952Y-87357142D01*
X115023809Y-87357142D01*
X115214285Y-87309523D01*
X115309523Y-87261904D01*
X115404761Y-87166666D01*
X115452380Y-87023809D01*
X115452380Y-86785714D01*
X114785714Y-88214285D02*
X115452380Y-88214285D01*
X114404761Y-87976190D02*
X115119047Y-87738095D01*
X115119047Y-88357142D01*
X115452380Y-89261904D02*
X115452380Y-88690476D01*
X115452380Y-88976190D02*
X114452380Y-88976190D01*
X114595238Y-88880952D01*
X114690476Y-88785714D01*
X114738095Y-88690476D01*
%TO.C,D40*%
X96452380Y-86785714D02*
X95452380Y-86785714D01*
X95452380Y-87023809D01*
X95500000Y-87166666D01*
X95595238Y-87261904D01*
X95690476Y-87309523D01*
X95880952Y-87357142D01*
X96023809Y-87357142D01*
X96214285Y-87309523D01*
X96309523Y-87261904D01*
X96404761Y-87166666D01*
X96452380Y-87023809D01*
X96452380Y-86785714D01*
X95785714Y-88214285D02*
X96452380Y-88214285D01*
X95404761Y-87976190D02*
X96119047Y-87738095D01*
X96119047Y-88357142D01*
X95452380Y-88928571D02*
X95452380Y-89023809D01*
X95500000Y-89119047D01*
X95547619Y-89166666D01*
X95642857Y-89214285D01*
X95833333Y-89261904D01*
X96071428Y-89261904D01*
X96261904Y-89214285D01*
X96357142Y-89166666D01*
X96404761Y-89119047D01*
X96452380Y-89023809D01*
X96452380Y-88928571D01*
X96404761Y-88833333D01*
X96357142Y-88785714D01*
X96261904Y-88738095D01*
X96071428Y-88690476D01*
X95833333Y-88690476D01*
X95642857Y-88738095D01*
X95547619Y-88785714D01*
X95500000Y-88833333D01*
X95452380Y-88928571D01*
%TO.C,ENC14*%
X54190476Y-49928571D02*
X53857142Y-49928571D01*
X53714285Y-50452380D02*
X54190476Y-50452380D01*
X54190476Y-49452380D01*
X53714285Y-49452380D01*
X53285714Y-50452380D02*
X53285714Y-49452380D01*
X52714285Y-50452380D01*
X52714285Y-49452380D01*
X51666666Y-50357142D02*
X51714285Y-50404761D01*
X51857142Y-50452380D01*
X51952380Y-50452380D01*
X52095238Y-50404761D01*
X52190476Y-50309523D01*
X52238095Y-50214285D01*
X52285714Y-50023809D01*
X52285714Y-49880952D01*
X52238095Y-49690476D01*
X52190476Y-49595238D01*
X52095238Y-49500000D01*
X51952380Y-49452380D01*
X51857142Y-49452380D01*
X51714285Y-49500000D01*
X51666666Y-49547619D01*
X50714285Y-50452380D02*
X51285714Y-50452380D01*
X51000000Y-50452380D02*
X51000000Y-49452380D01*
X51095238Y-49595238D01*
X51190476Y-49690476D01*
X51285714Y-49738095D01*
X49857142Y-49785714D02*
X49857142Y-50452380D01*
X50095238Y-49404761D02*
X50333333Y-50119047D01*
X49714285Y-50119047D01*
%TO.C,ENC28*%
X92190476Y-68928571D02*
X91857142Y-68928571D01*
X91714285Y-69452380D02*
X92190476Y-69452380D01*
X92190476Y-68452380D01*
X91714285Y-68452380D01*
X91285714Y-69452380D02*
X91285714Y-68452380D01*
X90714285Y-69452380D01*
X90714285Y-68452380D01*
X89666666Y-69357142D02*
X89714285Y-69404761D01*
X89857142Y-69452380D01*
X89952380Y-69452380D01*
X90095238Y-69404761D01*
X90190476Y-69309523D01*
X90238095Y-69214285D01*
X90285714Y-69023809D01*
X90285714Y-68880952D01*
X90238095Y-68690476D01*
X90190476Y-68595238D01*
X90095238Y-68500000D01*
X89952380Y-68452380D01*
X89857142Y-68452380D01*
X89714285Y-68500000D01*
X89666666Y-68547619D01*
X89285714Y-68547619D02*
X89238095Y-68500000D01*
X89142857Y-68452380D01*
X88904761Y-68452380D01*
X88809523Y-68500000D01*
X88761904Y-68547619D01*
X88714285Y-68642857D01*
X88714285Y-68738095D01*
X88761904Y-68880952D01*
X89333333Y-69452380D01*
X88714285Y-69452380D01*
X88142857Y-68880952D02*
X88238095Y-68833333D01*
X88285714Y-68785714D01*
X88333333Y-68690476D01*
X88333333Y-68642857D01*
X88285714Y-68547619D01*
X88238095Y-68500000D01*
X88142857Y-68452380D01*
X87952380Y-68452380D01*
X87857142Y-68500000D01*
X87809523Y-68547619D01*
X87761904Y-68642857D01*
X87761904Y-68690476D01*
X87809523Y-68785714D01*
X87857142Y-68833333D01*
X87952380Y-68880952D01*
X88142857Y-68880952D01*
X88238095Y-68928571D01*
X88285714Y-68976190D01*
X88333333Y-69071428D01*
X88333333Y-69261904D01*
X88285714Y-69357142D01*
X88238095Y-69404761D01*
X88142857Y-69452380D01*
X87952380Y-69452380D01*
X87857142Y-69404761D01*
X87809523Y-69357142D01*
X87761904Y-69261904D01*
X87761904Y-69071428D01*
X87809523Y-68976190D01*
X87857142Y-68928571D01*
X87952380Y-68880952D01*
%TO.C,D8*%
X172452380Y-29761904D02*
X171452380Y-29761904D01*
X171452380Y-30000000D01*
X171500000Y-30142857D01*
X171595238Y-30238095D01*
X171690476Y-30285714D01*
X171880952Y-30333333D01*
X172023809Y-30333333D01*
X172214285Y-30285714D01*
X172309523Y-30238095D01*
X172404761Y-30142857D01*
X172452380Y-30000000D01*
X172452380Y-29761904D01*
X171880952Y-30904761D02*
X171833333Y-30809523D01*
X171785714Y-30761904D01*
X171690476Y-30714285D01*
X171642857Y-30714285D01*
X171547619Y-30761904D01*
X171500000Y-30809523D01*
X171452380Y-30904761D01*
X171452380Y-31095238D01*
X171500000Y-31190476D01*
X171547619Y-31238095D01*
X171642857Y-31285714D01*
X171690476Y-31285714D01*
X171785714Y-31238095D01*
X171833333Y-31190476D01*
X171880952Y-31095238D01*
X171880952Y-30904761D01*
X171928571Y-30809523D01*
X171976190Y-30761904D01*
X172071428Y-30714285D01*
X172261904Y-30714285D01*
X172357142Y-30761904D01*
X172404761Y-30809523D01*
X172452380Y-30904761D01*
X172452380Y-31095238D01*
X172404761Y-31190476D01*
X172357142Y-31238095D01*
X172261904Y-31285714D01*
X172071428Y-31285714D01*
X171976190Y-31238095D01*
X171928571Y-31190476D01*
X171880952Y-31095238D01*
%TO.C,ENC31*%
X149190476Y-68928571D02*
X148857142Y-68928571D01*
X148714285Y-69452380D02*
X149190476Y-69452380D01*
X149190476Y-68452380D01*
X148714285Y-68452380D01*
X148285714Y-69452380D02*
X148285714Y-68452380D01*
X147714285Y-69452380D01*
X147714285Y-68452380D01*
X146666666Y-69357142D02*
X146714285Y-69404761D01*
X146857142Y-69452380D01*
X146952380Y-69452380D01*
X147095238Y-69404761D01*
X147190476Y-69309523D01*
X147238095Y-69214285D01*
X147285714Y-69023809D01*
X147285714Y-68880952D01*
X147238095Y-68690476D01*
X147190476Y-68595238D01*
X147095238Y-68500000D01*
X146952380Y-68452380D01*
X146857142Y-68452380D01*
X146714285Y-68500000D01*
X146666666Y-68547619D01*
X146333333Y-68452380D02*
X145714285Y-68452380D01*
X146047619Y-68833333D01*
X145904761Y-68833333D01*
X145809523Y-68880952D01*
X145761904Y-68928571D01*
X145714285Y-69023809D01*
X145714285Y-69261904D01*
X145761904Y-69357142D01*
X145809523Y-69404761D01*
X145904761Y-69452380D01*
X146190476Y-69452380D01*
X146285714Y-69404761D01*
X146333333Y-69357142D01*
X144761904Y-69452380D02*
X145333333Y-69452380D01*
X145047619Y-69452380D02*
X145047619Y-68452380D01*
X145142857Y-68595238D01*
X145238095Y-68690476D01*
X145333333Y-68738095D01*
%TO.C,D47*%
X229452380Y-86785714D02*
X228452380Y-86785714D01*
X228452380Y-87023809D01*
X228500000Y-87166666D01*
X228595238Y-87261904D01*
X228690476Y-87309523D01*
X228880952Y-87357142D01*
X229023809Y-87357142D01*
X229214285Y-87309523D01*
X229309523Y-87261904D01*
X229404761Y-87166666D01*
X229452380Y-87023809D01*
X229452380Y-86785714D01*
X228785714Y-88214285D02*
X229452380Y-88214285D01*
X228404761Y-87976190D02*
X229119047Y-87738095D01*
X229119047Y-88357142D01*
X228452380Y-88642857D02*
X228452380Y-89309523D01*
X229452380Y-88880952D01*
%TO.C,D33*%
X191452380Y-67785714D02*
X190452380Y-67785714D01*
X190452380Y-68023809D01*
X190500000Y-68166666D01*
X190595238Y-68261904D01*
X190690476Y-68309523D01*
X190880952Y-68357142D01*
X191023809Y-68357142D01*
X191214285Y-68309523D01*
X191309523Y-68261904D01*
X191404761Y-68166666D01*
X191452380Y-68023809D01*
X191452380Y-67785714D01*
X190452380Y-68690476D02*
X190452380Y-69309523D01*
X190833333Y-68976190D01*
X190833333Y-69119047D01*
X190880952Y-69214285D01*
X190928571Y-69261904D01*
X191023809Y-69309523D01*
X191261904Y-69309523D01*
X191357142Y-69261904D01*
X191404761Y-69214285D01*
X191452380Y-69119047D01*
X191452380Y-68833333D01*
X191404761Y-68738095D01*
X191357142Y-68690476D01*
X190452380Y-69642857D02*
X190452380Y-70261904D01*
X190833333Y-69928571D01*
X190833333Y-70071428D01*
X190880952Y-70166666D01*
X190928571Y-70214285D01*
X191023809Y-70261904D01*
X191261904Y-70261904D01*
X191357142Y-70214285D01*
X191404761Y-70166666D01*
X191452380Y-70071428D01*
X191452380Y-69785714D01*
X191404761Y-69690476D01*
X191357142Y-69642857D01*
%TO.C,D20*%
X172452380Y-48785714D02*
X171452380Y-48785714D01*
X171452380Y-49023809D01*
X171500000Y-49166666D01*
X171595238Y-49261904D01*
X171690476Y-49309523D01*
X171880952Y-49357142D01*
X172023809Y-49357142D01*
X172214285Y-49309523D01*
X172309523Y-49261904D01*
X172404761Y-49166666D01*
X172452380Y-49023809D01*
X172452380Y-48785714D01*
X171547619Y-49738095D02*
X171500000Y-49785714D01*
X171452380Y-49880952D01*
X171452380Y-50119047D01*
X171500000Y-50214285D01*
X171547619Y-50261904D01*
X171642857Y-50309523D01*
X171738095Y-50309523D01*
X171880952Y-50261904D01*
X172452380Y-49690476D01*
X172452380Y-50309523D01*
X171452380Y-50928571D02*
X171452380Y-51023809D01*
X171500000Y-51119047D01*
X171547619Y-51166666D01*
X171642857Y-51214285D01*
X171833333Y-51261904D01*
X172071428Y-51261904D01*
X172261904Y-51214285D01*
X172357142Y-51166666D01*
X172404761Y-51119047D01*
X172452380Y-51023809D01*
X172452380Y-50928571D01*
X172404761Y-50833333D01*
X172357142Y-50785714D01*
X172261904Y-50738095D01*
X172071428Y-50690476D01*
X171833333Y-50690476D01*
X171642857Y-50738095D01*
X171547619Y-50785714D01*
X171500000Y-50833333D01*
X171452380Y-50928571D01*
%TO.C,D29*%
X115452380Y-67785714D02*
X114452380Y-67785714D01*
X114452380Y-68023809D01*
X114500000Y-68166666D01*
X114595238Y-68261904D01*
X114690476Y-68309523D01*
X114880952Y-68357142D01*
X115023809Y-68357142D01*
X115214285Y-68309523D01*
X115309523Y-68261904D01*
X115404761Y-68166666D01*
X115452380Y-68023809D01*
X115452380Y-67785714D01*
X114547619Y-68738095D02*
X114500000Y-68785714D01*
X114452380Y-68880952D01*
X114452380Y-69119047D01*
X114500000Y-69214285D01*
X114547619Y-69261904D01*
X114642857Y-69309523D01*
X114738095Y-69309523D01*
X114880952Y-69261904D01*
X115452380Y-68690476D01*
X115452380Y-69309523D01*
X115452380Y-69785714D02*
X115452380Y-69976190D01*
X115404761Y-70071428D01*
X115357142Y-70119047D01*
X115214285Y-70214285D01*
X115023809Y-70261904D01*
X114642857Y-70261904D01*
X114547619Y-70214285D01*
X114500000Y-70166666D01*
X114452380Y-70071428D01*
X114452380Y-69880952D01*
X114500000Y-69785714D01*
X114547619Y-69738095D01*
X114642857Y-69690476D01*
X114880952Y-69690476D01*
X114976190Y-69738095D01*
X115023809Y-69785714D01*
X115071428Y-69880952D01*
X115071428Y-70071428D01*
X115023809Y-70166666D01*
X114976190Y-70214285D01*
X114880952Y-70261904D01*
%TO.C,ENC27*%
X73190476Y-68928571D02*
X72857142Y-68928571D01*
X72714285Y-69452380D02*
X73190476Y-69452380D01*
X73190476Y-68452380D01*
X72714285Y-68452380D01*
X72285714Y-69452380D02*
X72285714Y-68452380D01*
X71714285Y-69452380D01*
X71714285Y-68452380D01*
X70666666Y-69357142D02*
X70714285Y-69404761D01*
X70857142Y-69452380D01*
X70952380Y-69452380D01*
X71095238Y-69404761D01*
X71190476Y-69309523D01*
X71238095Y-69214285D01*
X71285714Y-69023809D01*
X71285714Y-68880952D01*
X71238095Y-68690476D01*
X71190476Y-68595238D01*
X71095238Y-68500000D01*
X70952380Y-68452380D01*
X70857142Y-68452380D01*
X70714285Y-68500000D01*
X70666666Y-68547619D01*
X70285714Y-68547619D02*
X70238095Y-68500000D01*
X70142857Y-68452380D01*
X69904761Y-68452380D01*
X69809523Y-68500000D01*
X69761904Y-68547619D01*
X69714285Y-68642857D01*
X69714285Y-68738095D01*
X69761904Y-68880952D01*
X70333333Y-69452380D01*
X69714285Y-69452380D01*
X69380952Y-68452380D02*
X68714285Y-68452380D01*
X69142857Y-69452380D01*
%TO.C,U3*%
X63295264Y-51156009D02*
X63295264Y-51965533D01*
X63247645Y-52060771D01*
X63200026Y-52108390D01*
X63104788Y-52156009D01*
X62914312Y-52156009D01*
X62819074Y-52108390D01*
X62771455Y-52060771D01*
X62723836Y-51965533D01*
X62723836Y-51156009D01*
X62342883Y-51156009D02*
X61723836Y-51156009D01*
X62057169Y-51536962D01*
X61914312Y-51536962D01*
X61819074Y-51584581D01*
X61771455Y-51632200D01*
X61723836Y-51727438D01*
X61723836Y-51965533D01*
X61771455Y-52060771D01*
X61819074Y-52108390D01*
X61914312Y-52156009D01*
X62200026Y-52156009D01*
X62295264Y-52108390D01*
X62342883Y-52060771D01*
%TO.C,D2*%
X58452380Y-29761904D02*
X57452380Y-29761904D01*
X57452380Y-30000000D01*
X57500000Y-30142857D01*
X57595238Y-30238095D01*
X57690476Y-30285714D01*
X57880952Y-30333333D01*
X58023809Y-30333333D01*
X58214285Y-30285714D01*
X58309523Y-30238095D01*
X58404761Y-30142857D01*
X58452380Y-30000000D01*
X58452380Y-29761904D01*
X57547619Y-30714285D02*
X57500000Y-30761904D01*
X57452380Y-30857142D01*
X57452380Y-31095238D01*
X57500000Y-31190476D01*
X57547619Y-31238095D01*
X57642857Y-31285714D01*
X57738095Y-31285714D01*
X57880952Y-31238095D01*
X58452380Y-30666666D01*
X58452380Y-31285714D01*
%TO.C,D15*%
X77452380Y-48785714D02*
X76452380Y-48785714D01*
X76452380Y-49023809D01*
X76500000Y-49166666D01*
X76595238Y-49261904D01*
X76690476Y-49309523D01*
X76880952Y-49357142D01*
X77023809Y-49357142D01*
X77214285Y-49309523D01*
X77309523Y-49261904D01*
X77404761Y-49166666D01*
X77452380Y-49023809D01*
X77452380Y-48785714D01*
X77452380Y-50309523D02*
X77452380Y-49738095D01*
X77452380Y-50023809D02*
X76452380Y-50023809D01*
X76595238Y-49928571D01*
X76690476Y-49833333D01*
X76738095Y-49738095D01*
X76452380Y-51214285D02*
X76452380Y-50738095D01*
X76928571Y-50690476D01*
X76880952Y-50738095D01*
X76833333Y-50833333D01*
X76833333Y-51071428D01*
X76880952Y-51166666D01*
X76928571Y-51214285D01*
X77023809Y-51261904D01*
X77261904Y-51261904D01*
X77357142Y-51214285D01*
X77404761Y-51166666D01*
X77452380Y-51071428D01*
X77452380Y-50833333D01*
X77404761Y-50738095D01*
X77357142Y-50690476D01*
%TO.C,ENC35*%
X225190476Y-68928571D02*
X224857142Y-68928571D01*
X224714285Y-69452380D02*
X225190476Y-69452380D01*
X225190476Y-68452380D01*
X224714285Y-68452380D01*
X224285714Y-69452380D02*
X224285714Y-68452380D01*
X223714285Y-69452380D01*
X223714285Y-68452380D01*
X222666666Y-69357142D02*
X222714285Y-69404761D01*
X222857142Y-69452380D01*
X222952380Y-69452380D01*
X223095238Y-69404761D01*
X223190476Y-69309523D01*
X223238095Y-69214285D01*
X223285714Y-69023809D01*
X223285714Y-68880952D01*
X223238095Y-68690476D01*
X223190476Y-68595238D01*
X223095238Y-68500000D01*
X222952380Y-68452380D01*
X222857142Y-68452380D01*
X222714285Y-68500000D01*
X222666666Y-68547619D01*
X222333333Y-68452380D02*
X221714285Y-68452380D01*
X222047619Y-68833333D01*
X221904761Y-68833333D01*
X221809523Y-68880952D01*
X221761904Y-68928571D01*
X221714285Y-69023809D01*
X221714285Y-69261904D01*
X221761904Y-69357142D01*
X221809523Y-69404761D01*
X221904761Y-69452380D01*
X222190476Y-69452380D01*
X222285714Y-69404761D01*
X222333333Y-69357142D01*
X220809523Y-68452380D02*
X221285714Y-68452380D01*
X221333333Y-68928571D01*
X221285714Y-68880952D01*
X221190476Y-68833333D01*
X220952380Y-68833333D01*
X220857142Y-68880952D01*
X220809523Y-68928571D01*
X220761904Y-69023809D01*
X220761904Y-69261904D01*
X220809523Y-69357142D01*
X220857142Y-69404761D01*
X220952380Y-69452380D01*
X221190476Y-69452380D01*
X221285714Y-69404761D01*
X221333333Y-69357142D01*
%TO.C,ENC10*%
X206190476Y-30928571D02*
X205857142Y-30928571D01*
X205714285Y-31452380D02*
X206190476Y-31452380D01*
X206190476Y-30452380D01*
X205714285Y-30452380D01*
X205285714Y-31452380D02*
X205285714Y-30452380D01*
X204714285Y-31452380D01*
X204714285Y-30452380D01*
X203666666Y-31357142D02*
X203714285Y-31404761D01*
X203857142Y-31452380D01*
X203952380Y-31452380D01*
X204095238Y-31404761D01*
X204190476Y-31309523D01*
X204238095Y-31214285D01*
X204285714Y-31023809D01*
X204285714Y-30880952D01*
X204238095Y-30690476D01*
X204190476Y-30595238D01*
X204095238Y-30500000D01*
X203952380Y-30452380D01*
X203857142Y-30452380D01*
X203714285Y-30500000D01*
X203666666Y-30547619D01*
X202714285Y-31452380D02*
X203285714Y-31452380D01*
X203000000Y-31452380D02*
X203000000Y-30452380D01*
X203095238Y-30595238D01*
X203190476Y-30690476D01*
X203285714Y-30738095D01*
X202095238Y-30452380D02*
X202000000Y-30452380D01*
X201904761Y-30500000D01*
X201857142Y-30547619D01*
X201809523Y-30642857D01*
X201761904Y-30833333D01*
X201761904Y-31071428D01*
X201809523Y-31261904D01*
X201857142Y-31357142D01*
X201904761Y-31404761D01*
X202000000Y-31452380D01*
X202095238Y-31452380D01*
X202190476Y-31404761D01*
X202238095Y-31357142D01*
X202285714Y-31261904D01*
X202333333Y-31071428D01*
X202333333Y-30833333D01*
X202285714Y-30642857D01*
X202238095Y-30547619D01*
X202190476Y-30500000D01*
X202095238Y-30452380D01*
%TO.C,D17*%
X115452380Y-48785714D02*
X114452380Y-48785714D01*
X114452380Y-49023809D01*
X114500000Y-49166666D01*
X114595238Y-49261904D01*
X114690476Y-49309523D01*
X114880952Y-49357142D01*
X115023809Y-49357142D01*
X115214285Y-49309523D01*
X115309523Y-49261904D01*
X115404761Y-49166666D01*
X115452380Y-49023809D01*
X115452380Y-48785714D01*
X115452380Y-50309523D02*
X115452380Y-49738095D01*
X115452380Y-50023809D02*
X114452380Y-50023809D01*
X114595238Y-49928571D01*
X114690476Y-49833333D01*
X114738095Y-49738095D01*
X114452380Y-50642857D02*
X114452380Y-51309523D01*
X115452380Y-50880952D01*
%TO.C,D6*%
X134452380Y-29761904D02*
X133452380Y-29761904D01*
X133452380Y-30000000D01*
X133500000Y-30142857D01*
X133595238Y-30238095D01*
X133690476Y-30285714D01*
X133880952Y-30333333D01*
X134023809Y-30333333D01*
X134214285Y-30285714D01*
X134309523Y-30238095D01*
X134404761Y-30142857D01*
X134452380Y-30000000D01*
X134452380Y-29761904D01*
X133452380Y-31190476D02*
X133452380Y-31000000D01*
X133500000Y-30904761D01*
X133547619Y-30857142D01*
X133690476Y-30761904D01*
X133880952Y-30714285D01*
X134261904Y-30714285D01*
X134357142Y-30761904D01*
X134404761Y-30809523D01*
X134452380Y-30904761D01*
X134452380Y-31095238D01*
X134404761Y-31190476D01*
X134357142Y-31238095D01*
X134261904Y-31285714D01*
X134023809Y-31285714D01*
X133928571Y-31238095D01*
X133880952Y-31190476D01*
X133833333Y-31095238D01*
X133833333Y-30904761D01*
X133880952Y-30809523D01*
X133928571Y-30761904D01*
X134023809Y-30714285D01*
%TO.C,C7*%
X60957142Y-61933333D02*
X61004761Y-61885714D01*
X61052380Y-61742857D01*
X61052380Y-61647619D01*
X61004761Y-61504761D01*
X60909523Y-61409523D01*
X60814285Y-61361904D01*
X60623809Y-61314285D01*
X60480952Y-61314285D01*
X60290476Y-61361904D01*
X60195238Y-61409523D01*
X60100000Y-61504761D01*
X60052380Y-61647619D01*
X60052380Y-61742857D01*
X60100000Y-61885714D01*
X60147619Y-61933333D01*
X60052380Y-62266666D02*
X60052380Y-62933333D01*
X61052380Y-62504761D01*
%TO.C,D7*%
X153452380Y-29761904D02*
X152452380Y-29761904D01*
X152452380Y-30000000D01*
X152500000Y-30142857D01*
X152595238Y-30238095D01*
X152690476Y-30285714D01*
X152880952Y-30333333D01*
X153023809Y-30333333D01*
X153214285Y-30285714D01*
X153309523Y-30238095D01*
X153404761Y-30142857D01*
X153452380Y-30000000D01*
X153452380Y-29761904D01*
X152452380Y-30666666D02*
X152452380Y-31333333D01*
X153452380Y-30904761D01*
%TO.C,C15*%
X63842857Y-45417142D02*
X63890476Y-45464761D01*
X64033333Y-45512380D01*
X64128571Y-45512380D01*
X64271428Y-45464761D01*
X64366666Y-45369523D01*
X64414285Y-45274285D01*
X64461904Y-45083809D01*
X64461904Y-44940952D01*
X64414285Y-44750476D01*
X64366666Y-44655238D01*
X64271428Y-44560000D01*
X64128571Y-44512380D01*
X64033333Y-44512380D01*
X63890476Y-44560000D01*
X63842857Y-44607619D01*
X62890476Y-45512380D02*
X63461904Y-45512380D01*
X63176190Y-45512380D02*
X63176190Y-44512380D01*
X63271428Y-44655238D01*
X63366666Y-44750476D01*
X63461904Y-44798095D01*
X61985714Y-44512380D02*
X62461904Y-44512380D01*
X62509523Y-44988571D01*
X62461904Y-44940952D01*
X62366666Y-44893333D01*
X62128571Y-44893333D01*
X62033333Y-44940952D01*
X61985714Y-44988571D01*
X61938095Y-45083809D01*
X61938095Y-45321904D01*
X61985714Y-45417142D01*
X62033333Y-45464761D01*
X62128571Y-45512380D01*
X62366666Y-45512380D01*
X62461904Y-45464761D01*
X62509523Y-45417142D01*
%TO.C,C3*%
X53291292Y-25247519D02*
X53338911Y-25295138D01*
X53481768Y-25342757D01*
X53577006Y-25342757D01*
X53719864Y-25295138D01*
X53815102Y-25199900D01*
X53862721Y-25104662D01*
X53910340Y-24914186D01*
X53910340Y-24771329D01*
X53862721Y-24580853D01*
X53815102Y-24485615D01*
X53719864Y-24390377D01*
X53577006Y-24342757D01*
X53481768Y-24342757D01*
X53338911Y-24390377D01*
X53291292Y-24437996D01*
X52957959Y-24342757D02*
X52338911Y-24342757D01*
X52672245Y-24723710D01*
X52529387Y-24723710D01*
X52434149Y-24771329D01*
X52386530Y-24818948D01*
X52338911Y-24914186D01*
X52338911Y-25152281D01*
X52386530Y-25247519D01*
X52434149Y-25295138D01*
X52529387Y-25342757D01*
X52815102Y-25342757D01*
X52910340Y-25295138D01*
X52957959Y-25247519D01*
%TO.C,ENC16*%
X92190476Y-49928571D02*
X91857142Y-49928571D01*
X91714285Y-50452380D02*
X92190476Y-50452380D01*
X92190476Y-49452380D01*
X91714285Y-49452380D01*
X91285714Y-50452380D02*
X91285714Y-49452380D01*
X90714285Y-50452380D01*
X90714285Y-49452380D01*
X89666666Y-50357142D02*
X89714285Y-50404761D01*
X89857142Y-50452380D01*
X89952380Y-50452380D01*
X90095238Y-50404761D01*
X90190476Y-50309523D01*
X90238095Y-50214285D01*
X90285714Y-50023809D01*
X90285714Y-49880952D01*
X90238095Y-49690476D01*
X90190476Y-49595238D01*
X90095238Y-49500000D01*
X89952380Y-49452380D01*
X89857142Y-49452380D01*
X89714285Y-49500000D01*
X89666666Y-49547619D01*
X88714285Y-50452380D02*
X89285714Y-50452380D01*
X89000000Y-50452380D02*
X89000000Y-49452380D01*
X89095238Y-49595238D01*
X89190476Y-49690476D01*
X89285714Y-49738095D01*
X87857142Y-49452380D02*
X88047619Y-49452380D01*
X88142857Y-49500000D01*
X88190476Y-49547619D01*
X88285714Y-49690476D01*
X88333333Y-49880952D01*
X88333333Y-50261904D01*
X88285714Y-50357142D01*
X88238095Y-50404761D01*
X88142857Y-50452380D01*
X87952380Y-50452380D01*
X87857142Y-50404761D01*
X87809523Y-50357142D01*
X87761904Y-50261904D01*
X87761904Y-50023809D01*
X87809523Y-49928571D01*
X87857142Y-49880952D01*
X87952380Y-49833333D01*
X88142857Y-49833333D01*
X88238095Y-49880952D01*
X88285714Y-49928571D01*
X88333333Y-50023809D01*
%TO.C,D46*%
X210452380Y-86785714D02*
X209452380Y-86785714D01*
X209452380Y-87023809D01*
X209500000Y-87166666D01*
X209595238Y-87261904D01*
X209690476Y-87309523D01*
X209880952Y-87357142D01*
X210023809Y-87357142D01*
X210214285Y-87309523D01*
X210309523Y-87261904D01*
X210404761Y-87166666D01*
X210452380Y-87023809D01*
X210452380Y-86785714D01*
X209785714Y-88214285D02*
X210452380Y-88214285D01*
X209404761Y-87976190D02*
X210119047Y-87738095D01*
X210119047Y-88357142D01*
X209452380Y-89166666D02*
X209452380Y-88976190D01*
X209500000Y-88880952D01*
X209547619Y-88833333D01*
X209690476Y-88738095D01*
X209880952Y-88690476D01*
X210261904Y-88690476D01*
X210357142Y-88738095D01*
X210404761Y-88785714D01*
X210452380Y-88880952D01*
X210452380Y-89071428D01*
X210404761Y-89166666D01*
X210357142Y-89214285D01*
X210261904Y-89261904D01*
X210023809Y-89261904D01*
X209928571Y-89214285D01*
X209880952Y-89166666D01*
X209833333Y-89071428D01*
X209833333Y-88880952D01*
X209880952Y-88785714D01*
X209928571Y-88738095D01*
X210023809Y-88690476D01*
D11*
%TO.C,PCB1*%
X81752400Y-37028300D02*
X81152400Y-37028300D01*
X81581000Y-37228300D02*
X81152400Y-37428300D01*
X81152400Y-37428300D02*
X81752400Y-37428300D01*
X81752400Y-37856900D02*
X81152400Y-37856900D01*
X81152400Y-37028300D02*
X81581000Y-37228300D01*
D12*
%TO.C,ENC36*%
X243000000Y-66500000D02*
X243000000Y-65500000D01*
X243500000Y-66000000D02*
X242500000Y-66000000D01*
%TO.C,ENC33*%
X186000000Y-66500000D02*
X186000000Y-65500000D01*
X186500000Y-66000000D02*
X185500000Y-66000000D01*
%TO.C,ENC11*%
X224000000Y-28500000D02*
X224000000Y-27500000D01*
X224500000Y-28000000D02*
X223500000Y-28000000D01*
%TO.C,ENC12*%
X243500000Y-28000000D02*
X242500000Y-28000000D01*
X243000000Y-28500000D02*
X243000000Y-27500000D01*
%TO.C,D44*%
X169100000Y-89250000D02*
X169100000Y-85350000D01*
X171100000Y-89250000D02*
X169100000Y-89250000D01*
X171100000Y-89250000D02*
X171100000Y-85350000D01*
%TO.C,D9*%
X188100000Y-32250000D02*
X188100000Y-28350000D01*
X190100000Y-32250000D02*
X188100000Y-32250000D01*
X190100000Y-32250000D02*
X190100000Y-28350000D01*
%TO.C,ENC37*%
X34500000Y-85000000D02*
X33500000Y-85000000D01*
X34000000Y-85500000D02*
X34000000Y-84500000D01*
%TO.C,ENC15*%
X72500000Y-47000000D02*
X71500000Y-47000000D01*
X72000000Y-47500000D02*
X72000000Y-46500000D01*
%TO.C,D28*%
X95100000Y-70250000D02*
X95100000Y-66350000D01*
X93100000Y-70250000D02*
X93100000Y-66350000D01*
X95100000Y-70250000D02*
X93100000Y-70250000D01*
%TO.C,C10*%
X61133450Y-64402830D02*
X61133450Y-64618502D01*
X61853450Y-64402830D02*
X61853450Y-64618502D01*
%TO.C,ENC8*%
X167500000Y-28000000D02*
X166500000Y-28000000D01*
X167000000Y-28500000D02*
X167000000Y-27500000D01*
%TO.C,ENC41*%
X110500000Y-85000000D02*
X109500000Y-85000000D01*
X110000000Y-85500000D02*
X110000000Y-84500000D01*
%TO.C,ENC17*%
X110000000Y-47500000D02*
X110000000Y-46500000D01*
X110500000Y-47000000D02*
X109500000Y-47000000D01*
%TO.C,D4*%
X95100000Y-32250000D02*
X93100000Y-32250000D01*
X95100000Y-32250000D02*
X95100000Y-28350000D01*
X93100000Y-32250000D02*
X93100000Y-28350000D01*
%TO.C,D1*%
X38100000Y-32250000D02*
X36100000Y-32250000D01*
X36100000Y-32250000D02*
X36100000Y-28350000D01*
X38100000Y-32250000D02*
X38100000Y-28350000D01*
%TO.C,C14*%
X68392164Y-52360000D02*
X68607836Y-52360000D01*
X68392164Y-51640000D02*
X68607836Y-51640000D01*
%TO.C,ENC2*%
X53500000Y-28000000D02*
X52500000Y-28000000D01*
X53000000Y-28500000D02*
X53000000Y-27500000D01*
%TO.C,ENC47*%
X224000000Y-85500000D02*
X224000000Y-84500000D01*
X224500000Y-85000000D02*
X223500000Y-85000000D01*
%TO.C,D23*%
X228100000Y-51250000D02*
X226100000Y-51250000D01*
X226100000Y-51250000D02*
X226100000Y-47350000D01*
X228100000Y-51250000D02*
X228100000Y-47350000D01*
%TO.C,ENC42*%
X129500000Y-85000000D02*
X128500000Y-85000000D01*
X129000000Y-85500000D02*
X129000000Y-84500000D01*
%TO.C,D45*%
X188100000Y-89250000D02*
X188100000Y-85350000D01*
X190100000Y-89250000D02*
X190100000Y-85350000D01*
X190100000Y-89250000D02*
X188100000Y-89250000D01*
%TO.C,C4*%
X59407836Y-35340000D02*
X59192164Y-35340000D01*
X59407836Y-36060000D02*
X59192164Y-36060000D01*
%TO.C,D43*%
X152100000Y-89250000D02*
X152100000Y-85350000D01*
X150100000Y-89250000D02*
X150100000Y-85350000D01*
X152100000Y-89250000D02*
X150100000Y-89250000D01*
%TO.C,D38*%
X57100000Y-89250000D02*
X55100000Y-89250000D01*
X55100000Y-89250000D02*
X55100000Y-85350000D01*
X57100000Y-89250000D02*
X57100000Y-85350000D01*
%TO.C,ENC25*%
X34500000Y-66000000D02*
X33500000Y-66000000D01*
X34000000Y-66500000D02*
X34000000Y-65500000D01*
%TO.C,R3*%
X56220000Y-25553641D02*
X56220000Y-25246359D01*
X56980000Y-25553641D02*
X56980000Y-25246359D01*
%TO.C,ENC45*%
X186500000Y-85000000D02*
X185500000Y-85000000D01*
X186000000Y-85500000D02*
X186000000Y-84500000D01*
%TO.C,R8*%
X62880000Y-64664307D02*
X62880000Y-64357025D01*
X62120000Y-64664307D02*
X62120000Y-64357025D01*
%TO.C,D16*%
X95100000Y-51250000D02*
X93100000Y-51250000D01*
X93100000Y-51250000D02*
X93100000Y-47350000D01*
X95100000Y-51250000D02*
X95100000Y-47350000D01*
%TO.C,C6*%
X63365614Y-66370666D02*
X63581286Y-66370666D01*
X63365614Y-65650666D02*
X63581286Y-65650666D01*
%TO.C,D11*%
X226100000Y-32250000D02*
X226100000Y-28350000D01*
X228100000Y-32250000D02*
X228100000Y-28350000D01*
X228100000Y-32250000D02*
X226100000Y-32250000D01*
%TO.C,U1*%
X64150000Y-35360000D02*
X65460000Y-35360000D01*
X60970000Y-31500000D02*
X60970000Y-32640000D01*
X60740000Y-32640000D02*
X60970000Y-32640000D01*
X60740000Y-35360000D02*
X62050000Y-35360000D01*
X60740000Y-32640000D02*
X60740000Y-35360000D01*
X65460000Y-35360000D02*
X65460000Y-32640000D01*
X65460000Y-32640000D02*
X65230000Y-32640000D01*
%TO.C,D26*%
X57100000Y-70250000D02*
X55100000Y-70250000D01*
X57100000Y-70250000D02*
X57100000Y-66350000D01*
X55100000Y-70250000D02*
X55100000Y-66350000D01*
%TO.C,ENC3*%
X72500000Y-28000000D02*
X71500000Y-28000000D01*
X72000000Y-28500000D02*
X72000000Y-27500000D01*
%TO.C,C8*%
X63360000Y-50107836D02*
X63360000Y-49892164D01*
X62640000Y-50107836D02*
X62640000Y-49892164D01*
%TO.C,D13*%
X36100000Y-51250000D02*
X36100000Y-47350000D01*
X38100000Y-51250000D02*
X36100000Y-51250000D01*
X38100000Y-51250000D02*
X38100000Y-47350000D01*
%TO.C,D39*%
X76100000Y-89250000D02*
X76100000Y-85350000D01*
X74100000Y-89250000D02*
X74100000Y-85350000D01*
X76100000Y-89250000D02*
X74100000Y-89250000D01*
%TO.C,D5*%
X114100000Y-32250000D02*
X112100000Y-32250000D01*
X114100000Y-32250000D02*
X114100000Y-28350000D01*
X112100000Y-32250000D02*
X112100000Y-28350000D01*
%TO.C,ENC19*%
X148500000Y-47000000D02*
X147500000Y-47000000D01*
X148000000Y-47500000D02*
X148000000Y-46500000D01*
%TO.C,SW1*%
X79200000Y-27800000D02*
X78750000Y-28250000D01*
X79200000Y-31200000D02*
X78750000Y-30750000D01*
X83800000Y-27800000D02*
X84250000Y-28250000D01*
X84250000Y-30750000D02*
X84250000Y-28250000D01*
X82500000Y-32250000D02*
X80500000Y-32250000D01*
X83800000Y-31200000D02*
X84250000Y-30750000D01*
X82500000Y-26750000D02*
X80500000Y-26750000D01*
X78750000Y-30750000D02*
X78750000Y-28250000D01*
%TO.C,D19*%
X152100000Y-51250000D02*
X152100000Y-47350000D01*
X150100000Y-51250000D02*
X150100000Y-47350000D01*
X152100000Y-51250000D02*
X150100000Y-51250000D01*
%TO.C,D22*%
X209100000Y-51250000D02*
X209100000Y-47350000D01*
X207100000Y-51250000D02*
X207100000Y-47350000D01*
X209100000Y-51250000D02*
X207100000Y-51250000D01*
%TO.C,D36*%
X247100000Y-70250000D02*
X247100000Y-66350000D01*
X247100000Y-70250000D02*
X245100000Y-70250000D01*
X245100000Y-70250000D02*
X245100000Y-66350000D01*
%TO.C,F1*%
X68702064Y-32510000D02*
X67497936Y-32510000D01*
X68702064Y-30690000D02*
X67497936Y-30690000D01*
%TO.C,C12*%
X56607836Y-51640000D02*
X56392164Y-51640000D01*
X56607836Y-52360000D02*
X56392164Y-52360000D01*
%TO.C,D27*%
X74100000Y-70250000D02*
X74100000Y-66350000D01*
X76100000Y-70250000D02*
X76100000Y-66350000D01*
X76100000Y-70250000D02*
X74100000Y-70250000D01*
%TO.C,Y1*%
X60493450Y-66860666D02*
X64493450Y-66860666D01*
X60493450Y-70160666D02*
X60493450Y-66860666D01*
%TO.C,C5*%
X61385614Y-66370666D02*
X61601286Y-66370666D01*
X61385614Y-65650666D02*
X61601286Y-65650666D01*
%TO.C,R6*%
X60380000Y-50153641D02*
X60380000Y-49846359D01*
X59620000Y-50153641D02*
X59620000Y-49846359D01*
%TO.C,ENC32*%
X167500000Y-66000000D02*
X166500000Y-66000000D01*
X167000000Y-66500000D02*
X167000000Y-65500000D01*
%TO.C,D21*%
X190100000Y-51250000D02*
X188100000Y-51250000D01*
X190100000Y-51250000D02*
X190100000Y-47350000D01*
X188100000Y-51250000D02*
X188100000Y-47350000D01*
%TO.C,ENC6*%
X129000000Y-28500000D02*
X129000000Y-27500000D01*
X129500000Y-28000000D02*
X128500000Y-28000000D01*
%TO.C,ENC39*%
X72000000Y-85500000D02*
X72000000Y-84500000D01*
X72500000Y-85000000D02*
X71500000Y-85000000D01*
%TO.C,D14*%
X57100000Y-51250000D02*
X57100000Y-47350000D01*
X55100000Y-51250000D02*
X55100000Y-47350000D01*
X57100000Y-51250000D02*
X55100000Y-51250000D01*
%TO.C,U2*%
X63400000Y-36575000D02*
X66125000Y-36575000D01*
X60675000Y-42025000D02*
X60675000Y-41765000D01*
X63400000Y-36575000D02*
X60675000Y-36575000D01*
X66125000Y-36835000D02*
X67800000Y-36835000D01*
X66125000Y-42025000D02*
X66125000Y-41765000D01*
X63400000Y-42025000D02*
X66125000Y-42025000D01*
X66125000Y-36575000D02*
X66125000Y-36835000D01*
X63400000Y-42025000D02*
X60675000Y-42025000D01*
X60675000Y-36575000D02*
X60675000Y-36835000D01*
%TO.C,ENC26*%
X53500000Y-66000000D02*
X52500000Y-66000000D01*
X53000000Y-66500000D02*
X53000000Y-65500000D01*
%TO.C,C11*%
X61640000Y-50107836D02*
X61640000Y-49892164D01*
X62360000Y-50107836D02*
X62360000Y-49892164D01*
%TO.C,J1*%
X67200000Y-21400000D02*
X67200000Y-19400000D01*
X57800000Y-21400000D02*
X57800000Y-19400000D01*
X57800000Y-15600000D02*
X67200000Y-15600000D01*
X67200000Y-17500000D02*
X67200000Y-15600000D01*
X57800000Y-17500000D02*
X57800000Y-15600000D01*
%TO.C,ENC44*%
X167000000Y-85500000D02*
X167000000Y-84500000D01*
X167500000Y-85000000D02*
X166500000Y-85000000D01*
%TO.C,ENC22*%
X205500000Y-47000000D02*
X204500000Y-47000000D01*
X205000000Y-47500000D02*
X205000000Y-46500000D01*
%TO.C,ENC24*%
X243000000Y-47500000D02*
X243000000Y-46500000D01*
X243500000Y-47000000D02*
X242500000Y-47000000D01*
%TO.C,ENC46*%
X205000000Y-85500000D02*
X205000000Y-84500000D01*
X205500000Y-85000000D02*
X204500000Y-85000000D01*
%TO.C,ENC43*%
X148000000Y-85500000D02*
X148000000Y-84500000D01*
X148500000Y-85000000D02*
X147500000Y-85000000D01*
%TO.C,ENC20*%
X167000000Y-47500000D02*
X167000000Y-46500000D01*
X167500000Y-47000000D02*
X166500000Y-47000000D01*
%TO.C,ENC23*%
X224000000Y-47500000D02*
X224000000Y-46500000D01*
X224500000Y-47000000D02*
X223500000Y-47000000D01*
%TO.C,D37*%
X36100000Y-89250000D02*
X36100000Y-85350000D01*
X38100000Y-89250000D02*
X38100000Y-85350000D01*
X38100000Y-89250000D02*
X36100000Y-89250000D01*
%TO.C,ENC18*%
X129500000Y-47000000D02*
X128500000Y-47000000D01*
X129000000Y-47500000D02*
X129000000Y-46500000D01*
%TO.C,R2*%
X63753641Y-25880000D02*
X63446359Y-25880000D01*
X63753641Y-25120000D02*
X63446359Y-25120000D01*
%TO.C,ENC13*%
X34000000Y-47500000D02*
X34000000Y-46500000D01*
X34500000Y-47000000D02*
X33500000Y-47000000D01*
%TO.C,D30*%
X133100000Y-70250000D02*
X131100000Y-70250000D01*
X133100000Y-70250000D02*
X133100000Y-66350000D01*
X131100000Y-70250000D02*
X131100000Y-66350000D01*
%TO.C,ENC30*%
X129500000Y-66000000D02*
X128500000Y-66000000D01*
X129000000Y-66500000D02*
X129000000Y-65500000D01*
%TO.C,D35*%
X228100000Y-70250000D02*
X228100000Y-66350000D01*
X228100000Y-70250000D02*
X226100000Y-70250000D01*
X226100000Y-70250000D02*
X226100000Y-66350000D01*
%TO.C,ENC29*%
X110500000Y-66000000D02*
X109500000Y-66000000D01*
X110000000Y-66500000D02*
X110000000Y-65500000D01*
%TO.C,D10*%
X207100000Y-32250000D02*
X207100000Y-28350000D01*
X209100000Y-32250000D02*
X209100000Y-28350000D01*
X209100000Y-32250000D02*
X207100000Y-32250000D01*
%TO.C,D12*%
X247100000Y-32250000D02*
X245100000Y-32250000D01*
X247100000Y-32250000D02*
X247100000Y-28350000D01*
X245100000Y-32250000D02*
X245100000Y-28350000D01*
%TO.C,C1*%
X68292164Y-33660000D02*
X68507836Y-33660000D01*
X68292164Y-32940000D02*
X68507836Y-32940000D01*
%TO.C,SW2*%
X42500000Y-32250000D02*
X44500000Y-32250000D01*
X45800000Y-31200000D02*
X46250000Y-30750000D01*
X46250000Y-28250000D02*
X46250000Y-30750000D01*
X41200000Y-31200000D02*
X40750000Y-30750000D01*
X45800000Y-27800000D02*
X46250000Y-28250000D01*
X42500000Y-26750000D02*
X44500000Y-26750000D01*
X41200000Y-27800000D02*
X40750000Y-28250000D01*
X40750000Y-28250000D02*
X40750000Y-30750000D01*
%TO.C,D18*%
X133100000Y-51250000D02*
X131100000Y-51250000D01*
X131100000Y-51250000D02*
X131100000Y-47350000D01*
X133100000Y-51250000D02*
X133100000Y-47350000D01*
%TO.C,ENC4*%
X91000000Y-28500000D02*
X91000000Y-27500000D01*
X91500000Y-28000000D02*
X90500000Y-28000000D01*
%TO.C,C2*%
X63107836Y-30140000D02*
X62892164Y-30140000D01*
X63107836Y-30860000D02*
X62892164Y-30860000D01*
%TO.C,D34*%
X209100000Y-70250000D02*
X207100000Y-70250000D01*
X209100000Y-70250000D02*
X209100000Y-66350000D01*
X207100000Y-70250000D02*
X207100000Y-66350000D01*
%TO.C,ENC1*%
X34500000Y-28000000D02*
X33500000Y-28000000D01*
X34000000Y-28500000D02*
X34000000Y-27500000D01*
%TO.C,R5*%
X77346359Y-32620000D02*
X77653641Y-32620000D01*
X77346359Y-33380000D02*
X77653641Y-33380000D01*
%TO.C,ENC21*%
X186000000Y-47500000D02*
X186000000Y-46500000D01*
X186500000Y-47000000D02*
X185500000Y-47000000D01*
%TO.C,R9*%
X46874470Y-32767651D02*
X46874470Y-32460369D01*
X47634470Y-32767651D02*
X47634470Y-32460369D01*
%TO.C,C18*%
X59360000Y-50107836D02*
X59360000Y-49892164D01*
X58640000Y-50107836D02*
X58640000Y-49892164D01*
%TO.C,R1*%
X60653641Y-25880000D02*
X60346359Y-25880000D01*
X60653641Y-25120000D02*
X60346359Y-25120000D01*
%TO.C,C13*%
X57107836Y-57040000D02*
X56892164Y-57040000D01*
X57107836Y-57760000D02*
X56892164Y-57760000D01*
%TO.C,ENC9*%
X186500000Y-28000000D02*
X185500000Y-28000000D01*
X186000000Y-28500000D02*
X186000000Y-27500000D01*
%TO.C,ENC34*%
X205500000Y-66000000D02*
X204500000Y-66000000D01*
X205000000Y-66500000D02*
X205000000Y-65500000D01*
%TO.C,D3*%
X74100000Y-32250000D02*
X74100000Y-28350000D01*
X76100000Y-32250000D02*
X74100000Y-32250000D01*
X76100000Y-32250000D02*
X76100000Y-28350000D01*
%TO.C,ENC7*%
X148000000Y-28500000D02*
X148000000Y-27500000D01*
X148500000Y-28000000D02*
X147500000Y-28000000D01*
%TO.C,C17*%
X58360000Y-50107836D02*
X58360000Y-49892164D01*
X57640000Y-50107836D02*
X57640000Y-49892164D01*
%TO.C,ENC5*%
X110500000Y-28000000D02*
X109500000Y-28000000D01*
X110000000Y-28500000D02*
X110000000Y-27500000D01*
%TO.C,D48*%
X247100000Y-89250000D02*
X247100000Y-85350000D01*
X247100000Y-89250000D02*
X245100000Y-89250000D01*
X245100000Y-89250000D02*
X245100000Y-85350000D01*
%TO.C,C9*%
X67892164Y-57040000D02*
X68107836Y-57040000D01*
X67892164Y-57760000D02*
X68107836Y-57760000D01*
%TO.C,ENC48*%
X243500000Y-85000000D02*
X242500000Y-85000000D01*
X243000000Y-85500000D02*
X243000000Y-84500000D01*
%TO.C,D31*%
X152100000Y-70250000D02*
X152100000Y-66350000D01*
X152100000Y-70250000D02*
X150100000Y-70250000D01*
X150100000Y-70250000D02*
X150100000Y-66350000D01*
%TO.C,ENC38*%
X53500000Y-85000000D02*
X52500000Y-85000000D01*
X53000000Y-85500000D02*
X53000000Y-84500000D01*
%TO.C,D42*%
X133100000Y-89250000D02*
X133100000Y-85350000D01*
X133100000Y-89250000D02*
X131100000Y-89250000D01*
X131100000Y-89250000D02*
X131100000Y-85350000D01*
%TO.C,U4*%
X62000000Y-26340000D02*
X61200000Y-26340000D01*
X59900000Y-29460000D02*
X62800000Y-29460000D01*
X59900000Y-28850000D02*
X59900000Y-29460000D01*
X62000000Y-26340000D02*
X62800000Y-26340000D01*
%TO.C,R4*%
X65977500Y-34262742D02*
X65977500Y-34737258D01*
X67022500Y-34262742D02*
X67022500Y-34737258D01*
%TO.C,D32*%
X169100000Y-70250000D02*
X169100000Y-66350000D01*
X171100000Y-70250000D02*
X169100000Y-70250000D01*
X171100000Y-70250000D02*
X171100000Y-66350000D01*
%TO.C,ENC40*%
X91500000Y-85000000D02*
X90500000Y-85000000D01*
X91000000Y-85500000D02*
X91000000Y-84500000D01*
%TO.C,R7*%
X60620000Y-50153641D02*
X60620000Y-49846359D01*
X61380000Y-50153641D02*
X61380000Y-49846359D01*
%TO.C,D25*%
X38100000Y-70250000D02*
X38100000Y-66350000D01*
X38100000Y-70250000D02*
X36100000Y-70250000D01*
X36100000Y-70250000D02*
X36100000Y-66350000D01*
%TO.C,D24*%
X247100000Y-51250000D02*
X247100000Y-47350000D01*
X247100000Y-51250000D02*
X245100000Y-51250000D01*
X245100000Y-51250000D02*
X245100000Y-47350000D01*
%TO.C,D41*%
X112100000Y-89250000D02*
X112100000Y-85350000D01*
X114100000Y-89250000D02*
X112100000Y-89250000D01*
X114100000Y-89250000D02*
X114100000Y-85350000D01*
%TO.C,D40*%
X93100000Y-89250000D02*
X93100000Y-85350000D01*
X95100000Y-89250000D02*
X93100000Y-89250000D01*
X95100000Y-89250000D02*
X95100000Y-85350000D01*
%TO.C,ENC14*%
X53500000Y-47000000D02*
X52500000Y-47000000D01*
X53000000Y-47500000D02*
X53000000Y-46500000D01*
%TO.C,ENC28*%
X91000000Y-66500000D02*
X91000000Y-65500000D01*
X91500000Y-66000000D02*
X90500000Y-66000000D01*
%TO.C,D8*%
X171100000Y-32250000D02*
X169100000Y-32250000D01*
X169100000Y-32250000D02*
X169100000Y-28350000D01*
X171100000Y-32250000D02*
X171100000Y-28350000D01*
%TO.C,ENC31*%
X148500000Y-66000000D02*
X147500000Y-66000000D01*
X148000000Y-66500000D02*
X148000000Y-65500000D01*
%TO.C,D47*%
X228100000Y-89250000D02*
X226100000Y-89250000D01*
X226100000Y-89250000D02*
X226100000Y-85350000D01*
X228100000Y-89250000D02*
X228100000Y-85350000D01*
%TO.C,D33*%
X190100000Y-70250000D02*
X190100000Y-66350000D01*
X190100000Y-70250000D02*
X188100000Y-70250000D01*
X188100000Y-70250000D02*
X188100000Y-66350000D01*
%TO.C,D20*%
X171100000Y-51250000D02*
X171100000Y-47350000D01*
X169100000Y-51250000D02*
X169100000Y-47350000D01*
X171100000Y-51250000D02*
X169100000Y-51250000D01*
%TO.C,D29*%
X112100000Y-70250000D02*
X112100000Y-66350000D01*
X114100000Y-70250000D02*
X112100000Y-70250000D01*
X114100000Y-70250000D02*
X114100000Y-66350000D01*
%TO.C,ENC27*%
X72000000Y-66500000D02*
X72000000Y-65500000D01*
X72500000Y-66000000D02*
X71500000Y-66000000D01*
D13*
%TO.C,U3*%
X59000000Y-60000000D02*
X59480000Y-60000000D01*
X66000000Y-60000000D02*
X66000000Y-59520000D01*
X66000000Y-53000000D02*
X65520000Y-53000000D01*
X59000000Y-53000000D02*
X59480000Y-53000000D01*
X59000000Y-53000000D02*
X59000000Y-53480000D01*
X66000000Y-53000000D02*
X66000000Y-53480000D01*
X59000000Y-60000000D02*
X59000000Y-59520000D01*
X66000000Y-60000000D02*
X65520000Y-60000000D01*
D14*
X67075000Y-53900000D02*
G75*
G03*
X67075000Y-53900000I-100000J0D01*
G01*
D12*
%TO.C,D2*%
X55100000Y-32250000D02*
X55100000Y-28350000D01*
X57100000Y-32250000D02*
X57100000Y-28350000D01*
X57100000Y-32250000D02*
X55100000Y-32250000D01*
%TO.C,D15*%
X76100000Y-51250000D02*
X76100000Y-47350000D01*
X76100000Y-51250000D02*
X74100000Y-51250000D01*
X74100000Y-51250000D02*
X74100000Y-47350000D01*
%TO.C,ENC35*%
X224000000Y-66500000D02*
X224000000Y-65500000D01*
X224500000Y-66000000D02*
X223500000Y-66000000D01*
%TO.C,ENC10*%
X205000000Y-28500000D02*
X205000000Y-27500000D01*
X205500000Y-28000000D02*
X204500000Y-28000000D01*
%TO.C,D17*%
X114100000Y-51250000D02*
X114100000Y-47350000D01*
X114100000Y-51250000D02*
X112100000Y-51250000D01*
X112100000Y-51250000D02*
X112100000Y-47350000D01*
%TO.C,D6*%
X133100000Y-32250000D02*
X133100000Y-28350000D01*
X131100000Y-32250000D02*
X131100000Y-28350000D01*
X133100000Y-32250000D02*
X131100000Y-32250000D01*
%TO.C,C7*%
X60853450Y-64402830D02*
X60853450Y-64618502D01*
X60133450Y-64402830D02*
X60133450Y-64618502D01*
%TO.C,D7*%
X152100000Y-32250000D02*
X150100000Y-32250000D01*
X152100000Y-32250000D02*
X152100000Y-28350000D01*
X150100000Y-32250000D02*
X150100000Y-28350000D01*
%TO.C,C15*%
X63092164Y-44260000D02*
X63307836Y-44260000D01*
X63092164Y-43540000D02*
X63307836Y-43540000D01*
%TO.C,C3*%
X58627836Y-25140000D02*
X58412164Y-25140000D01*
X58627836Y-25860000D02*
X58412164Y-25860000D01*
%TO.C,ENC16*%
X91500000Y-47000000D02*
X90500000Y-47000000D01*
X91000000Y-47500000D02*
X91000000Y-46500000D01*
%TO.C,D46*%
X209100000Y-89250000D02*
X207100000Y-89250000D01*
X207100000Y-89250000D02*
X207100000Y-85350000D01*
X209100000Y-89250000D02*
X209100000Y-85350000D01*
%TD*%
M02*
