%TF.GenerationSoftware,KiCad,Pcbnew,(6.0.2)*%
%TF.CreationDate,2022-03-24T17:37:40-04:00*%
%TF.ProjectId,OOPS-All-Knobs,4f4f5053-2d41-46c6-9c2d-4b6e6f62732e,rev?*%
%TF.SameCoordinates,Original*%
%TF.FileFunction,Paste,Bot*%
%TF.FilePolarity,Positive*%
%FSLAX46Y46*%
G04 Gerber Fmt 4.6, Leading zero omitted, Abs format (unit mm)*
G04 Created by KiCad (PCBNEW (6.0.2)) date 2022-03-24 17:37:40*
%MOMM*%
%LPD*%
G01*
G04 APERTURE LIST*
G04 Aperture macros list*
%AMRoundRect*
0 Rectangle with rounded corners*
0 $1 Rounding radius*
0 $2 $3 $4 $5 $6 $7 $8 $9 X,Y pos of 4 corners*
0 Add a 4 corners polygon primitive as box body*
4,1,4,$2,$3,$4,$5,$6,$7,$8,$9,$2,$3,0*
0 Add four circle primitives for the rounded corners*
1,1,$1+$1,$2,$3*
1,1,$1+$1,$4,$5*
1,1,$1+$1,$6,$7*
1,1,$1+$1,$8,$9*
0 Add four rect primitives between the rounded corners*
20,1,$1+$1,$2,$3,$4,$5,0*
20,1,$1+$1,$4,$5,$6,$7,0*
20,1,$1+$1,$6,$7,$8,$9,0*
20,1,$1+$1,$8,$9,$2,$3,0*%
G04 Aperture macros list end*
%ADD10C,0.010000*%
%ADD11RoundRect,0.150000X-0.150000X0.587500X-0.150000X-0.587500X0.150000X-0.587500X0.150000X0.587500X0*%
%ADD12R,1.200000X0.900000*%
%ADD13RoundRect,0.140000X-0.170000X0.140000X-0.170000X-0.140000X0.170000X-0.140000X0.170000X0.140000X0*%
%ADD14RoundRect,0.140000X-0.140000X-0.170000X0.140000X-0.170000X0.140000X0.170000X-0.140000X0.170000X0*%
%ADD15RoundRect,0.140000X0.140000X0.170000X-0.140000X0.170000X-0.140000X-0.170000X0.140000X-0.170000X0*%
%ADD16RoundRect,0.135000X0.185000X-0.135000X0.185000X0.135000X-0.185000X0.135000X-0.185000X-0.135000X0*%
%ADD17RoundRect,0.140000X0.170000X-0.140000X0.170000X0.140000X-0.170000X0.140000X-0.170000X-0.140000X0*%
%ADD18R,1.000000X1.700000*%
%ADD19RoundRect,0.250000X0.375000X0.625000X-0.375000X0.625000X-0.375000X-0.625000X0.375000X-0.625000X0*%
%ADD20R,1.400000X1.200000*%
%ADD21RoundRect,0.150000X0.650000X0.150000X-0.650000X0.150000X-0.650000X-0.150000X0.650000X-0.150000X0*%
%ADD22R,0.600000X1.450000*%
%ADD23R,0.300000X1.450000*%
%ADD24RoundRect,0.135000X0.135000X0.185000X-0.135000X0.185000X-0.135000X-0.185000X0.135000X-0.185000X0*%
%ADD25RoundRect,0.135000X-0.135000X-0.185000X0.135000X-0.185000X0.135000X0.185000X-0.135000X0.185000X0*%
%ADD26RoundRect,0.150000X-0.475000X-0.150000X0.475000X-0.150000X0.475000X0.150000X-0.475000X0.150000X0*%
%ADD27RoundRect,0.200000X-0.275000X0.200000X-0.275000X-0.200000X0.275000X-0.200000X0.275000X0.200000X0*%
%ADD28RoundRect,0.006000X0.414000X0.094000X-0.414000X0.094000X-0.414000X-0.094000X0.414000X-0.094000X0*%
%ADD29RoundRect,0.020000X0.080000X0.400000X-0.080000X0.400000X-0.080000X-0.400000X0.080000X-0.400000X0*%
G04 APERTURE END LIST*
D10*
%TO.C,U3*%
X63480000Y-55520000D02*
X61520000Y-55520000D01*
X61520000Y-55520000D02*
X61520000Y-57480000D01*
X61520000Y-57480000D02*
X63480000Y-57480000D01*
X63480000Y-57480000D02*
X63480000Y-55520000D01*
G36*
X63480000Y-57480000D02*
G01*
X61520000Y-57480000D01*
X61520000Y-55520000D01*
X63480000Y-55520000D01*
X63480000Y-57480000D01*
G37*
X63480000Y-57480000D02*
X61520000Y-57480000D01*
X61520000Y-55520000D01*
X63480000Y-55520000D01*
X63480000Y-57480000D01*
%TD*%
D11*
%TO.C,U1*%
X61534775Y-32780929D03*
X63434775Y-32780929D03*
X62484775Y-34655929D03*
%TD*%
D12*
%TO.C,D44*%
X170100000Y-88650000D03*
X170100000Y-85350000D03*
%TD*%
%TO.C,D9*%
X189100000Y-31650000D03*
X189100000Y-28350000D03*
%TD*%
%TO.C,D28*%
X94100000Y-69650000D03*
X94100000Y-66350000D03*
%TD*%
D13*
%TO.C,C10*%
X61493450Y-64030666D03*
X61493450Y-64990666D03*
%TD*%
D12*
%TO.C,D4*%
X94100000Y-31650000D03*
X94100000Y-28350000D03*
%TD*%
%TO.C,D1*%
X37100000Y-31650000D03*
X37100000Y-28350000D03*
%TD*%
D14*
%TO.C,C14*%
X68020000Y-52000000D03*
X68980000Y-52000000D03*
%TD*%
D12*
%TO.C,D23*%
X227100000Y-50650000D03*
X227100000Y-47350000D03*
%TD*%
%TO.C,D45*%
X189100000Y-88650000D03*
X189100000Y-85350000D03*
%TD*%
D15*
%TO.C,C4*%
X59780000Y-35700000D03*
X58820000Y-35700000D03*
%TD*%
D12*
%TO.C,D43*%
X151100000Y-88650000D03*
X151100000Y-85350000D03*
%TD*%
%TO.C,D38*%
X56100000Y-88650000D03*
X56100000Y-85350000D03*
%TD*%
D16*
%TO.C,R3*%
X56600000Y-25910000D03*
X56600000Y-24890000D03*
%TD*%
%TO.C,R8*%
X62500000Y-65020666D03*
X62500000Y-64000666D03*
%TD*%
D12*
%TO.C,D16*%
X94100000Y-50650000D03*
X94100000Y-47350000D03*
%TD*%
D14*
%TO.C,C6*%
X62993450Y-66010666D03*
X63953450Y-66010666D03*
%TD*%
D12*
%TO.C,D11*%
X227100000Y-31650000D03*
X227100000Y-28350000D03*
%TD*%
%TO.C,D26*%
X56100000Y-69650000D03*
X56100000Y-66350000D03*
%TD*%
D17*
%TO.C,C8*%
X63000000Y-50480000D03*
X63000000Y-49520000D03*
%TD*%
D12*
%TO.C,D13*%
X37100000Y-50650000D03*
X37100000Y-47350000D03*
%TD*%
%TO.C,D39*%
X75100000Y-88650000D03*
X75100000Y-85350000D03*
%TD*%
%TO.C,D5*%
X113100000Y-31650000D03*
X113100000Y-28350000D03*
%TD*%
D18*
%TO.C,SW1*%
X83400000Y-32650000D03*
X83400000Y-26350000D03*
X79600000Y-26350000D03*
X79600000Y-32650000D03*
%TD*%
D12*
%TO.C,D19*%
X151100000Y-50650000D03*
X151100000Y-47350000D03*
%TD*%
%TO.C,D22*%
X208100000Y-50650000D03*
X208100000Y-47350000D03*
%TD*%
%TO.C,D36*%
X246100000Y-69650000D03*
X246100000Y-66350000D03*
%TD*%
D19*
%TO.C,F1*%
X69500000Y-31600000D03*
X66700000Y-31600000D03*
%TD*%
D15*
%TO.C,C12*%
X56980000Y-52000000D03*
X56020000Y-52000000D03*
%TD*%
D12*
%TO.C,D27*%
X75100000Y-69650000D03*
X75100000Y-66350000D03*
%TD*%
D20*
%TO.C,Y1*%
X61393450Y-67660666D03*
X63593450Y-67660666D03*
X63593450Y-69360666D03*
X61393450Y-69360666D03*
%TD*%
D14*
%TO.C,C5*%
X61013450Y-66010666D03*
X61973450Y-66010666D03*
%TD*%
D16*
%TO.C,R6*%
X60000000Y-50510000D03*
X60000000Y-49490000D03*
%TD*%
D12*
%TO.C,D21*%
X189100000Y-50650000D03*
X189100000Y-47350000D03*
%TD*%
%TO.C,D14*%
X56100000Y-50650000D03*
X56100000Y-47350000D03*
%TD*%
D21*
%TO.C,U2*%
X67000000Y-37395000D03*
X67000000Y-38665000D03*
X67000000Y-39935000D03*
X67000000Y-41205000D03*
X59800000Y-41205000D03*
X59800000Y-39935000D03*
X59800000Y-38665000D03*
X59800000Y-37395000D03*
%TD*%
D17*
%TO.C,C11*%
X62000000Y-50480000D03*
X62000000Y-49520000D03*
%TD*%
D22*
%TO.C,J1*%
X59250000Y-23545000D03*
X60050000Y-23545000D03*
D23*
X61250000Y-23545000D03*
X62250000Y-23545000D03*
X62750000Y-23545000D03*
X63750000Y-23545000D03*
D22*
X64950000Y-23545000D03*
X65750000Y-23545000D03*
X65750000Y-23545000D03*
X64950000Y-23545000D03*
D23*
X64250000Y-23545000D03*
X63250000Y-23545000D03*
X61750000Y-23545000D03*
X60750000Y-23545000D03*
D22*
X60050000Y-23545000D03*
X59250000Y-23545000D03*
%TD*%
D12*
%TO.C,D37*%
X37100000Y-88650000D03*
X37100000Y-85350000D03*
%TD*%
D24*
%TO.C,R2*%
X64110000Y-25500000D03*
X63090000Y-25500000D03*
%TD*%
D12*
%TO.C,D30*%
X132100000Y-69650000D03*
X132100000Y-66350000D03*
%TD*%
%TO.C,D35*%
X227100000Y-69650000D03*
X227100000Y-66350000D03*
%TD*%
%TO.C,D10*%
X208100000Y-31650000D03*
X208100000Y-28350000D03*
%TD*%
%TO.C,D12*%
X246100000Y-31650000D03*
X246100000Y-28350000D03*
%TD*%
D14*
%TO.C,C1*%
X67920000Y-33300000D03*
X68880000Y-33300000D03*
%TD*%
D18*
%TO.C,SW2*%
X41600000Y-32650000D03*
X41600000Y-26350000D03*
X45400000Y-26350000D03*
X45400000Y-32650000D03*
%TD*%
D12*
%TO.C,D18*%
X132100000Y-50650000D03*
X132100000Y-47350000D03*
%TD*%
D13*
%TO.C,C2*%
X64952007Y-32561545D03*
X64952007Y-33521545D03*
%TD*%
D12*
%TO.C,D34*%
X208100000Y-69650000D03*
X208100000Y-66350000D03*
%TD*%
D25*
%TO.C,R5*%
X76990000Y-33000000D03*
X78010000Y-33000000D03*
%TD*%
D16*
%TO.C,R9*%
X47254470Y-33124010D03*
X47254470Y-32104010D03*
%TD*%
D17*
%TO.C,C18*%
X59000000Y-50480000D03*
X59000000Y-49520000D03*
%TD*%
D24*
%TO.C,R1*%
X61010000Y-25500000D03*
X59990000Y-25500000D03*
%TD*%
D15*
%TO.C,C13*%
X57480000Y-57400000D03*
X56520000Y-57400000D03*
%TD*%
D12*
%TO.C,D3*%
X75100000Y-31650000D03*
X75100000Y-28350000D03*
%TD*%
D17*
%TO.C,C17*%
X58000000Y-50480000D03*
X58000000Y-49520000D03*
%TD*%
D12*
%TO.C,D48*%
X246100000Y-88650000D03*
X246100000Y-85350000D03*
%TD*%
D14*
%TO.C,C9*%
X67520000Y-57400000D03*
X68480000Y-57400000D03*
%TD*%
D12*
%TO.C,D31*%
X151100000Y-69650000D03*
X151100000Y-66350000D03*
%TD*%
%TO.C,D42*%
X132100000Y-88650000D03*
X132100000Y-85350000D03*
%TD*%
D26*
%TO.C,U4*%
X60825000Y-28850000D03*
X60825000Y-27900000D03*
X60750000Y-26950000D03*
X63175000Y-26950000D03*
X63175000Y-27900000D03*
X63175000Y-28850000D03*
%TD*%
D27*
%TO.C,R4*%
X66500000Y-33675000D03*
X66500000Y-35325000D03*
%TD*%
D12*
%TO.C,D32*%
X170100000Y-69650000D03*
X170100000Y-66350000D03*
%TD*%
D16*
%TO.C,R7*%
X61000000Y-50510000D03*
X61000000Y-49490000D03*
%TD*%
D12*
%TO.C,D25*%
X37100000Y-69650000D03*
X37100000Y-66350000D03*
%TD*%
%TO.C,D24*%
X246100000Y-50650000D03*
X246100000Y-47350000D03*
%TD*%
%TO.C,D41*%
X113100000Y-88650000D03*
X113100000Y-85350000D03*
%TD*%
%TO.C,D40*%
X94100000Y-88650000D03*
X94100000Y-85350000D03*
%TD*%
%TO.C,D8*%
X170100000Y-31650000D03*
X170100000Y-28350000D03*
%TD*%
%TO.C,D47*%
X227100000Y-88650000D03*
X227100000Y-85350000D03*
%TD*%
%TO.C,D33*%
X189100000Y-69650000D03*
X189100000Y-66350000D03*
%TD*%
%TO.C,D20*%
X170100000Y-50650000D03*
X170100000Y-47350000D03*
%TD*%
%TO.C,D29*%
X113100000Y-69650000D03*
X113100000Y-66350000D03*
%TD*%
D28*
%TO.C,U3*%
X65935000Y-53900000D03*
X65935000Y-54300000D03*
X65935000Y-54700000D03*
X65935000Y-55100000D03*
X65935000Y-55500000D03*
X65935000Y-55900000D03*
X65935000Y-56300000D03*
X65935000Y-56700000D03*
X65935000Y-57100000D03*
X65935000Y-57500000D03*
X65935000Y-57900000D03*
X65935000Y-58300000D03*
X65935000Y-58700000D03*
X65935000Y-59100000D03*
D29*
X65100000Y-59935000D03*
X64700000Y-59935000D03*
X64300000Y-59935000D03*
X63900000Y-59935000D03*
X63500000Y-59935000D03*
X63100000Y-59935000D03*
X62700000Y-59935000D03*
X62300000Y-59935000D03*
X61900000Y-59935000D03*
X61500000Y-59935000D03*
X61100000Y-59935000D03*
X60700000Y-59935000D03*
X60300000Y-59935000D03*
X59900000Y-59935000D03*
D28*
X59065000Y-59100000D03*
X59065000Y-58700000D03*
X59065000Y-58300000D03*
X59065000Y-57900000D03*
X59065000Y-57500000D03*
X59065000Y-57100000D03*
X59065000Y-56700000D03*
X59065000Y-56300000D03*
X59065000Y-55900000D03*
X59065000Y-55500000D03*
X59065000Y-55100000D03*
X59065000Y-54700000D03*
X59065000Y-54300000D03*
X59065000Y-53900000D03*
D29*
X59900000Y-53065000D03*
X60300000Y-53065000D03*
X60700000Y-53065000D03*
X61100000Y-53065000D03*
X61500000Y-53065000D03*
X61900000Y-53065000D03*
X62300000Y-53065000D03*
X62700000Y-53065000D03*
X63100000Y-53065000D03*
X63500000Y-53065000D03*
X63900000Y-53065000D03*
X64300000Y-53065000D03*
X64700000Y-53065000D03*
X65100000Y-53065000D03*
%TD*%
D12*
%TO.C,D2*%
X56100000Y-31650000D03*
X56100000Y-28350000D03*
%TD*%
%TO.C,D15*%
X75100000Y-50650000D03*
X75100000Y-47350000D03*
%TD*%
%TO.C,D17*%
X113100000Y-50650000D03*
X113100000Y-47350000D03*
%TD*%
%TO.C,D6*%
X132100000Y-31650000D03*
X132100000Y-28350000D03*
%TD*%
D13*
%TO.C,C7*%
X60493450Y-64030666D03*
X60493450Y-64990666D03*
%TD*%
D12*
%TO.C,D7*%
X151100000Y-31650000D03*
X151100000Y-28350000D03*
%TD*%
D14*
%TO.C,C15*%
X62720000Y-43900000D03*
X63680000Y-43900000D03*
%TD*%
D15*
%TO.C,C3*%
X59000000Y-25500000D03*
X58040000Y-25500000D03*
%TD*%
D12*
%TO.C,D46*%
X208100000Y-88650000D03*
X208100000Y-85350000D03*
%TD*%
M02*
