%TF.GenerationSoftware,KiCad,Pcbnew,(6.0.1)*%
%TF.CreationDate,2022-03-23T22:50:50-04:00*%
%TF.ProjectId,OOPS-All-Knobs,4f4f5053-2d41-46c6-9c2d-4b6e6f62732e,rev?*%
%TF.SameCoordinates,Original*%
%TF.FileFunction,Legend,Top*%
%TF.FilePolarity,Positive*%
%FSLAX46Y46*%
G04 Gerber Fmt 4.6, Leading zero omitted, Abs format (unit mm)*
G04 Created by KiCad (PCBNEW (6.0.1)) date 2022-03-23 22:50:50*
%MOMM*%
%LPD*%
G01*
G04 APERTURE LIST*
%ADD10C,0.150000*%
%ADD11C,0.120000*%
G04 APERTURE END LIST*
D10*
%TO.C,PCB1*%
X136761904Y-56952380D02*
X136761904Y-55952380D01*
X137142857Y-55952380D01*
X137238095Y-56000000D01*
X137285714Y-56047619D01*
X137333333Y-56142857D01*
X137333333Y-56285714D01*
X137285714Y-56380952D01*
X137238095Y-56428571D01*
X137142857Y-56476190D01*
X136761904Y-56476190D01*
X138333333Y-56857142D02*
X138285714Y-56904761D01*
X138142857Y-56952380D01*
X138047619Y-56952380D01*
X137904761Y-56904761D01*
X137809523Y-56809523D01*
X137761904Y-56714285D01*
X137714285Y-56523809D01*
X137714285Y-56380952D01*
X137761904Y-56190476D01*
X137809523Y-56095238D01*
X137904761Y-56000000D01*
X138047619Y-55952380D01*
X138142857Y-55952380D01*
X138285714Y-56000000D01*
X138333333Y-56047619D01*
X139095238Y-56428571D02*
X139238095Y-56476190D01*
X139285714Y-56523809D01*
X139333333Y-56619047D01*
X139333333Y-56761904D01*
X139285714Y-56857142D01*
X139238095Y-56904761D01*
X139142857Y-56952380D01*
X138761904Y-56952380D01*
X138761904Y-55952380D01*
X139095238Y-55952380D01*
X139190476Y-56000000D01*
X139238095Y-56047619D01*
X139285714Y-56142857D01*
X139285714Y-56238095D01*
X139238095Y-56333333D01*
X139190476Y-56380952D01*
X139095238Y-56428571D01*
X138761904Y-56428571D01*
X140285714Y-56952380D02*
X139714285Y-56952380D01*
X140000000Y-56952380D02*
X140000000Y-55952380D01*
X139904761Y-56095238D01*
X139809523Y-56190476D01*
X139714285Y-56238095D01*
%TO.C,J2*%
X43166666Y-68407380D02*
X43166666Y-69121666D01*
X43119047Y-69264523D01*
X43023809Y-69359761D01*
X42880952Y-69407380D01*
X42785714Y-69407380D01*
X43595238Y-68502619D02*
X43642857Y-68455000D01*
X43738095Y-68407380D01*
X43976190Y-68407380D01*
X44071428Y-68455000D01*
X44119047Y-68502619D01*
X44166666Y-68597857D01*
X44166666Y-68693095D01*
X44119047Y-68835952D01*
X43547619Y-69407380D01*
X44166666Y-69407380D01*
D11*
%TO.C,PCB1*%
X83000000Y-29500000D02*
G75*
G03*
X83000000Y-29500000I-1500000J0D01*
G01*
%TO.C,J2*%
X44830000Y-65355000D02*
X42170000Y-65355000D01*
X44830000Y-67955000D02*
X43500000Y-67955000D01*
X44830000Y-66625000D02*
X44830000Y-67955000D01*
X44830000Y-65355000D02*
X44830000Y-60215000D01*
X44830000Y-60215000D02*
X42170000Y-60215000D01*
X42170000Y-65355000D02*
X42170000Y-60215000D01*
%TD*%
M02*
