M48
; DRILL file {KiCad (6.0.1)} date Wed Mar 23 22:50:53 2022
; FORMAT={-:-/ absolute / inch / decimal}
; #@! TF.CreationDate,2022-03-23T22:50:53-04:00
; #@! TF.GenerationSoftware,Kicad,Pcbnew,(6.0.1)
; #@! TF.FileFunction,Plated,1,2,PTH
FMAT,2
INCH
; #@! TA.AperFunction,Plated,PTH,ViaDrill
T1C0.0157
; #@! TA.AperFunction,Plated,PTH,ComponentDrill
T2C0.0236
; #@! TA.AperFunction,Plated,PTH,ComponentDrill
T3C0.0394
; #@! TA.AperFunction,Plated,PTH,ComponentDrill
T4C0.0579
; #@! TA.AperFunction,Plated,PTH,ComponentDrill
T5C0.0591
%
G90
G05
T1
X1.1535Y-2.252
X1.1849Y-3.5698
X1.2835Y-2.0591
X1.3425Y-2.0512
X1.3425Y-3.5
X1.3543Y-3.2126
X1.5118Y-1.7441
X1.5512Y-1.2874
X1.5669Y-2.2047
X1.5866Y-1.9882
X1.7126Y-2.7913
X1.7126Y-3.5236
X1.737Y-1.2657
X1.7402Y-2.0433
X1.7806Y-1.1452
X1.8346Y-2.752
X1.8543Y-2.0079
X1.8937Y-3.063
X1.9112Y-1.289
X1.9274Y-2.2681
X1.9358Y-2.1881
X1.937Y-1.9528
X1.937Y-2.0
X1.937Y-2.0433
X1.9685Y-1.2205
X1.9685Y-1.2795
X2.0197Y-2.0
X2.0197Y-2.7559
X2.0315Y-2.0472
X2.0337Y-1.3289
X2.0735Y-2.0326
X2.0827Y-2.3307
X2.0866Y-2.9882
X2.0906Y-0.9764
X2.0906Y-1.7441
X2.0984Y-2.2638
X2.1142Y-1.4843
X2.1417Y-2.6969
X2.1417Y-2.7441
X2.1417Y-2.7953
X2.1453Y-2.2636
X2.1457Y-1.9552
X2.1553Y-1.7198
X2.1713Y-1.3284
X2.1715Y-2.5346
X2.1746Y-2.038
X2.185Y-3.3071
X2.2008Y-1.9488
X2.2087Y-3.5433
X2.2123Y-1.3092
X2.2135Y-2.5324
X2.2165Y-1.1732
X2.2441Y-1.9331
X2.251Y-2.172
X2.2511Y-2.5142
X2.2913Y-2.0512
X2.3031Y-0.9606
X2.3043Y-1.4579
X2.3189Y-1.3622
X2.3206Y-2.496
X2.3425Y-2.4606
X2.3425Y-3.4843
X2.3465Y-2.0315
X2.3501Y-2.4175
X2.3504Y-2.5236
X2.3543Y-1.185
X2.3819Y-1.2874
X2.4134Y-2.1772
X2.4134Y-2.2244
X2.4134Y-2.2717
X2.4291Y-1.9055
X2.4606Y-2.1772
X2.4606Y-2.2717
X2.4606Y-3.5039
X2.4803Y-1.8031
X2.4921Y-2.1339
X2.5079Y-2.1772
X2.5079Y-2.2244
X2.5079Y-2.2717
X2.5194Y-2.5595
X2.5197Y-1.7717
X2.5276Y-1.0394
X2.5292Y-1.1657
X2.5385Y-2.4913
X2.563Y-2.4173
X2.5755Y-2.4598
X2.5768Y-1.3748
X2.5931Y-2.3819
X2.5984Y-1.6535
X2.6063Y-0.9803
X2.6181Y-2.3504
X2.6377Y-2.1208
X2.7008Y-1.465
X2.7717Y-2.0472
X2.7756Y-1.3031
X2.7953Y-2.2598
X2.8425Y-1.3071
X2.8937Y-1.2598
X2.9168Y-1.2992
X2.9331Y-3.3071
X2.9346Y-2.559
X2.9858Y-1.3178
X3.0591Y-1.4134
X3.0669Y-2.748
X3.1024Y-2.8346
X3.1496Y-2.1457
X3.1811Y-1.0591
X3.185Y-1.2638
X3.2047Y-3.3858
X3.2087Y-3.5039
X3.2362Y-1.0354
X3.2362Y-1.2874
X3.3469Y-2.9237
X3.3661Y-3.5039
X3.3937Y-2.1496
X3.5827Y-2.752
X3.6811Y-3.3071
X3.6827Y-2.559
X3.7047Y-3.5433
X3.8583Y-2.3386
X3.9449Y-3.1063
X3.9567Y-3.5039
X3.9606Y-2.4173
X3.9764Y-3.1378
X4.0079Y-3.1693
X4.0354Y-2.1457
X4.0394Y-3.2008
X4.0886Y-1.9941
X4.1102Y-2.1024
X4.1378Y-1.9488
X4.1799Y-2.0264
X4.2323Y-2.0512
X4.4307Y-2.559
X4.7047Y-3.5039
X4.8622Y-3.5039
X5.0866Y-2.374
X5.1787Y-2.559
X5.2008Y-3.5433
X5.2385Y-2.2294
X5.2689Y-2.1987
X5.4528Y-3.5039
X5.6417Y-2.126
X5.9268Y-2.559
X6.2008Y-3.5039
X6.3583Y-3.5039
X6.6748Y-2.559
X6.6969Y-3.5433
X6.9488Y-3.5039
X7.248Y-2.248
X7.4228Y-2.559
X7.6969Y-3.5039
X7.8543Y-3.5039
X8.1709Y-2.559
X8.1929Y-3.5433
X8.4449Y-3.5039
X8.7795Y-2.4016
X9.1929Y-3.5039
X9.3504Y-3.5039
T3
X1.2402Y-0.8268
X1.2402Y-1.3976
X1.2402Y-1.5748
X1.2402Y-2.1457
X1.2402Y-2.3228
X1.2402Y-2.8937
X1.2402Y-3.0709
X1.2402Y-3.6417
X1.3386Y-1.3976
X1.3386Y-2.1457
X1.3386Y-2.8937
X1.3386Y-3.6417
X1.437Y-0.8268
X1.437Y-1.3976
X1.437Y-1.5748
X1.437Y-2.1457
X1.437Y-2.3228
X1.437Y-2.8937
X1.437Y-3.0709
X1.437Y-3.6417
X1.7126Y-2.423
X1.7126Y-2.523
X1.7126Y-2.623
X1.9882Y-0.8268
X1.9882Y-1.3976
X1.9882Y-1.5748
X1.9882Y-2.1457
X1.9882Y-2.3228
X1.9882Y-2.8937
X1.9882Y-3.0709
X1.9882Y-3.6417
X2.0866Y-1.3976
X2.0866Y-2.1457
X2.0866Y-2.8937
X2.0866Y-3.6417
X2.185Y-0.8268
X2.185Y-1.3976
X2.185Y-1.5748
X2.185Y-2.1457
X2.185Y-2.3228
X2.185Y-2.8937
X2.185Y-3.0709
X2.185Y-3.6417
X2.7362Y-0.8268
X2.7362Y-1.3976
X2.7362Y-1.5748
X2.7362Y-2.1457
X2.7362Y-2.3228
X2.7362Y-2.8937
X2.7362Y-3.0709
X2.7362Y-3.6417
X2.8346Y-1.3976
X2.8346Y-2.1457
X2.8346Y-2.8937
X2.8346Y-3.6417
X2.9331Y-0.8268
X2.9331Y-1.3976
X2.9331Y-1.5748
X2.9331Y-2.1457
X2.9331Y-2.3228
X2.9331Y-2.8937
X2.9331Y-3.0709
X2.9331Y-3.6417
X3.4843Y-0.8268
X3.4843Y-1.3976
X3.4843Y-1.5748
X3.4843Y-2.1457
X3.4843Y-2.3228
X3.4843Y-2.8937
X3.4843Y-3.0709
X3.4843Y-3.6417
X3.5827Y-1.3976
X3.5827Y-2.1457
X3.5827Y-2.8937
X3.5827Y-3.6417
X3.6811Y-0.8268
X3.6811Y-1.3976
X3.6811Y-1.5748
X3.6811Y-2.1457
X3.6811Y-2.3228
X3.6811Y-2.8937
X3.6811Y-3.0709
X3.6811Y-3.6417
X4.2323Y-0.8268
X4.2323Y-1.3976
X4.2323Y-1.5748
X4.2323Y-2.1457
X4.2323Y-2.3228
X4.2323Y-2.8937
X4.2323Y-3.0709
X4.2323Y-3.6417
X4.3307Y-1.3976
X4.3307Y-2.1457
X4.3307Y-2.8937
X4.3307Y-3.6417
X4.4291Y-0.8268
X4.4291Y-1.3976
X4.4291Y-1.5748
X4.4291Y-2.1457
X4.4291Y-2.3228
X4.4291Y-2.8937
X4.4291Y-3.0709
X4.4291Y-3.6417
X4.9803Y-0.8268
X4.9803Y-1.3976
X4.9803Y-1.5748
X4.9803Y-2.1457
X4.9803Y-2.3228
X4.9803Y-2.8937
X4.9803Y-3.0709
X4.9803Y-3.6417
X5.0787Y-1.3976
X5.0787Y-2.1457
X5.0787Y-2.8937
X5.0787Y-3.6417
X5.1772Y-0.8268
X5.1772Y-1.3976
X5.1772Y-1.5748
X5.1772Y-2.1457
X5.1772Y-2.3228
X5.1772Y-2.8937
X5.1772Y-3.0709
X5.1772Y-3.6417
X5.7283Y-0.8268
X5.7283Y-1.3976
X5.7283Y-1.5748
X5.7283Y-2.1457
X5.7283Y-2.3228
X5.7283Y-2.8937
X5.7283Y-3.0709
X5.7283Y-3.6417
X5.8268Y-1.3976
X5.8268Y-2.1457
X5.8268Y-2.8937
X5.8268Y-3.6417
X5.9252Y-0.8268
X5.9252Y-1.3976
X5.9252Y-1.5748
X5.9252Y-2.1457
X5.9252Y-2.3228
X5.9252Y-2.8937
X5.9252Y-3.0709
X5.9252Y-3.6417
X6.4764Y-0.8268
X6.4764Y-1.3976
X6.4764Y-1.5748
X6.4764Y-2.1457
X6.4764Y-2.3228
X6.4764Y-2.8937
X6.4764Y-3.0709
X6.4764Y-3.6417
X6.5748Y-1.3976
X6.5748Y-2.1457
X6.5748Y-2.8937
X6.5748Y-3.6417
X6.6732Y-0.8268
X6.6732Y-1.3976
X6.6732Y-1.5748
X6.6732Y-2.1457
X6.6732Y-2.3228
X6.6732Y-2.8937
X6.6732Y-3.0709
X6.6732Y-3.6417
X7.2244Y-0.8268
X7.2244Y-1.3976
X7.2244Y-1.5748
X7.2244Y-2.1457
X7.2244Y-2.3228
X7.2244Y-2.8937
X7.2244Y-3.0709
X7.2244Y-3.6417
X7.3228Y-1.3976
X7.3228Y-2.1457
X7.3228Y-2.8937
X7.3228Y-3.6417
X7.4213Y-0.8268
X7.4213Y-1.3976
X7.4213Y-1.5748
X7.4213Y-2.1457
X7.4213Y-2.3228
X7.4213Y-2.8937
X7.4213Y-3.0709
X7.4213Y-3.6417
X7.9724Y-0.8268
X7.9724Y-1.3976
X7.9724Y-1.5748
X7.9724Y-2.1457
X7.9724Y-2.3228
X7.9724Y-2.8937
X7.9724Y-3.0709
X7.9724Y-3.6417
X8.0709Y-1.3976
X8.0709Y-2.1457
X8.0709Y-2.8937
X8.0709Y-3.6417
X8.1693Y-0.8268
X8.1693Y-1.3976
X8.1693Y-1.5748
X8.1693Y-2.1457
X8.1693Y-2.3228
X8.1693Y-2.8937
X8.1693Y-3.0709
X8.1693Y-3.6417
X8.7205Y-0.8268
X8.7205Y-1.3976
X8.7205Y-1.5748
X8.7205Y-2.1457
X8.7205Y-2.3228
X8.7205Y-2.8937
X8.7205Y-3.0709
X8.7205Y-3.6417
X8.8189Y-1.3976
X8.8189Y-2.1457
X8.8189Y-2.8937
X8.8189Y-3.6417
X8.9173Y-0.8268
X8.9173Y-1.3976
X8.9173Y-1.5748
X8.9173Y-2.1457
X8.9173Y-2.3228
X8.9173Y-2.8937
X8.9173Y-3.0709
X8.9173Y-3.6417
X9.4685Y-0.8268
X9.4685Y-1.3976
X9.4685Y-1.5748
X9.4685Y-2.1457
X9.4685Y-2.3228
X9.4685Y-2.8937
X9.4685Y-3.0709
X9.4685Y-3.6417
X9.5669Y-1.3976
X9.5669Y-2.1457
X9.5669Y-2.8937
X9.5669Y-3.6417
X9.6654Y-0.8268
X9.6654Y-1.3976
X9.6654Y-1.5748
X9.6654Y-2.1457
X9.6654Y-2.3228
X9.6654Y-2.8937
X9.6654Y-3.0709
X9.6654Y-3.6417
T4
X1.1886Y-1.0024
X1.1886Y-1.7504
X1.1886Y-2.4984
X1.1886Y-3.2465
X1.4386Y-0.9024
X1.4386Y-1.6504
X1.4386Y-2.3984
X1.4386Y-3.1465
X1.9366Y-1.0024
X1.9366Y-1.7504
X1.9366Y-2.4984
X1.9366Y-3.2465
X2.1866Y-0.9024
X2.1866Y-1.6504
X2.1866Y-2.3984
X2.1866Y-3.1465
X2.6846Y-1.0024
X2.6846Y-1.7504
X2.6846Y-2.4984
X2.6846Y-3.2465
X2.9346Y-0.9024
X2.9346Y-1.6504
X2.9346Y-2.3984
X2.9346Y-3.1465
X3.4327Y-1.0024
X3.4327Y-1.7504
X3.4327Y-2.4984
X3.4327Y-3.2465
X3.6827Y-0.9024
X3.6827Y-1.6504
X3.6827Y-2.3984
X3.6827Y-3.1465
X4.1807Y-1.0024
X4.1807Y-1.7504
X4.1807Y-2.4984
X4.1807Y-3.2465
X4.4307Y-0.9024
X4.4307Y-1.6504
X4.4307Y-2.3984
X4.4307Y-3.1465
X4.9287Y-1.0024
X4.9287Y-1.7504
X4.9287Y-2.4984
X4.9287Y-3.2465
X5.1787Y-0.9024
X5.1787Y-1.6504
X5.1787Y-2.3984
X5.1787Y-3.1465
X5.6768Y-1.0024
X5.6768Y-1.7504
X5.6768Y-2.4984
X5.6768Y-3.2465
X5.9268Y-0.9024
X5.9268Y-1.6504
X5.9268Y-2.3984
X5.9268Y-3.1465
X6.4248Y-1.0024
X6.4248Y-1.7504
X6.4248Y-2.4984
X6.4248Y-3.2465
X6.6748Y-0.9024
X6.6748Y-1.6504
X6.6748Y-2.3984
X6.6748Y-3.1465
X7.1728Y-1.0024
X7.1728Y-1.7504
X7.1728Y-2.4984
X7.1728Y-3.2465
X7.4228Y-0.9024
X7.4228Y-1.6504
X7.4228Y-2.3984
X7.4228Y-3.1465
X7.9209Y-1.0024
X7.9209Y-1.7504
X7.9209Y-2.4984
X7.9209Y-3.2465
X8.1709Y-0.9024
X8.1709Y-1.6504
X8.1709Y-2.3984
X8.1709Y-3.1465
X8.6689Y-1.0024
X8.6689Y-1.7504
X8.6689Y-2.4984
X8.6689Y-3.2465
X8.9189Y-0.9024
X8.9189Y-1.6504
X8.9189Y-2.3984
X8.9189Y-3.1465
X9.4169Y-1.0024
X9.4169Y-1.7504
X9.4169Y-2.4984
X9.4169Y-3.2465
X9.6669Y-0.9024
X9.6669Y-1.6504
X9.6669Y-2.3984
X9.6669Y-3.1465
T2
G00X2.2906Y-0.7146
M15
G01X2.2906Y-0.7382
M16
G05
G00X2.2906Y-0.8693
M15
G01X2.2906Y-0.9126
M16
G05
G00X2.6307Y-0.7146
M15
G01X2.6307Y-0.7382
M16
G05
G00X2.6307Y-0.8693
M15
G01X2.6307Y-0.9126
M16
G05
T5
G00X1.1181Y-1.128
M15
G01X1.1181Y-1.0768
M16
G05
G00X1.1181Y-1.876
M15
G01X1.1181Y-1.8248
M16
G05
G00X1.1181Y-2.624
M15
G01X1.1181Y-2.5728
M16
G05
G00X1.1181Y-3.372
M15
G01X1.1181Y-3.3209
M16
G05
G00X1.5591Y-1.128
M15
G01X1.5591Y-1.0768
M16
G05
G00X1.5591Y-1.876
M15
G01X1.5591Y-1.8248
M16
G05
G00X1.5591Y-2.624
M15
G01X1.5591Y-2.5728
M16
G05
G00X1.5591Y-3.372
M15
G01X1.5591Y-3.3209
M16
G05
G00X1.8661Y-1.128
M15
G01X1.8661Y-1.0768
M16
G05
G00X1.8661Y-1.876
M15
G01X1.8661Y-1.8248
M16
G05
G00X1.8661Y-2.624
M15
G01X1.8661Y-2.5728
M16
G05
G00X1.8661Y-3.372
M15
G01X1.8661Y-3.3209
M16
G05
G00X2.3071Y-1.128
M15
G01X2.3071Y-1.0768
M16
G05
G00X2.3071Y-1.876
M15
G01X2.3071Y-1.8248
M16
G05
G00X2.3071Y-2.624
M15
G01X2.3071Y-2.5728
M16
G05
G00X2.3071Y-3.372
M15
G01X2.3071Y-3.3209
M16
G05
G00X2.6142Y-1.128
M15
G01X2.6142Y-1.0768
M16
G05
G00X2.6142Y-1.876
M15
G01X2.6142Y-1.8248
M16
G05
G00X2.6142Y-2.624
M15
G01X2.6142Y-2.5728
M16
G05
G00X2.6142Y-3.372
M15
G01X2.6142Y-3.3209
M16
G05
G00X3.0551Y-1.128
M15
G01X3.0551Y-1.0768
M16
G05
G00X3.0551Y-1.876
M15
G01X3.0551Y-1.8248
M16
G05
G00X3.0551Y-2.624
M15
G01X3.0551Y-2.5728
M16
G05
G00X3.0551Y-3.372
M15
G01X3.0551Y-3.3209
M16
G05
G00X3.3622Y-1.128
M15
G01X3.3622Y-1.0768
M16
G05
G00X3.3622Y-1.876
M15
G01X3.3622Y-1.8248
M16
G05
G00X3.3622Y-2.624
M15
G01X3.3622Y-2.5728
M16
G05
G00X3.3622Y-3.372
M15
G01X3.3622Y-3.3209
M16
G05
G00X3.8031Y-1.128
M15
G01X3.8031Y-1.0768
M16
G05
G00X3.8031Y-1.876
M15
G01X3.8031Y-1.8248
M16
G05
G00X3.8031Y-2.624
M15
G01X3.8031Y-2.5728
M16
G05
G00X3.8031Y-3.372
M15
G01X3.8031Y-3.3209
M16
G05
G00X4.1102Y-1.128
M15
G01X4.1102Y-1.0768
M16
G05
G00X4.1102Y-1.876
M15
G01X4.1102Y-1.8248
M16
G05
G00X4.1102Y-2.624
M15
G01X4.1102Y-2.5728
M16
G05
G00X4.1102Y-3.372
M15
G01X4.1102Y-3.3209
M16
G05
G00X4.5512Y-1.128
M15
G01X4.5512Y-1.0768
M16
G05
G00X4.5512Y-1.876
M15
G01X4.5512Y-1.8248
M16
G05
G00X4.5512Y-2.624
M15
G01X4.5512Y-2.5728
M16
G05
G00X4.5512Y-3.372
M15
G01X4.5512Y-3.3209
M16
G05
G00X4.8583Y-1.128
M15
G01X4.8583Y-1.0768
M16
G05
G00X4.8583Y-1.876
M15
G01X4.8583Y-1.8248
M16
G05
G00X4.8583Y-2.624
M15
G01X4.8583Y-2.5728
M16
G05
G00X4.8583Y-3.372
M15
G01X4.8583Y-3.3209
M16
G05
G00X5.2992Y-1.128
M15
G01X5.2992Y-1.0768
M16
G05
G00X5.2992Y-1.876
M15
G01X5.2992Y-1.8248
M16
G05
G00X5.2992Y-2.624
M15
G01X5.2992Y-2.5728
M16
G05
G00X5.2992Y-3.372
M15
G01X5.2992Y-3.3209
M16
G05
G00X5.6063Y-1.128
M15
G01X5.6063Y-1.0768
M16
G05
G00X5.6063Y-1.876
M15
G01X5.6063Y-1.8248
M16
G05
G00X5.6063Y-2.624
M15
G01X5.6063Y-2.5728
M16
G05
G00X5.6063Y-3.372
M15
G01X5.6063Y-3.3209
M16
G05
G00X6.0472Y-1.128
M15
G01X6.0472Y-1.0768
M16
G05
G00X6.0472Y-1.876
M15
G01X6.0472Y-1.8248
M16
G05
G00X6.0472Y-2.624
M15
G01X6.0472Y-2.5728
M16
G05
G00X6.0472Y-3.372
M15
G01X6.0472Y-3.3209
M16
G05
G00X6.3543Y-1.128
M15
G01X6.3543Y-1.0768
M16
G05
G00X6.3543Y-1.876
M15
G01X6.3543Y-1.8248
M16
G05
G00X6.3543Y-2.624
M15
G01X6.3543Y-2.5728
M16
G05
G00X6.3543Y-3.372
M15
G01X6.3543Y-3.3209
M16
G05
G00X6.7953Y-1.128
M15
G01X6.7953Y-1.0768
M16
G05
G00X6.7953Y-1.876
M15
G01X6.7953Y-1.8248
M16
G05
G00X6.7953Y-2.624
M15
G01X6.7953Y-2.5728
M16
G05
G00X6.7953Y-3.372
M15
G01X6.7953Y-3.3209
M16
G05
G00X7.1024Y-1.128
M15
G01X7.1024Y-1.0768
M16
G05
G00X7.1024Y-1.876
M15
G01X7.1024Y-1.8248
M16
G05
G00X7.1024Y-2.624
M15
G01X7.1024Y-2.5728
M16
G05
G00X7.1024Y-3.372
M15
G01X7.1024Y-3.3209
M16
G05
G00X7.5433Y-1.128
M15
G01X7.5433Y-1.0768
M16
G05
G00X7.5433Y-1.876
M15
G01X7.5433Y-1.8248
M16
G05
G00X7.5433Y-2.624
M15
G01X7.5433Y-2.5728
M16
G05
G00X7.5433Y-3.372
M15
G01X7.5433Y-3.3209
M16
G05
G00X7.8504Y-1.128
M15
G01X7.8504Y-1.0768
M16
G05
G00X7.8504Y-1.876
M15
G01X7.8504Y-1.8248
M16
G05
G00X7.8504Y-2.624
M15
G01X7.8504Y-2.5728
M16
G05
G00X7.8504Y-3.372
M15
G01X7.8504Y-3.3209
M16
G05
G00X8.2913Y-1.128
M15
G01X8.2913Y-1.0768
M16
G05
G00X8.2913Y-1.876
M15
G01X8.2913Y-1.8248
M16
G05
G00X8.2913Y-2.624
M15
G01X8.2913Y-2.5728
M16
G05
G00X8.2913Y-3.372
M15
G01X8.2913Y-3.3209
M16
G05
G00X8.5984Y-1.128
M15
G01X8.5984Y-1.0768
M16
G05
G00X8.5984Y-1.876
M15
G01X8.5984Y-1.8248
M16
G05
G00X8.5984Y-2.624
M15
G01X8.5984Y-2.5728
M16
G05
G00X8.5984Y-3.372
M15
G01X8.5984Y-3.3209
M16
G05
G00X9.0394Y-1.128
M15
G01X9.0394Y-1.0768
M16
G05
G00X9.0394Y-1.876
M15
G01X9.0394Y-1.8248
M16
G05
G00X9.0394Y-2.624
M15
G01X9.0394Y-2.5728
M16
G05
G00X9.0394Y-3.372
M15
G01X9.0394Y-3.3209
M16
G05
G00X9.3465Y-1.128
M15
G01X9.3465Y-1.0768
M16
G05
G00X9.3465Y-1.876
M15
G01X9.3465Y-1.8248
M16
G05
G00X9.3465Y-2.624
M15
G01X9.3465Y-2.5728
M16
G05
G00X9.3465Y-3.372
M15
G01X9.3465Y-3.3209
M16
G05
G00X9.7874Y-1.128
M15
G01X9.7874Y-1.0768
M16
G05
G00X9.7874Y-1.876
M15
G01X9.7874Y-1.8248
M16
G05
G00X9.7874Y-2.624
M15
G01X9.7874Y-2.5728
M16
G05
G00X9.7874Y-3.372
M15
G01X9.7874Y-3.3209
M16
G05
T0
M30
