%TF.GenerationSoftware,KiCad,Pcbnew,(6.0.1)*%
%TF.CreationDate,2022-03-23T22:50:50-04:00*%
%TF.ProjectId,OOPS-All-Knobs,4f4f5053-2d41-46c6-9c2d-4b6e6f62732e,rev?*%
%TF.SameCoordinates,Original*%
%TF.FileFunction,Soldermask,Top*%
%TF.FilePolarity,Negative*%
%FSLAX46Y46*%
G04 Gerber Fmt 4.6, Leading zero omitted, Abs format (unit mm)*
G04 Created by KiCad (PCBNEW (6.0.1)) date 2022-03-23 22:50:50*
%MOMM*%
%LPD*%
G01*
G04 APERTURE LIST*
G04 Aperture macros list*
%AMRoundRect*
0 Rectangle with rounded corners*
0 $1 Rounding radius*
0 $2 $3 $4 $5 $6 $7 $8 $9 X,Y pos of 4 corners*
0 Add a 4 corners polygon primitive as box body*
4,1,4,$2,$3,$4,$5,$6,$7,$8,$9,$2,$3,0*
0 Add four circle primitives for the rounded corners*
1,1,$1+$1,$2,$3*
1,1,$1+$1,$4,$5*
1,1,$1+$1,$6,$7*
1,1,$1+$1,$8,$9*
0 Add four rect primitives between the rounded corners*
20,1,$1+$1,$2,$3,$4,$5,0*
20,1,$1+$1,$4,$5,$6,$7,0*
20,1,$1+$1,$6,$7,$8,$9,0*
20,1,$1+$1,$8,$9,$2,$3,0*%
G04 Aperture macros list end*
%ADD10C,3.987800*%
%ADD11C,1.750000*%
%ADD12C,5.300000*%
%ADD13O,8.000000X6.000000*%
%ADD14O,5.000000X3.000000*%
%ADD15R,1.700000X1.700000*%
%ADD16O,1.700000X1.700000*%
%ADD17R,2.000000X2.000000*%
%ADD18C,2.000000*%
%ADD19RoundRect,1.000000X0.000000X-0.650000X0.000000X0.650000X0.000000X0.650000X0.000000X-0.650000X0*%
%ADD20C,0.650000*%
%ADD21O,1.000000X2.100000*%
%ADD22O,1.000000X1.600000*%
G04 APERTURE END LIST*
D10*
%TO.C,MX41*%
X110000000Y-85000000D03*
D11*
X115080000Y-85000000D03*
X104920000Y-85000000D03*
%TD*%
%TO.C,MX2*%
X58080000Y-28000000D03*
X47920000Y-28000000D03*
D10*
X53000000Y-28000000D03*
%TD*%
D11*
%TO.C,MX4*%
X96080000Y-28000000D03*
D10*
X91000000Y-28000000D03*
D11*
X85920000Y-28000000D03*
%TD*%
%TO.C,MX22*%
X199920000Y-47000000D03*
X210080000Y-47000000D03*
D10*
X205000000Y-47000000D03*
%TD*%
D11*
%TO.C,MX42*%
X134080000Y-85000000D03*
X123920000Y-85000000D03*
D10*
X129000000Y-85000000D03*
%TD*%
D11*
%TO.C,MX32*%
X161920000Y-66000000D03*
X172080000Y-66000000D03*
D10*
X167000000Y-66000000D03*
%TD*%
D11*
%TO.C,MX39*%
X77080000Y-85000000D03*
D10*
X72000000Y-85000000D03*
D11*
X66920000Y-85000000D03*
%TD*%
%TO.C,MX20*%
X161920000Y-47000000D03*
X172080000Y-47000000D03*
D10*
X167000000Y-47000000D03*
%TD*%
D11*
%TO.C,MX23*%
X218920000Y-47000000D03*
X229080000Y-47000000D03*
D10*
X224000000Y-47000000D03*
%TD*%
%TO.C,MX48*%
X243000000Y-85000000D03*
D11*
X237920000Y-85000000D03*
X248080000Y-85000000D03*
%TD*%
%TO.C,MX24*%
X248080000Y-47000000D03*
X237920000Y-47000000D03*
D10*
X243000000Y-47000000D03*
%TD*%
D11*
%TO.C,MX18*%
X123920000Y-47000000D03*
D10*
X129000000Y-47000000D03*
D11*
X134080000Y-47000000D03*
%TD*%
D10*
%TO.C,MX9*%
X186000000Y-28000000D03*
D11*
X191080000Y-28000000D03*
X180920000Y-28000000D03*
%TD*%
%TO.C,MX30*%
X134080000Y-66000000D03*
X123920000Y-66000000D03*
D10*
X129000000Y-66000000D03*
%TD*%
%TO.C,MX35*%
X224000000Y-66000000D03*
D11*
X229080000Y-66000000D03*
X218920000Y-66000000D03*
%TD*%
%TO.C,MX27*%
X77080000Y-66000000D03*
D10*
X72000000Y-66000000D03*
D11*
X66920000Y-66000000D03*
%TD*%
D10*
%TO.C,MX6*%
X129000000Y-28000000D03*
D11*
X134080000Y-28000000D03*
X123920000Y-28000000D03*
%TD*%
D12*
%TO.C,PCB1*%
X233500000Y-56500000D03*
X43500000Y-56500000D03*
D13*
X233500000Y-37500000D03*
X233500000Y-75500000D03*
D14*
X157500000Y-75500000D03*
X157500000Y-37500000D03*
D12*
X81500000Y-37500000D03*
D14*
X119500000Y-75500000D03*
D13*
X138500000Y-56500000D03*
D12*
X195500000Y-37500000D03*
X195500000Y-75500000D03*
D13*
X43500000Y-37500000D03*
X43500000Y-75500000D03*
D12*
X81500000Y-75500000D03*
D14*
X119500000Y-37500000D03*
%TD*%
D11*
%TO.C,MX47*%
X218920000Y-85000000D03*
X229080000Y-85000000D03*
D10*
X224000000Y-85000000D03*
%TD*%
%TO.C,MX17*%
X110000000Y-47000000D03*
D11*
X115080000Y-47000000D03*
X104920000Y-47000000D03*
%TD*%
D15*
%TO.C,J2*%
X43500000Y-66625000D03*
D16*
X43500000Y-64085000D03*
X43500000Y-61545000D03*
%TD*%
D11*
%TO.C,MX14*%
X58080000Y-47000000D03*
X47920000Y-47000000D03*
D10*
X53000000Y-47000000D03*
%TD*%
D11*
%TO.C,MX1*%
X39080000Y-28000000D03*
D10*
X34000000Y-28000000D03*
D11*
X28920000Y-28000000D03*
%TD*%
%TO.C,MX46*%
X210080000Y-85000000D03*
X199920000Y-85000000D03*
D10*
X205000000Y-85000000D03*
%TD*%
D11*
%TO.C,MX21*%
X180920000Y-47000000D03*
X191080000Y-47000000D03*
D10*
X186000000Y-47000000D03*
%TD*%
D11*
%TO.C,MX26*%
X58080000Y-66000000D03*
D10*
X53000000Y-66000000D03*
D11*
X47920000Y-66000000D03*
%TD*%
%TO.C,MX8*%
X172080000Y-28000000D03*
D10*
X167000000Y-28000000D03*
D11*
X161920000Y-28000000D03*
%TD*%
%TO.C,MX16*%
X96080000Y-47000000D03*
D10*
X91000000Y-47000000D03*
D11*
X85920000Y-47000000D03*
%TD*%
%TO.C,MX11*%
X218920000Y-28000000D03*
X229080000Y-28000000D03*
D10*
X224000000Y-28000000D03*
%TD*%
D11*
%TO.C,MX12*%
X237920000Y-28000000D03*
D10*
X243000000Y-28000000D03*
D11*
X248080000Y-28000000D03*
%TD*%
%TO.C,MX33*%
X180920000Y-66000000D03*
D10*
X186000000Y-66000000D03*
D11*
X191080000Y-66000000D03*
%TD*%
%TO.C,MX31*%
X153080000Y-66000000D03*
X142920000Y-66000000D03*
D10*
X148000000Y-66000000D03*
%TD*%
D11*
%TO.C,MX38*%
X58080000Y-85000000D03*
D10*
X53000000Y-85000000D03*
D11*
X47920000Y-85000000D03*
%TD*%
%TO.C,MX36*%
X248080000Y-66000000D03*
X237920000Y-66000000D03*
D10*
X243000000Y-66000000D03*
%TD*%
%TO.C,MX15*%
X72000000Y-47000000D03*
D11*
X66920000Y-47000000D03*
X77080000Y-47000000D03*
%TD*%
%TO.C,MX37*%
X39080000Y-85000000D03*
X28920000Y-85000000D03*
D10*
X34000000Y-85000000D03*
%TD*%
D11*
%TO.C,MX3*%
X77080000Y-28000000D03*
D10*
X72000000Y-28000000D03*
D11*
X66920000Y-28000000D03*
%TD*%
%TO.C,MX34*%
X210080000Y-66000000D03*
X199920000Y-66000000D03*
D10*
X205000000Y-66000000D03*
%TD*%
%TO.C,MX19*%
X148000000Y-47000000D03*
D11*
X142920000Y-47000000D03*
X153080000Y-47000000D03*
%TD*%
%TO.C,MX13*%
X28920000Y-47000000D03*
D10*
X34000000Y-47000000D03*
D11*
X39080000Y-47000000D03*
%TD*%
%TO.C,MX5*%
X104920000Y-28000000D03*
X115080000Y-28000000D03*
D10*
X110000000Y-28000000D03*
%TD*%
%TO.C,MX40*%
X91000000Y-85000000D03*
D11*
X85920000Y-85000000D03*
X96080000Y-85000000D03*
%TD*%
%TO.C,MX28*%
X85920000Y-66000000D03*
X96080000Y-66000000D03*
D10*
X91000000Y-66000000D03*
%TD*%
D11*
%TO.C,MX45*%
X180920000Y-85000000D03*
D10*
X186000000Y-85000000D03*
D11*
X191080000Y-85000000D03*
%TD*%
%TO.C,MX29*%
X104920000Y-66000000D03*
X115080000Y-66000000D03*
D10*
X110000000Y-66000000D03*
%TD*%
D11*
%TO.C,MX25*%
X28920000Y-66000000D03*
X39080000Y-66000000D03*
D10*
X34000000Y-66000000D03*
%TD*%
D11*
%TO.C,MX43*%
X142920000Y-85000000D03*
X153080000Y-85000000D03*
D10*
X148000000Y-85000000D03*
%TD*%
%TO.C,MX44*%
X167000000Y-85000000D03*
D11*
X172080000Y-85000000D03*
X161920000Y-85000000D03*
%TD*%
D10*
%TO.C,MX10*%
X205000000Y-28000000D03*
D11*
X210080000Y-28000000D03*
X199920000Y-28000000D03*
%TD*%
D10*
%TO.C,MX7*%
X148000000Y-28000000D03*
D11*
X142920000Y-28000000D03*
X153080000Y-28000000D03*
%TD*%
D17*
%TO.C,ENC36*%
X245500000Y-73500000D03*
D18*
X240500000Y-73500000D03*
X243000000Y-73500000D03*
D19*
X248600000Y-66000000D03*
X237400000Y-66000000D03*
D18*
X240500000Y-59000000D03*
X245500000Y-59000000D03*
%TD*%
D17*
%TO.C,ENC33*%
X188500000Y-73500000D03*
D18*
X183500000Y-73500000D03*
X186000000Y-73500000D03*
D19*
X191600000Y-66000000D03*
X180400000Y-66000000D03*
D18*
X183500000Y-59000000D03*
X188500000Y-59000000D03*
%TD*%
D17*
%TO.C,ENC11*%
X226500000Y-35500000D03*
D18*
X221500000Y-35500000D03*
D19*
X218400000Y-28000000D03*
D18*
X224000000Y-35500000D03*
D19*
X229600000Y-28000000D03*
D18*
X221500000Y-21000000D03*
X226500000Y-21000000D03*
%TD*%
D17*
%TO.C,ENC12*%
X245500000Y-35500000D03*
D18*
X240500000Y-35500000D03*
D19*
X248600000Y-28000000D03*
D18*
X243000000Y-35500000D03*
D19*
X237400000Y-28000000D03*
D18*
X240500000Y-21000000D03*
X245500000Y-21000000D03*
%TD*%
D17*
%TO.C,ENC37*%
X36500000Y-92500000D03*
D18*
X31500000Y-92500000D03*
X34000000Y-92500000D03*
D19*
X28400000Y-85000000D03*
X39600000Y-85000000D03*
D18*
X31500000Y-78000000D03*
X36500000Y-78000000D03*
%TD*%
%TO.C,ENC15*%
X74500000Y-40000000D03*
X69500000Y-40000000D03*
X72000000Y-54500000D03*
D19*
X66400000Y-47000000D03*
X77600000Y-47000000D03*
D18*
X69500000Y-54500000D03*
D17*
X74500000Y-54500000D03*
%TD*%
%TO.C,ENC8*%
X169500000Y-35500000D03*
D18*
X164500000Y-35500000D03*
X167000000Y-35500000D03*
D19*
X161400000Y-28000000D03*
X172600000Y-28000000D03*
D18*
X164500000Y-21000000D03*
X169500000Y-21000000D03*
%TD*%
D17*
%TO.C,ENC41*%
X112500000Y-92500000D03*
D18*
X107500000Y-92500000D03*
D19*
X115600000Y-85000000D03*
D18*
X110000000Y-92500000D03*
D19*
X104400000Y-85000000D03*
D18*
X107500000Y-78000000D03*
X112500000Y-78000000D03*
%TD*%
D17*
%TO.C,ENC17*%
X112500000Y-54500000D03*
D18*
X107500000Y-54500000D03*
D19*
X104400000Y-47000000D03*
D18*
X110000000Y-54500000D03*
D19*
X115600000Y-47000000D03*
D18*
X107500000Y-40000000D03*
X112500000Y-40000000D03*
%TD*%
D17*
%TO.C,ENC2*%
X55500000Y-35500000D03*
D18*
X50500000Y-35500000D03*
D19*
X58600000Y-28000000D03*
X47400000Y-28000000D03*
D18*
X53000000Y-35500000D03*
X50500000Y-21000000D03*
X55500000Y-21000000D03*
%TD*%
D17*
%TO.C,ENC47*%
X226500000Y-92500000D03*
D18*
X221500000Y-92500000D03*
D19*
X229600000Y-85000000D03*
X218400000Y-85000000D03*
D18*
X224000000Y-92500000D03*
X221500000Y-78000000D03*
X226500000Y-78000000D03*
%TD*%
D17*
%TO.C,ENC42*%
X131500000Y-92500000D03*
D18*
X126500000Y-92500000D03*
X129000000Y-92500000D03*
D19*
X123400000Y-85000000D03*
X134600000Y-85000000D03*
D18*
X126500000Y-78000000D03*
X131500000Y-78000000D03*
%TD*%
D17*
%TO.C,ENC25*%
X36500000Y-73500000D03*
D18*
X31500000Y-73500000D03*
X34000000Y-73500000D03*
D19*
X28400000Y-66000000D03*
X39600000Y-66000000D03*
D18*
X31500000Y-59000000D03*
X36500000Y-59000000D03*
%TD*%
D17*
%TO.C,ENC45*%
X188500000Y-92500000D03*
D18*
X183500000Y-92500000D03*
X186000000Y-92500000D03*
D19*
X180400000Y-85000000D03*
X191600000Y-85000000D03*
D18*
X183500000Y-78000000D03*
X188500000Y-78000000D03*
%TD*%
%TO.C,ENC3*%
X74500000Y-21000000D03*
X69500000Y-21000000D03*
D19*
X77600000Y-28000000D03*
D18*
X72000000Y-35500000D03*
D19*
X66400000Y-28000000D03*
D18*
X69500000Y-35500000D03*
D17*
X74500000Y-35500000D03*
%TD*%
%TO.C,ENC19*%
X150500000Y-54500000D03*
D18*
X145500000Y-54500000D03*
D19*
X142400000Y-47000000D03*
X153600000Y-47000000D03*
D18*
X148000000Y-54500000D03*
X145500000Y-40000000D03*
X150500000Y-40000000D03*
%TD*%
D17*
%TO.C,ENC32*%
X169500000Y-73500000D03*
D18*
X164500000Y-73500000D03*
D19*
X161400000Y-66000000D03*
X172600000Y-66000000D03*
D18*
X167000000Y-73500000D03*
X164500000Y-59000000D03*
X169500000Y-59000000D03*
%TD*%
D17*
%TO.C,ENC6*%
X131500000Y-35500000D03*
D18*
X126500000Y-35500000D03*
D19*
X123400000Y-28000000D03*
X134600000Y-28000000D03*
D18*
X129000000Y-35500000D03*
X126500000Y-21000000D03*
X131500000Y-21000000D03*
%TD*%
D17*
%TO.C,ENC39*%
X74500000Y-92500000D03*
D18*
X69500000Y-92500000D03*
X72000000Y-92500000D03*
D19*
X66400000Y-85000000D03*
X77600000Y-85000000D03*
D18*
X69500000Y-78000000D03*
X74500000Y-78000000D03*
%TD*%
D17*
%TO.C,ENC26*%
X55500000Y-73500000D03*
D18*
X50500000Y-73500000D03*
D19*
X58600000Y-66000000D03*
D18*
X53000000Y-73500000D03*
D19*
X47400000Y-66000000D03*
D18*
X50500000Y-59000000D03*
X55500000Y-59000000D03*
%TD*%
D20*
%TO.C,J1*%
X65390000Y-22100000D03*
X59610000Y-22100000D03*
D21*
X58180000Y-22630000D03*
D22*
X66820000Y-18450000D03*
X58180000Y-18450000D03*
D21*
X66820000Y-22630000D03*
%TD*%
D17*
%TO.C,ENC44*%
X169500000Y-92500000D03*
D18*
X164500000Y-92500000D03*
X167000000Y-92500000D03*
D19*
X161400000Y-85000000D03*
X172600000Y-85000000D03*
D18*
X164500000Y-78000000D03*
X169500000Y-78000000D03*
%TD*%
D17*
%TO.C,ENC22*%
X207500000Y-54500000D03*
D18*
X202500000Y-54500000D03*
D19*
X210600000Y-47000000D03*
D18*
X205000000Y-54500000D03*
D19*
X199400000Y-47000000D03*
D18*
X202500000Y-40000000D03*
X207500000Y-40000000D03*
%TD*%
D17*
%TO.C,ENC24*%
X245500000Y-54500000D03*
D18*
X240500000Y-54500000D03*
D19*
X237400000Y-47000000D03*
X248600000Y-47000000D03*
D18*
X243000000Y-54500000D03*
X240500000Y-40000000D03*
X245500000Y-40000000D03*
%TD*%
D17*
%TO.C,ENC46*%
X207500000Y-92500000D03*
D18*
X202500000Y-92500000D03*
D19*
X210600000Y-85000000D03*
D18*
X205000000Y-92500000D03*
D19*
X199400000Y-85000000D03*
D18*
X202500000Y-78000000D03*
X207500000Y-78000000D03*
%TD*%
D17*
%TO.C,ENC43*%
X150500000Y-92500000D03*
D18*
X145500000Y-92500000D03*
D19*
X153600000Y-85000000D03*
D18*
X148000000Y-92500000D03*
D19*
X142400000Y-85000000D03*
D18*
X145500000Y-78000000D03*
X150500000Y-78000000D03*
%TD*%
D17*
%TO.C,ENC20*%
X169500000Y-54500000D03*
D18*
X164500000Y-54500000D03*
D19*
X172600000Y-47000000D03*
D18*
X167000000Y-54500000D03*
D19*
X161400000Y-47000000D03*
D18*
X164500000Y-40000000D03*
X169500000Y-40000000D03*
%TD*%
D17*
%TO.C,ENC23*%
X226500000Y-54500000D03*
D18*
X221500000Y-54500000D03*
D19*
X229600000Y-47000000D03*
D18*
X224000000Y-54500000D03*
D19*
X218400000Y-47000000D03*
D18*
X221500000Y-40000000D03*
X226500000Y-40000000D03*
%TD*%
D17*
%TO.C,ENC18*%
X131500000Y-54500000D03*
D18*
X126500000Y-54500000D03*
D19*
X123400000Y-47000000D03*
D18*
X129000000Y-54500000D03*
D19*
X134600000Y-47000000D03*
D18*
X126500000Y-40000000D03*
X131500000Y-40000000D03*
%TD*%
D17*
%TO.C,ENC13*%
X36500000Y-54500000D03*
D18*
X31500000Y-54500000D03*
D19*
X39600000Y-47000000D03*
X28400000Y-47000000D03*
D18*
X34000000Y-54500000D03*
X31500000Y-40000000D03*
X36500000Y-40000000D03*
%TD*%
D17*
%TO.C,ENC30*%
X131500000Y-73500000D03*
D18*
X126500000Y-73500000D03*
X129000000Y-73500000D03*
D19*
X134600000Y-66000000D03*
X123400000Y-66000000D03*
D18*
X126500000Y-59000000D03*
X131500000Y-59000000D03*
%TD*%
D17*
%TO.C,ENC29*%
X112500000Y-73500000D03*
D18*
X107500000Y-73500000D03*
D19*
X104400000Y-66000000D03*
X115600000Y-66000000D03*
D18*
X110000000Y-73500000D03*
X107500000Y-59000000D03*
X112500000Y-59000000D03*
%TD*%
D17*
%TO.C,ENC4*%
X93500000Y-35500000D03*
D18*
X88500000Y-35500000D03*
D19*
X96600000Y-28000000D03*
X85400000Y-28000000D03*
D18*
X91000000Y-35500000D03*
X88500000Y-21000000D03*
X93500000Y-21000000D03*
%TD*%
D17*
%TO.C,ENC1*%
X36500000Y-35500000D03*
D18*
X31500000Y-35500000D03*
D19*
X28400000Y-28000000D03*
D18*
X34000000Y-35500000D03*
D19*
X39600000Y-28000000D03*
D18*
X31500000Y-21000000D03*
X36500000Y-21000000D03*
%TD*%
D17*
%TO.C,ENC21*%
X188500000Y-54500000D03*
D18*
X183500000Y-54500000D03*
D19*
X180400000Y-47000000D03*
D18*
X186000000Y-54500000D03*
D19*
X191600000Y-47000000D03*
D18*
X183500000Y-40000000D03*
X188500000Y-40000000D03*
%TD*%
D17*
%TO.C,ENC9*%
X188500000Y-35500000D03*
D18*
X183500000Y-35500000D03*
D19*
X191600000Y-28000000D03*
D18*
X186000000Y-35500000D03*
D19*
X180400000Y-28000000D03*
D18*
X183500000Y-21000000D03*
X188500000Y-21000000D03*
%TD*%
D17*
%TO.C,ENC34*%
X207500000Y-73500000D03*
D18*
X202500000Y-73500000D03*
D19*
X199400000Y-66000000D03*
D18*
X205000000Y-73500000D03*
D19*
X210600000Y-66000000D03*
D18*
X202500000Y-59000000D03*
X207500000Y-59000000D03*
%TD*%
D17*
%TO.C,ENC7*%
X150500000Y-35500000D03*
D18*
X145500000Y-35500000D03*
X148000000Y-35500000D03*
D19*
X142400000Y-28000000D03*
X153600000Y-28000000D03*
D18*
X145500000Y-21000000D03*
X150500000Y-21000000D03*
%TD*%
D17*
%TO.C,ENC5*%
X112500000Y-35500000D03*
D18*
X107500000Y-35500000D03*
D19*
X115600000Y-28000000D03*
X104400000Y-28000000D03*
D18*
X110000000Y-35500000D03*
X107500000Y-21000000D03*
X112500000Y-21000000D03*
%TD*%
D17*
%TO.C,ENC48*%
X245500000Y-92500000D03*
D18*
X240500000Y-92500000D03*
X243000000Y-92500000D03*
D19*
X248600000Y-85000000D03*
X237400000Y-85000000D03*
D18*
X240500000Y-78000000D03*
X245500000Y-78000000D03*
%TD*%
D17*
%TO.C,ENC38*%
X55500000Y-92500000D03*
D18*
X50500000Y-92500000D03*
D19*
X58600000Y-85000000D03*
D18*
X53000000Y-92500000D03*
D19*
X47400000Y-85000000D03*
D18*
X50500000Y-78000000D03*
X55500000Y-78000000D03*
%TD*%
D17*
%TO.C,ENC40*%
X93500000Y-92500000D03*
D18*
X88500000Y-92500000D03*
X91000000Y-92500000D03*
D19*
X96600000Y-85000000D03*
X85400000Y-85000000D03*
D18*
X88500000Y-78000000D03*
X93500000Y-78000000D03*
%TD*%
D17*
%TO.C,ENC14*%
X55500000Y-54500000D03*
D18*
X50500000Y-54500000D03*
D19*
X58600000Y-47000000D03*
X47400000Y-47000000D03*
D18*
X53000000Y-54500000D03*
X50500000Y-40000000D03*
X55500000Y-40000000D03*
%TD*%
D17*
%TO.C,ENC28*%
X93500000Y-73500000D03*
D18*
X88500000Y-73500000D03*
D19*
X96600000Y-66000000D03*
X85400000Y-66000000D03*
D18*
X91000000Y-73500000D03*
X88500000Y-59000000D03*
X93500000Y-59000000D03*
%TD*%
D17*
%TO.C,ENC31*%
X150500000Y-73500000D03*
D18*
X145500000Y-73500000D03*
X148000000Y-73500000D03*
D19*
X142400000Y-66000000D03*
X153600000Y-66000000D03*
D18*
X145500000Y-59000000D03*
X150500000Y-59000000D03*
%TD*%
D17*
%TO.C,ENC27*%
X74500000Y-73500000D03*
D18*
X69500000Y-73500000D03*
D19*
X66400000Y-66000000D03*
X77600000Y-66000000D03*
D18*
X72000000Y-73500000D03*
X69500000Y-59000000D03*
X74500000Y-59000000D03*
%TD*%
D17*
%TO.C,ENC35*%
X226500000Y-73500000D03*
D18*
X221500000Y-73500000D03*
D19*
X218400000Y-66000000D03*
X229600000Y-66000000D03*
D18*
X224000000Y-73500000D03*
X221500000Y-59000000D03*
X226500000Y-59000000D03*
%TD*%
D17*
%TO.C,ENC10*%
X207500000Y-35500000D03*
D18*
X202500000Y-35500000D03*
X205000000Y-35500000D03*
D19*
X210600000Y-28000000D03*
X199400000Y-28000000D03*
D18*
X202500000Y-21000000D03*
X207500000Y-21000000D03*
%TD*%
D17*
%TO.C,ENC16*%
X93500000Y-54500000D03*
D18*
X88500000Y-54500000D03*
X91000000Y-54500000D03*
D19*
X96600000Y-47000000D03*
X85400000Y-47000000D03*
D18*
X88500000Y-40000000D03*
X93500000Y-40000000D03*
%TD*%
M02*
