M48
; DRILL file {KiCad (6.0.1)} date Fri Mar 25 00:59:26 2022
; FORMAT={-:-/ absolute / inch / decimal}
; #@! TF.CreationDate,2022-03-25T00:59:26-04:00
; #@! TF.GenerationSoftware,Kicad,Pcbnew,(6.0.1)
; #@! TF.FileFunction,NonPlated,1,2,NPTH
FMAT,2
INCH
; #@! TA.AperFunction,NonPlated,NPTH,ComponentDrill
T1C0.0256
; #@! TA.AperFunction,NonPlated,NPTH,ComponentDrill
T2C0.0689
; #@! TA.AperFunction,NonPlated,NPTH,ComponentDrill
T3C0.1181
; #@! TA.AperFunction,NonPlated,NPTH,ComponentDrill
T4C0.1570
; #@! TA.AperFunction,NonPlated,NPTH,ComponentDrill
T5C0.2362
%
G90
G05
T1
X2.3469Y-0.8701
X2.5744Y-0.8701
T2
X1.1386Y-1.1024
X1.1386Y-1.8504
X1.1386Y-2.5984
X1.1386Y-3.3465
X1.5386Y-1.1024
X1.5386Y-1.8504
X1.5386Y-2.5984
X1.5386Y-3.3465
X1.8866Y-1.1024
X1.8866Y-1.8504
X1.8866Y-2.5984
X1.8866Y-3.3465
X2.2866Y-1.1024
X2.2866Y-1.8504
X2.2866Y-2.5984
X2.2866Y-3.3465
X2.6346Y-1.1024
X2.6346Y-1.8504
X2.6346Y-2.5984
X2.6346Y-3.3465
X3.0346Y-1.1024
X3.0346Y-1.8504
X3.0346Y-2.5984
X3.0346Y-3.3465
X3.3827Y-1.1024
X3.3827Y-1.8504
X3.3827Y-2.5984
X3.3827Y-3.3465
X3.7827Y-1.1024
X3.7827Y-1.8504
X3.7827Y-2.5984
X3.7827Y-3.3465
X4.1307Y-1.1024
X4.1307Y-1.8504
X4.1307Y-2.5984
X4.1307Y-3.3465
X4.5307Y-1.1024
X4.5307Y-1.8504
X4.5307Y-2.5984
X4.5307Y-3.3465
X4.8787Y-1.1024
X4.8787Y-1.8504
X4.8787Y-2.5984
X4.8787Y-3.3465
X5.2787Y-1.1024
X5.2787Y-1.8504
X5.2787Y-2.5984
X5.2787Y-3.3465
X5.6268Y-1.1024
X5.6268Y-1.8504
X5.6268Y-2.5984
X5.6268Y-3.3465
X6.0268Y-1.1024
X6.0268Y-1.8504
X6.0268Y-2.5984
X6.0268Y-3.3465
X6.3748Y-1.1024
X6.3748Y-1.8504
X6.3748Y-2.5984
X6.3748Y-3.3465
X6.7748Y-1.1024
X6.7748Y-1.8504
X6.7748Y-2.5984
X6.7748Y-3.3465
X7.1228Y-1.1024
X7.1228Y-1.8504
X7.1228Y-2.5984
X7.1228Y-3.3465
X7.5228Y-1.1024
X7.5228Y-1.8504
X7.5228Y-2.5984
X7.5228Y-3.3465
X7.8709Y-1.1024
X7.8709Y-1.8504
X7.8709Y-2.5984
X7.8709Y-3.3465
X8.2709Y-1.1024
X8.2709Y-1.8504
X8.2709Y-2.5984
X8.2709Y-3.3465
X8.6189Y-1.1024
X8.6189Y-1.8504
X8.6189Y-2.5984
X8.6189Y-3.3465
X9.0189Y-1.1024
X9.0189Y-1.8504
X9.0189Y-2.5984
X9.0189Y-3.3465
X9.3669Y-1.1024
X9.3669Y-1.8504
X9.3669Y-2.5984
X9.3669Y-3.3465
X9.7669Y-1.1024
X9.7669Y-1.8504
X9.7669Y-2.5984
X9.7669Y-3.3465
T3
X1.7126Y-2.2244
X3.2087Y-1.4764
X3.2087Y-2.9724
X7.6969Y-1.4764
X7.6969Y-2.9724
X9.1929Y-2.2244
T4
X1.3386Y-1.1024
X1.3386Y-1.8504
X1.3386Y-2.5984
X1.3386Y-3.3465
X2.0866Y-1.1024
X2.0866Y-1.8504
X2.0866Y-2.5984
X2.0866Y-3.3465
X2.8346Y-1.1024
X2.8346Y-1.8504
X2.8346Y-2.5984
X2.8346Y-3.3465
X3.5827Y-1.1024
X3.5827Y-1.8504
X3.5827Y-2.5984
X3.5827Y-3.3465
X4.3307Y-1.1024
X4.3307Y-1.8504
X4.3307Y-2.5984
X4.3307Y-3.3465
X5.0787Y-1.1024
X5.0787Y-1.8504
X5.0787Y-2.5984
X5.0787Y-3.3465
X5.8268Y-1.1024
X5.8268Y-1.8504
X5.8268Y-2.5984
X5.8268Y-3.3465
X6.5748Y-1.1024
X6.5748Y-1.8504
X6.5748Y-2.5984
X6.5748Y-3.3465
X7.3228Y-1.1024
X7.3228Y-1.8504
X7.3228Y-2.5984
X7.3228Y-3.3465
X8.0709Y-1.1024
X8.0709Y-1.8504
X8.0709Y-2.5984
X8.0709Y-3.3465
X8.8189Y-1.1024
X8.8189Y-1.8504
X8.8189Y-2.5984
X8.8189Y-3.3465
X9.5669Y-1.1024
X9.5669Y-1.8504
X9.5669Y-2.5984
X9.5669Y-3.3465
T3
G00X4.6654Y-1.4764
M15
G01X4.7441Y-1.4764
M16
G05
G00X4.6654Y-2.9724
M15
G01X4.7441Y-2.9724
M16
G05
G00X6.1614Y-1.4764
M15
G01X6.2402Y-1.4764
M16
G05
G00X6.1614Y-2.9724
M15
G01X6.2402Y-2.9724
M16
G05
T5
G00X1.6732Y-1.4764
M15
G01X1.752Y-1.4764
M16
G05
G00X1.6732Y-2.9724
M15
G01X1.752Y-2.9724
M16
G05
G00X5.4134Y-2.2244
M15
G01X5.4921Y-2.2244
M16
G05
G00X9.1535Y-1.4764
M15
G01X9.2323Y-1.4764
M16
G05
G00X9.1535Y-2.9724
M15
G01X9.2323Y-2.9724
M16
G05
T0
M30
